%FSLAX34Y34*%
%MOMM*%
%LNCOPPER_TOP*%
G71*
G01*
%ADD10C, 3.700*%
%ADD11C, 2.100*%
%ADD12C, 2.000*%
%ADD13C, 2.200*%
%ADD14C, 1.600*%
%ADD15R, 2.400X0.800*%
%ADD16C, 2.000*%
%ADD17R, 1.000X1.600*%
%ADD18R, 2.400X1.600*%
%ADD19C, 0.800*%
%ADD20C, 3.800*%
%ADD21C, 2.160*%
%ADD22C, 0.500*%
%ADD23C, 0.800*%
%ADD24R, 1.200X1.500*%
%ADD25C, 0.900*%
%ADD26R, 0.500X1.000*%
%ADD27R, 1.000X0.500*%
%ADD28C, 1.400*%
%ADD29R, 1.500X1.200*%
%ADD30R, 1.100X1.400*%
%ADD31R, 1.100X1.100*%
%ADD32R, 1.000X1.020*%
%ADD33C, 0.600*%
%ADD34R, 0.800X2.400*%
%ADD35R, 1.700X1.800*%
%ADD36C, 0.400*%
%ADD37C, 0.300*%
%ADD38R, 1.800X1.500*%
%ADD39R, 1.500X1.800*%
%ADD40C, 6.000*%
%LPD*%
X431800Y384050D02*
G54D10*
D03*
X431800Y307850D02*
G54D10*
D03*
X254000Y282450D02*
G54D10*
D03*
X342900Y130050D02*
G54D10*
D03*
X393700Y155450D02*
G54D11*
D03*
X292100Y155450D02*
G54D11*
D03*
X311150Y857125D02*
G54D12*
D03*
X336550Y857125D02*
G54D12*
D03*
X361950Y857125D02*
G54D12*
D03*
X279400Y796800D02*
G54D13*
D03*
X279400Y517400D02*
G54D13*
D03*
X485775Y796800D02*
G54D13*
D03*
X485775Y517400D02*
G54D13*
D03*
X822325Y796800D02*
G54D13*
D03*
X822325Y517400D02*
G54D13*
D03*
X1028700Y796800D02*
G54D13*
D03*
X1028700Y517400D02*
G54D13*
D03*
X517525Y857125D02*
G54D12*
D03*
X542925Y857125D02*
G54D12*
D03*
X568325Y857125D02*
G54D12*
D03*
X739775Y857125D02*
G54D12*
D03*
X765175Y857125D02*
G54D12*
D03*
X790575Y857125D02*
G54D12*
D03*
X946150Y857125D02*
G54D12*
D03*
X971550Y857125D02*
G54D12*
D03*
X996950Y857125D02*
G54D12*
D03*
X1108075Y787275D02*
G54D14*
D03*
X1120775Y768225D02*
G54D14*
D03*
X1108075Y749175D02*
G54D14*
D03*
G36*
X1122425Y471300D02*
X1106425Y471300D01*
X1106425Y487300D01*
X1122425Y487300D01*
X1122425Y471300D01*
G37*
X1092200Y479300D02*
G54D14*
D03*
X635000Y733300D02*
G54D15*
D03*
X635000Y720600D02*
G54D15*
D03*
X635000Y707900D02*
G54D15*
D03*
X635000Y695200D02*
G54D15*
D03*
X635000Y682500D02*
G54D15*
D03*
X635000Y669800D02*
G54D15*
D03*
X635000Y657100D02*
G54D15*
D03*
X685000Y657100D02*
G54D15*
D03*
X685000Y669800D02*
G54D15*
D03*
X685000Y682500D02*
G54D15*
D03*
X685000Y695200D02*
G54D15*
D03*
X685000Y707900D02*
G54D15*
D03*
X685000Y720600D02*
G54D15*
D03*
X685000Y733300D02*
G54D15*
D03*
G36*
X571025Y578200D02*
X591025Y578200D01*
X591025Y558200D01*
X571025Y558200D01*
X571025Y578200D01*
G37*
X606425Y568200D02*
G54D16*
D03*
X631825Y568200D02*
G54D16*
D03*
X733425Y549150D02*
G54D17*
D03*
X748525Y549150D02*
G54D17*
D03*
X763625Y549150D02*
G54D17*
D03*
X748525Y588050D02*
G54D18*
D03*
G54D19*
X748425Y556150D02*
X748425Y581150D01*
X565150Y193550D02*
G54D20*
D03*
X660150Y193550D02*
G54D20*
D03*
X755150Y193550D02*
G54D20*
D03*
G36*
X508875Y401350D02*
X538875Y401350D01*
X538875Y341350D01*
X508875Y341350D01*
X508875Y401350D01*
G37*
G36*
X738875Y401350D02*
X768875Y401350D01*
X768875Y341350D01*
X738875Y341350D01*
X738875Y401350D01*
G37*
X625475Y298325D02*
G54D21*
D03*
X523875Y298325D02*
G54D21*
D03*
G54D22*
X311150Y857125D02*
X311150Y828550D01*
X317500Y822200D01*
X495300Y822200D01*
X504825Y812675D01*
X571500Y812675D01*
X577850Y806325D01*
X609600Y806325D01*
G54D22*
X517525Y857125D02*
X517525Y828550D01*
X523875Y822200D01*
X593725Y822200D01*
G54D22*
X635000Y720600D02*
X619125Y720600D01*
X609600Y730125D01*
X570612Y730125D01*
X568266Y732471D01*
G54D22*
X596900Y707900D02*
X635000Y707900D01*
G54D22*
X596900Y682500D02*
X635000Y682500D01*
G54D22*
X564321Y707959D02*
X564321Y682559D01*
G54D22*
X635000Y733300D02*
X628650Y733300D01*
X609600Y752350D01*
X581025Y752350D01*
X568325Y765050D01*
G54D22*
X279400Y796800D02*
X323850Y796800D01*
G54D22*
X635000Y669800D02*
X619125Y669800D01*
X606425Y657100D01*
X593725Y657100D01*
G54D22*
X635000Y657100D02*
X628650Y657100D01*
X609600Y638050D01*
X581796Y638050D01*
X568266Y624521D01*
G54D22*
X739775Y857125D02*
X739775Y822200D01*
G54D22*
X946150Y857125D02*
X946150Y831725D01*
X936625Y822200D01*
X765175Y822200D01*
X750888Y807912D01*
X715962Y807912D01*
X701675Y822200D01*
G54D22*
X723900Y707900D02*
X685000Y707900D01*
G54D22*
X685000Y682500D02*
X723900Y682500D01*
G54D22*
X756479Y707841D02*
X756479Y682441D01*
G54D22*
X485775Y796800D02*
X527050Y796800D01*
G54D22*
X609600Y806325D02*
X625475Y822200D01*
G54D22*
X587375Y822200D02*
X606425Y841250D01*
X631825Y841250D01*
X650875Y822200D01*
G54D22*
X739775Y822200D02*
X739775Y822325D01*
X720675Y841425D01*
X695500Y841425D01*
X676275Y822200D01*
G54D22*
X593725Y752350D02*
X593725Y768225D01*
X587375Y774575D01*
X587375Y789562D01*
X587316Y789621D01*
G54D22*
X559629Y796741D02*
X559629Y794454D01*
X549275Y784100D01*
X549275Y751462D01*
X568266Y732471D01*
G54D22*
X356429Y796741D02*
X356429Y797629D01*
X366712Y807912D01*
X442912Y807912D01*
X473075Y777750D01*
X517525Y777750D01*
X533400Y761875D01*
X533400Y672975D01*
X549275Y657100D01*
X568325Y657100D01*
G54D22*
X390466Y789621D02*
X448504Y789621D01*
X469900Y768225D01*
X514350Y768225D01*
X523875Y758700D01*
X523875Y650750D01*
X549275Y625350D01*
X567437Y625350D01*
X568266Y624521D01*
G54D22*
X685000Y695200D02*
X663575Y695200D01*
X663575Y771400D01*
G54D22*
X625416Y789621D02*
X625416Y777809D01*
X631825Y771400D01*
X695325Y771400D01*
X701675Y777750D01*
X701675Y789562D01*
X701616Y789621D01*
G54D22*
X676216Y789621D02*
X676216Y771459D01*
X676275Y771400D01*
G54D22*
X650816Y789621D02*
X650816Y771459D01*
X650875Y771400D01*
G54D22*
X765175Y796800D02*
X765175Y780925D01*
X771525Y774575D01*
X771525Y751579D01*
X752416Y732471D01*
G54D22*
X727075Y752350D02*
X739775Y752350D01*
X752475Y765050D01*
G54D22*
X727075Y752350D02*
X714375Y752350D01*
X695325Y733300D01*
G54D22*
X739716Y789621D02*
X737358Y789621D01*
X727075Y779338D01*
X727075Y752350D01*
G54D22*
X685000Y720600D02*
X701675Y720600D01*
X714375Y733300D01*
X751587Y733300D01*
X752416Y732471D01*
G54D22*
X797754Y796741D02*
X822266Y796741D01*
X822325Y796800D01*
G54D22*
X685000Y669800D02*
X701675Y669800D01*
X714375Y657100D01*
X752475Y657100D01*
G54D22*
X727075Y636500D02*
X740437Y636500D01*
X752416Y624521D01*
G54D22*
X727075Y636500D02*
X712750Y636500D01*
X692150Y657100D01*
G54D22*
X939800Y803150D02*
X935038Y807912D01*
X868362Y807912D01*
X835025Y774575D01*
X806450Y774575D01*
X790575Y758700D01*
X790575Y676150D01*
X771525Y657100D01*
X752475Y657100D01*
G54D22*
X898466Y789621D02*
X862771Y789621D01*
X838200Y765050D01*
X809625Y765050D01*
X800100Y755525D01*
X800100Y653925D01*
X771525Y625350D01*
X753246Y625350D01*
X752416Y624521D01*
G54D22*
X975554Y796741D02*
X1028641Y796741D01*
X1028700Y796800D01*
X546100Y695200D02*
G54D23*
D03*
X781050Y695200D02*
G54D23*
D03*
G54D22*
X546100Y695200D02*
X561975Y695200D01*
G54D22*
X781050Y695200D02*
X758825Y695200D01*
G54D22*
X635000Y695200D02*
X647700Y695200D01*
X654050Y688850D01*
X654050Y650750D01*
X650875Y647575D01*
X650875Y635510D01*
X650240Y634875D01*
G54D22*
X663575Y701550D02*
X663575Y653925D01*
X669925Y647575D01*
X669925Y635790D01*
X670840Y634875D01*
G36*
X1079025Y359125D02*
X1099025Y359125D01*
X1099025Y339125D01*
X1079025Y339125D01*
X1079025Y359125D01*
G37*
X1114025Y349125D02*
G54D16*
D03*
G36*
X1079025Y428975D02*
X1099025Y428975D01*
X1099025Y408975D01*
X1079025Y408975D01*
X1079025Y428975D01*
G37*
X1114025Y418975D02*
G54D16*
D03*
G36*
X1079025Y289275D02*
X1099025Y289275D01*
X1099025Y269275D01*
X1079025Y269275D01*
X1079025Y289275D01*
G37*
X1114025Y279275D02*
G54D16*
D03*
X1092200Y517400D02*
G54D24*
D03*
X1112800Y517400D02*
G54D24*
D03*
G36*
X700150Y585725D02*
X700150Y569725D01*
X684150Y569725D01*
X684150Y585725D01*
X700150Y585725D01*
G37*
X692150Y555500D02*
G54D14*
D03*
G54D22*
X748525Y588050D02*
X727875Y588050D01*
X717550Y577725D01*
X692150Y577725D01*
X635000Y634875D02*
G54D23*
D03*
X717550Y609475D02*
G54D23*
D03*
G54D22*
X635000Y634875D02*
X650240Y634875D01*
G54D22*
X717550Y609475D02*
X702563Y609475D01*
X702504Y609416D01*
G54D22*
X645354Y609416D02*
X669866Y609416D01*
X669925Y609475D01*
X669925Y566612D01*
X681038Y555500D01*
X692150Y555500D01*
G54D22*
X692150Y577725D02*
X692150Y587250D01*
X685800Y593600D01*
X685800Y634875D01*
X670840Y634875D01*
X685800Y634875D02*
G54D23*
D03*
G54D22*
X612775Y609475D02*
X590550Y609475D01*
X581025Y599950D01*
X581025Y568200D01*
G54D22*
X692150Y555500D02*
X698500Y549150D01*
X733425Y549150D01*
X733425Y536450D01*
X736600Y533275D01*
X758825Y533275D01*
X762000Y536450D01*
X762000Y547525D01*
X763625Y549150D01*
X1111250Y536450D02*
G54D25*
D03*
X1092200Y536450D02*
G54D25*
D03*
G54D22*
X1092200Y479300D02*
X1092200Y520575D01*
G54D22*
X1112800Y520575D02*
X1112800Y480925D01*
X1114425Y479300D01*
X933450Y272925D02*
G54D26*
D03*
X941450Y272925D02*
G54D26*
D03*
X949450Y272925D02*
G54D26*
D03*
X957450Y272925D02*
G54D26*
D03*
X965450Y272925D02*
G54D26*
D03*
X973450Y272925D02*
G54D26*
D03*
X981450Y272925D02*
G54D26*
D03*
X989450Y272925D02*
G54D26*
D03*
X933450Y360925D02*
G54D26*
D03*
X941450Y360925D02*
G54D26*
D03*
X949450Y360925D02*
G54D26*
D03*
X957450Y360925D02*
G54D26*
D03*
X965450Y360925D02*
G54D26*
D03*
X973450Y360925D02*
G54D26*
D03*
X981450Y360925D02*
G54D26*
D03*
X989450Y360925D02*
G54D26*
D03*
X1005450Y288925D02*
G54D27*
D03*
X1005450Y296925D02*
G54D27*
D03*
X1005450Y304925D02*
G54D27*
D03*
X1005450Y312925D02*
G54D27*
D03*
X1005450Y320925D02*
G54D27*
D03*
X1005450Y328925D02*
G54D27*
D03*
X1005450Y336925D02*
G54D27*
D03*
X1005450Y344925D02*
G54D27*
D03*
X917450Y288925D02*
G54D27*
D03*
X917450Y296925D02*
G54D27*
D03*
X917450Y304925D02*
G54D27*
D03*
X917450Y312925D02*
G54D27*
D03*
X917450Y320925D02*
G54D27*
D03*
X917450Y328925D02*
G54D27*
D03*
X917450Y336925D02*
G54D27*
D03*
X917450Y344925D02*
G54D27*
D03*
X1042988Y453900D02*
G54D28*
D03*
X1030288Y466600D02*
G54D28*
D03*
X1042988Y479300D02*
G54D28*
D03*
G36*
X979550Y480950D02*
X979550Y464950D01*
X963550Y464950D01*
X963550Y480950D01*
X979550Y480950D01*
G37*
X971550Y450725D02*
G54D14*
D03*
X1063625Y458345D02*
G54D29*
D03*
X1063625Y478945D02*
G54D29*
D03*
X1009650Y472950D02*
G54D29*
D03*
X1009650Y452350D02*
G54D29*
D03*
X950912Y250700D02*
G54D30*
D03*
X971512Y250700D02*
G54D30*
D03*
X958850Y380875D02*
G54D30*
D03*
X979450Y380875D02*
G54D30*
D03*
G54D22*
X1092200Y520575D02*
X1092200Y536450D01*
G36*
X1107600Y653450D02*
X1107600Y673450D01*
X1127600Y673450D01*
X1127600Y653450D01*
X1107600Y653450D01*
G37*
X1117600Y688850D02*
G54D16*
D03*
X1117600Y714250D02*
G54D16*
D03*
G36*
X923450Y97825D02*
X923450Y117825D01*
X943450Y117825D01*
X943450Y97825D01*
X923450Y97825D01*
G37*
X933450Y133225D02*
G54D16*
D03*
X933450Y158625D02*
G54D16*
D03*
X933450Y184025D02*
G54D16*
D03*
G36*
X1127600Y161325D02*
X1107600Y161325D01*
X1107600Y181325D01*
X1127600Y181325D01*
X1127600Y161325D01*
G37*
X1092200Y171325D02*
G54D12*
D03*
X1117600Y196725D02*
G54D12*
D03*
X1092200Y196725D02*
G54D12*
D03*
X1117600Y222125D02*
G54D12*
D03*
X1092200Y222125D02*
G54D12*
D03*
X834813Y442943D02*
G54D31*
D03*
X834813Y423943D02*
G54D31*
D03*
X812613Y433443D02*
G54D31*
D03*
X371475Y431675D02*
G54D32*
D03*
X336575Y431675D02*
G54D32*
D03*
G54D22*
X1041400Y479300D02*
X1092200Y479300D01*
G54D22*
X1114425Y479300D02*
X1095375Y460250D01*
X1057275Y460250D01*
X1050925Y466600D01*
X1028700Y466600D01*
G54D22*
X1028700Y466600D02*
X1022350Y472950D01*
X1009650Y472950D01*
G54D22*
X1009650Y472950D02*
X971550Y472950D01*
G54D33*
X1041400Y453900D02*
X1011200Y453900D01*
X1009650Y452350D01*
X973175Y452350D01*
X971550Y450725D01*
X1095375Y584875D02*
G54D34*
D03*
X1108075Y584875D02*
G54D34*
D03*
X1120775Y584875D02*
G54D34*
D03*
X1133475Y584875D02*
G54D34*
D03*
X1133475Y634875D02*
G54D34*
D03*
X1120775Y634875D02*
G54D34*
D03*
X1108075Y634875D02*
G54D34*
D03*
X1095375Y634875D02*
G54D34*
D03*
G54D22*
X1112800Y520575D02*
X1111250Y522125D01*
X1111250Y536450D01*
G54D33*
X1095375Y634875D02*
X1095375Y657100D01*
X1101725Y663450D01*
X1130300Y663450D01*
X1133475Y660275D01*
X1133475Y634875D01*
G54D33*
X1120775Y634875D02*
X1120775Y660275D01*
X1117600Y663450D01*
G54D33*
X1108075Y634875D02*
X1108075Y653925D01*
X1117600Y663450D01*
G54D33*
X1095375Y584875D02*
X1095375Y571375D01*
X1098550Y568200D01*
X1117600Y568200D01*
X1120775Y571375D01*
X1120775Y584875D01*
G54D33*
X1108075Y584875D02*
X1108075Y568200D01*
G54D33*
X1098550Y555500D02*
X1098550Y568200D01*
G54D33*
X1111250Y568200D02*
X1111250Y536450D01*
G54D33*
X1098550Y555500D02*
X1111250Y555500D01*
X1012825Y415800D02*
G54D35*
D03*
X971550Y415800D02*
G54D35*
D03*
G36*
X1021875Y97825D02*
X1021875Y117825D01*
X1041875Y117825D01*
X1041875Y97825D01*
X1021875Y97825D01*
G37*
X1031875Y133225D02*
G54D16*
D03*
X1031875Y158625D02*
G54D16*
D03*
X1031875Y184025D02*
G54D16*
D03*
G54D22*
X1044575Y418975D02*
X1044575Y431675D01*
X1057275Y444375D01*
X1117600Y444375D01*
X1130300Y457075D01*
X1130300Y554612D01*
X1131129Y555441D01*
G54D22*
X1133475Y584875D02*
X1133475Y570487D01*
X1127918Y564930D01*
X1127918Y555500D01*
G54D36*
X973450Y272925D02*
X973450Y251050D01*
X973100Y250700D01*
G54D36*
X949450Y272925D02*
X949450Y252162D01*
X950912Y250700D01*
G54D36*
X957450Y272925D02*
X957450Y264800D01*
X958850Y263400D01*
X973138Y263400D01*
G54D36*
X965450Y272925D02*
X965450Y283788D01*
X963612Y285625D01*
X949325Y285625D01*
X949325Y273050D01*
X949450Y272925D01*
G36*
X939800Y285625D02*
X939800Y317375D01*
X930275Y326900D01*
X930275Y347538D01*
X992188Y347538D01*
X992188Y326900D01*
X982662Y317375D01*
X982662Y285625D01*
X939800Y285625D01*
G37*
G54D22*
X939800Y285625D02*
X939800Y317375D01*
X930275Y326900D01*
X930275Y347538D01*
X992188Y347538D01*
X992188Y326900D01*
X982662Y317375D01*
X982662Y285625D01*
X939800Y285625D01*
G54D36*
X957450Y360925D02*
X957450Y347725D01*
X957262Y347538D01*
G54D36*
X957450Y360925D02*
X957450Y379475D01*
X958850Y380875D01*
G54D36*
X981450Y360925D02*
X981450Y378875D01*
X979450Y380875D01*
G54D22*
X1089025Y345950D02*
X1045463Y345950D01*
X1044634Y346779D01*
G54D22*
X1044575Y314200D02*
X1079500Y314200D01*
X1089025Y304675D01*
X1089025Y276100D01*
G54D22*
X971550Y450725D02*
X971550Y415800D01*
G54D22*
X1012825Y415800D02*
X1012825Y403100D01*
X1006475Y396750D01*
X981075Y396750D01*
X981075Y382500D01*
X979450Y380875D01*
X996950Y380875D02*
G54D23*
D03*
X971550Y234825D02*
G54D23*
D03*
G54D22*
X996950Y380875D02*
X979450Y380875D01*
G54D36*
X1031875Y184025D02*
X1047750Y199900D01*
X1047750Y240287D01*
X1044516Y243521D01*
G54D36*
X1005450Y296925D02*
X1023750Y296925D01*
X1044575Y276100D01*
G54D36*
X1005450Y304925D02*
X995612Y304925D01*
X992188Y301500D01*
X992188Y287212D01*
X1003300Y276100D01*
G54D36*
X971512Y250700D02*
X971512Y234862D01*
X971550Y234825D01*
G54D36*
X1003300Y276100D02*
X1003300Y250700D01*
G54D36*
X1003241Y218121D02*
X1004129Y218121D01*
X1016000Y206250D01*
X1016000Y174500D01*
X1031875Y158625D01*
X952500Y234825D02*
G54D23*
D03*
G54D22*
X952500Y234825D02*
X952500Y249112D01*
X950912Y250700D01*
X952500Y396750D02*
G54D23*
D03*
G54D22*
X958850Y380875D02*
X958850Y390400D01*
X952500Y396750D01*
G54D22*
X971550Y234825D02*
X971550Y225300D01*
X1006475Y190375D01*
X1006475Y101475D01*
X1019175Y88775D01*
X1050925Y88775D01*
X1063625Y101475D01*
X1063625Y161800D01*
X1073150Y171325D01*
X1092200Y171325D01*
G54D36*
X1092200Y196725D02*
X1073150Y196725D01*
X1063625Y206250D01*
X1063625Y288800D01*
X1057275Y295150D01*
X1038225Y295150D01*
X1025525Y307850D01*
X1025525Y326900D01*
X1016000Y336425D01*
X1005950Y336425D01*
X1005450Y336925D01*
G54D36*
X989450Y360925D02*
X1024625Y360925D01*
X1028700Y365000D01*
X1130300Y365000D01*
X1139825Y355475D01*
X1139825Y218950D01*
X1117600Y196725D01*
G54D36*
X1005450Y344925D02*
X1020200Y344925D01*
X1033462Y331662D01*
X1119188Y331662D01*
X1130300Y320550D01*
X1130300Y253875D01*
X1130300Y253875D02*
G54D23*
D03*
G54D37*
X917450Y296925D02*
X923738Y296925D01*
X927100Y293562D01*
X927100Y286419D01*
X917575Y276894D01*
G54D37*
X917450Y304925D02*
X925262Y304925D01*
X932656Y297531D01*
X932656Y284831D01*
X923925Y276100D01*
G54D37*
X933450Y184025D02*
X917575Y199900D01*
X917575Y276894D01*
G54D37*
X923925Y276100D02*
X923925Y206250D01*
X930275Y199900D01*
X942975Y199900D01*
X949325Y193550D01*
X949325Y174500D01*
X933450Y158625D01*
X939800Y447550D02*
G54D23*
D03*
X904875Y288800D02*
G54D23*
D03*
G54D36*
X904875Y288800D02*
X917325Y288800D01*
X917450Y288925D01*
X878522Y482475D02*
G54D24*
D03*
X899122Y482475D02*
G54D24*
D03*
X889000Y447550D02*
G54D38*
D03*
X889000Y418182D02*
G54D38*
D03*
X917575Y447550D02*
G54D38*
D03*
X917575Y418182D02*
G54D38*
D03*
G54D22*
X917575Y447550D02*
X939800Y447550D01*
G54D33*
X889000Y418182D02*
X939007Y418182D01*
X971550Y450725D01*
X889000Y463425D02*
G54D23*
D03*
G54D37*
X1120775Y768225D02*
X1079500Y768225D01*
X1060450Y749175D01*
X1060450Y730125D01*
X1050925Y720600D01*
X904875Y720600D01*
X889000Y704725D01*
X889000Y463425D01*
G54D22*
X889000Y463425D02*
X889000Y447550D01*
G54D22*
X1108075Y787275D02*
X1085850Y787275D01*
X1050925Y752350D01*
X1050925Y733300D01*
X1047750Y730125D01*
X901700Y730125D01*
X879475Y707900D01*
X878522Y482475D01*
X917575Y355475D02*
G54D23*
D03*
G54D36*
X917575Y355475D02*
X917575Y345050D01*
X917450Y344925D01*
G54D22*
X1108075Y749175D02*
X1073150Y749175D01*
X1069975Y746000D01*
X1069975Y726950D01*
X1054100Y711075D01*
X908050Y711075D01*
X898525Y701550D01*
X898525Y482475D01*
X863600Y482475D02*
G54D23*
D03*
G54D22*
X863600Y482475D02*
X878522Y482475D01*
X914400Y482475D02*
G54D23*
D03*
G54D22*
X914400Y482475D02*
X899122Y482475D01*
X1016000Y312612D02*
G54D23*
D03*
X1016000Y380875D02*
G54D23*
D03*
G54D36*
X1016000Y312612D02*
X1005762Y312612D01*
X1005450Y312925D01*
G54D36*
X1044516Y386396D02*
X1021521Y386396D01*
X1016000Y380875D01*
X968375Y212600D02*
G54D23*
D03*
X933450Y234825D02*
G54D23*
D03*
G54D36*
X933450Y234825D02*
X933450Y218950D01*
X939800Y212600D01*
X968375Y212600D01*
X873125Y311025D02*
G54D23*
D03*
G54D36*
X873125Y311025D02*
X885825Y311025D01*
X889000Y312650D01*
G54D36*
X917450Y312925D02*
X889275Y312925D01*
X889000Y312650D01*
X889000Y384050D02*
G54D38*
D03*
X889000Y354682D02*
G54D38*
D03*
G54D36*
X873125Y311025D02*
X873125Y338807D01*
X889000Y354682D01*
G54D36*
X889000Y333250D02*
X892175Y333250D01*
X904875Y345950D01*
X904875Y371350D01*
X914400Y380875D01*
X958850Y380875D01*
X930275Y314200D02*
G54D23*
D03*
X860425Y339600D02*
G54D23*
D03*
G54D36*
X917450Y320925D02*
X923550Y320925D01*
X930275Y314200D01*
X889000Y312650D02*
G54D29*
D03*
X889000Y333250D02*
G54D29*
D03*
X860425Y384050D02*
G54D38*
D03*
X860425Y354682D02*
G54D38*
D03*
X860425Y447550D02*
G54D38*
D03*
X860425Y418182D02*
G54D38*
D03*
G54D36*
X860425Y339600D02*
X860425Y354682D01*
G54D36*
X860425Y418182D02*
X860425Y384050D01*
G54D36*
X860425Y418182D02*
X840574Y418182D01*
X834813Y423943D01*
G54D36*
X860425Y447550D02*
X839420Y447550D01*
X834813Y442943D01*
G54D36*
X863600Y482475D02*
X863600Y450725D01*
X860425Y447550D01*
G54D33*
X336575Y431675D02*
X336575Y431650D01*
X346075Y422150D01*
X346075Y180850D01*
X336550Y171325D01*
X307975Y171325D01*
X292100Y155450D01*
G54D33*
X371475Y431675D02*
X361950Y422150D01*
X361950Y180850D01*
X371475Y171325D01*
X377825Y171325D01*
X393700Y155450D01*
G54D33*
X336575Y431675D02*
X336575Y460275D01*
X346075Y469775D01*
X796925Y469775D01*
X812800Y453900D01*
X812800Y433630D01*
X812613Y433443D01*
G54D33*
X371475Y431675D02*
X371475Y450725D01*
X377825Y457075D01*
X784225Y457075D01*
X784225Y457075D02*
G54D23*
D03*
X784225Y482475D02*
G54D23*
D03*
X784225Y565025D02*
G54D23*
D03*
G54D33*
X784225Y482475D02*
X784225Y565025D01*
X1003300Y250700D02*
G54D38*
D03*
X1003300Y221332D02*
G54D38*
D03*
X1044575Y276100D02*
G54D38*
D03*
X1044575Y246732D02*
G54D38*
D03*
X1044634Y346779D02*
G54D38*
D03*
X1044634Y317411D02*
G54D38*
D03*
X1044575Y418975D02*
G54D38*
D03*
X1044575Y389607D02*
G54D38*
D03*
X1098550Y555500D02*
G54D39*
D03*
X1127918Y555500D02*
G54D39*
D03*
X898525Y822200D02*
G54D38*
D03*
X898525Y792832D02*
G54D38*
D03*
X946186Y796741D02*
G54D39*
D03*
X975554Y796741D02*
G54D39*
D03*
X765175Y796800D02*
G54D39*
D03*
X794543Y796800D02*
G54D39*
D03*
X739775Y822200D02*
G54D38*
D03*
X739775Y792832D02*
G54D38*
D03*
X587375Y822200D02*
G54D38*
D03*
X587375Y792832D02*
G54D38*
D03*
X530262Y796741D02*
G54D39*
D03*
X559629Y796741D02*
G54D39*
D03*
X327061Y796741D02*
G54D39*
D03*
X356429Y796741D02*
G54D39*
D03*
X390525Y822200D02*
G54D38*
D03*
X390525Y792832D02*
G54D38*
D03*
X568266Y761839D02*
G54D38*
D03*
X568266Y732471D02*
G54D38*
D03*
X568325Y657100D02*
G54D38*
D03*
X568325Y627732D02*
G54D38*
D03*
G54D22*
X568325Y657100D02*
X593725Y657100D01*
X752475Y657100D02*
G54D38*
D03*
X752475Y627732D02*
G54D38*
D03*
X752416Y761839D02*
G54D38*
D03*
X752416Y732471D02*
G54D38*
D03*
X564321Y707959D02*
G54D39*
D03*
X593689Y707959D02*
G54D39*
D03*
X564321Y682559D02*
G54D39*
D03*
X593689Y682559D02*
G54D39*
D03*
X727111Y707841D02*
G54D39*
D03*
X756479Y707841D02*
G54D39*
D03*
X727111Y682441D02*
G54D39*
D03*
X756479Y682441D02*
G54D39*
D03*
X625475Y822200D02*
G54D38*
D03*
X625475Y792832D02*
G54D38*
D03*
X650875Y822200D02*
G54D38*
D03*
X650875Y792832D02*
G54D38*
D03*
X676275Y822200D02*
G54D38*
D03*
X676275Y792832D02*
G54D38*
D03*
X701675Y822200D02*
G54D38*
D03*
X701675Y792832D02*
G54D38*
D03*
X593725Y752350D02*
G54D29*
D03*
X593725Y731750D02*
G54D29*
D03*
X593725Y657100D02*
G54D29*
D03*
X593725Y636500D02*
G54D29*
D03*
X727075Y752350D02*
G54D29*
D03*
X727075Y731750D02*
G54D29*
D03*
X727075Y657100D02*
G54D29*
D03*
X727075Y636500D02*
G54D29*
D03*
X670840Y634875D02*
G54D24*
D03*
X650240Y634875D02*
G54D24*
D03*
X612775Y609475D02*
G54D39*
D03*
X642143Y609475D02*
G54D39*
D03*
X673136Y609416D02*
G54D39*
D03*
X702504Y609416D02*
G54D39*
D03*
G54D36*
X889000Y384050D02*
X892175Y384050D01*
X911225Y403100D01*
X939800Y403100D01*
X942975Y406275D01*
X955675Y406275D01*
X965200Y396750D01*
X981075Y396750D01*
X990600Y184025D02*
G54D23*
D03*
X990600Y158625D02*
G54D38*
D03*
X990600Y129257D02*
G54D38*
D03*
G54D36*
X933450Y133225D02*
X986632Y133225D01*
X990600Y129257D01*
G54D36*
X990600Y184025D02*
X990600Y158625D01*
X1031875Y228475D02*
G54D23*
D03*
G54D36*
X1031875Y228475D02*
X1022350Y238000D01*
X1022350Y282450D01*
X1016000Y288800D01*
X1005575Y288800D01*
X1005450Y288925D01*
X195000Y845000D02*
G54D40*
D03*
X195000Y115000D02*
G54D40*
D03*
X1110000Y115000D02*
G54D40*
D03*
X1110000Y845000D02*
G54D40*
D03*
G54D22*
X939800Y447550D02*
X939800Y647575D01*
X981075Y688850D01*
X1092200Y688850D01*
X1117600Y714250D01*
M02*
