; Drill file
; Format: 3.3 (000.000)
M48
METRIC
T01C0.3
T02C0.4
T03C0.6
T04C0.8
T05C0.88
T06C1.0
T07C1.1
T08C1.8
T09C2.1
T10C3.2
%
G05
G90
T01
X054610Y069520
X063500Y063490
X068580Y063490
X071760Y060950
X078420Y056500
X078420Y048250
X078420Y045710
X086360Y048250
X088900Y046340
X091440Y048250
X093980Y044760
X095250Y039680
X099700Y038090
X101600Y038090
X101600Y031260
X103190Y022850
X097160Y023480
X095250Y023480
X093340Y023480
X096840Y021260
X099060Y018400
X090490Y028880
X093030Y031420
X091760Y035550
X086040Y033960
X087310Y031100
X113030Y025390
X078100Y069520
T02
X109220Y053640
X111120Y053640
T03
X069220Y055550
X069220Y057770
X097160Y047300
X097160Y045070
X103030Y046660
X104300Y045390
X104300Y047930
X109220Y047930
X111440Y047930
X110810Y074920
X112080Y076820
X110810Y078730
T04
X027940Y051740
X048580Y051740
X058100Y056820
X060640Y056820
X063180Y056820
X082230Y051740
X102870Y051740
X108900Y041900
X111400Y041900
X111400Y034910
X108900Y034910
X108900Y027930
X111400Y027930
X103190Y018400
X103190Y015860
X103190Y013320
X103190Y010780
X093340Y010780
X093340Y013320
X093340Y015860
X093340Y018400
X111760Y066340
X111760Y068880
X111760Y071420
X102870Y079680
X082230Y079680
X048580Y079680
X027940Y079680
T05
X052390Y029830
X062550Y029830
T06
X031120Y085710
X033660Y085710
X036200Y085710
X051750Y085710
X054290Y085710
X056830Y085710
X073980Y085710
X076520Y085710
X079060Y085710
X094620Y085710
X097160Y085710
X099700Y085710
X109220Y022210
X109220Y019670
X109220Y017130
X111760Y017130
X111760Y019670
X111760Y022210
T07
X029210Y015540
X039370Y015540
T08
X056520Y019360
X066020Y019360
X075520Y019360
X075390Y037140
X052390Y037140
T09
X034290Y013000
X025400Y028240
X043180Y030780
X043180Y038400
T10
X019500Y011500
X019500Y084500
X111000Y084500
X111000Y011500
M30
