%FSLAX34Y34*%
%MOMM*%
%LNSILK_TOP*%
G71*
G01*
%ADD10C, 0.200*%
%ADD11C, 0.191*%
%ADD12C, 0.100*%
%ADD13C, 0.150*%
%ADD14C, 0.159*%
%ADD15C, 0.400*%
%ADD16C, 0.300*%
%ADD17C, 0.476*%
%ADD18C, 0.318*%
%LPD*%
G54D10*
X215900Y415800D02*
X495300Y415800D01*
X495300Y282450D01*
X444500Y282450D01*
X444500Y85600D01*
X241300Y85600D01*
X241300Y238000D01*
X215900Y238000D01*
X215900Y415800D01*
G54D10*
X317500Y130050D02*
X254000Y130050D01*
X254000Y257050D01*
G54D10*
X254000Y307850D02*
X254000Y345950D01*
X368300Y345950D01*
G54D10*
X406400Y384050D02*
X381000Y384050D01*
X381000Y358650D01*
G54D10*
X381000Y333250D02*
X381000Y307850D01*
X406400Y307850D01*
G54D10*
X368300Y345950D02*
X393700Y365000D01*
G54D10*
X381000Y358650D02*
X387350Y371350D01*
G54D10*
X381000Y358650D02*
X374650Y371350D01*
G54D10*
X381000Y333250D02*
X387350Y320550D01*
G54D10*
X381000Y333250D02*
X374650Y320550D01*
G54D11*
X216550Y423850D02*
X216550Y434517D01*
G54D11*
X216550Y427183D02*
X220817Y434517D01*
G54D11*
X218150Y429183D02*
X220817Y423850D01*
G54D11*
X224550Y430517D02*
X227217Y434517D01*
X227217Y423850D01*
G54D11*
X222265Y398230D02*
X222265Y408897D01*
G54D11*
X226532Y398230D02*
X226532Y408897D01*
G54D11*
X222265Y403563D02*
X226532Y403563D01*
G54D11*
X230265Y408897D02*
X230265Y398230D01*
X233998Y398230D01*
G54D11*
X237731Y400230D02*
X238264Y398897D01*
X239331Y398230D01*
X240398Y398230D01*
X241464Y398897D01*
X241998Y400230D01*
X241998Y401563D01*
X241464Y402897D01*
X240398Y403563D01*
X239331Y403563D01*
X238264Y404230D01*
X237731Y405563D01*
X237731Y406897D01*
X238264Y408230D01*
X239331Y408897D01*
X240398Y408897D01*
X241464Y408230D01*
X241998Y406897D01*
G54D11*
X245731Y402897D02*
X249998Y402897D01*
G54D11*
X255864Y398230D02*
X255864Y408897D01*
G54D11*
X253731Y408897D02*
X257998Y408897D01*
G54D11*
X261731Y400230D02*
X262264Y398897D01*
X263331Y398230D01*
X264398Y398230D01*
X265464Y398897D01*
X265998Y400230D01*
X265998Y403563D01*
X265998Y404230D01*
X264398Y402897D01*
X263331Y402897D01*
X262264Y403563D01*
X261731Y404897D01*
X261731Y406897D01*
X262264Y408230D01*
X263331Y408897D01*
X264398Y408897D01*
X265464Y408230D01*
X265998Y406897D01*
X265998Y403563D01*
G54D11*
X273998Y406897D02*
X273998Y400230D01*
X273464Y398897D01*
X272398Y398230D01*
X271331Y398230D01*
X270264Y398897D01*
X269731Y400230D01*
X269731Y406897D01*
X270264Y408230D01*
X271331Y408897D01*
X272398Y408897D01*
X273464Y408230D01*
X273998Y406897D01*
G36*
X292050Y873025D02*
X380850Y873025D01*
X380850Y879425D01*
X292050Y879425D01*
X292050Y873025D01*
G37*
G54D12*
X292050Y873025D02*
X380850Y873025D01*
X380850Y879425D01*
X292050Y879425D01*
X292050Y873025D01*
G54D10*
X292050Y879425D02*
X292050Y841425D01*
X381050Y841425D01*
X381050Y879425D01*
X292050Y879425D01*
G54D11*
X383625Y876492D02*
X386292Y865825D01*
X388958Y876492D01*
G54D11*
X394824Y865825D02*
X394824Y876492D01*
G54D11*
X392691Y876492D02*
X396958Y876492D01*
G54D11*
X403891Y865825D02*
X403891Y876492D01*
X400691Y869825D01*
X400691Y868492D01*
X404958Y868492D01*
G54D10*
X232410Y765050D02*
X327660Y765050D01*
X327660Y549150D01*
X232410Y549150D01*
X232410Y765050D01*
G54D10*
X279400Y777750D02*
X279400Y765050D01*
G54D10*
X279400Y549150D02*
X279400Y536450D01*
G54D11*
X235193Y774733D02*
X236793Y773400D01*
X237327Y772067D01*
X237327Y769400D01*
G54D11*
X233060Y769400D02*
X233060Y780067D01*
X235727Y780067D01*
X236793Y779400D01*
X237327Y778067D01*
X237327Y776733D01*
X236793Y775400D01*
X235727Y774733D01*
X233060Y774733D01*
G54D11*
X241060Y776067D02*
X243727Y780067D01*
X243727Y769400D01*
G54D11*
X251727Y778067D02*
X251193Y779400D01*
X250127Y780067D01*
X249060Y780067D01*
X247993Y779400D01*
X247460Y778067D01*
X247460Y774733D01*
X247460Y774067D01*
X249060Y775400D01*
X250127Y775400D01*
X251193Y774733D01*
X251727Y773400D01*
X251727Y771400D01*
X251193Y770067D01*
X250127Y769400D01*
X249060Y769400D01*
X247993Y770067D01*
X247460Y771400D01*
X247460Y774733D01*
G54D11*
X245427Y754817D02*
X245427Y748150D01*
X244893Y746817D01*
X243827Y746150D01*
X242760Y746150D01*
X241693Y746817D01*
X241160Y748150D01*
X241160Y754817D01*
X241693Y756150D01*
X242760Y756817D01*
X243827Y756817D01*
X244893Y756150D01*
X245427Y754817D01*
G54D11*
X249587Y746150D02*
X249160Y746150D01*
X249160Y746683D01*
X249587Y746683D01*
X249587Y746150D01*
X249160Y746150D01*
G54D11*
X257587Y746150D02*
X253320Y746150D01*
X253320Y746817D01*
X253853Y748150D01*
X257053Y752150D01*
X257587Y753483D01*
X257587Y754817D01*
X257053Y756150D01*
X255987Y756817D01*
X254920Y756817D01*
X253853Y756150D01*
X253320Y754817D01*
G54D11*
X265587Y746150D02*
X261320Y746150D01*
X261320Y746817D01*
X261853Y748150D01*
X265053Y752150D01*
X265587Y753483D01*
X265587Y754817D01*
X265053Y756150D01*
X263987Y756817D01*
X262920Y756817D01*
X261853Y756150D01*
X261320Y754817D01*
G54D10*
X438785Y765050D02*
X534035Y765050D01*
X534035Y549150D01*
X438785Y549150D01*
X438785Y765050D01*
G54D10*
X485775Y777750D02*
X485775Y765050D01*
G54D10*
X485775Y549150D02*
X485775Y536450D01*
G54D11*
X441568Y774733D02*
X443168Y773400D01*
X443702Y772067D01*
X443702Y769400D01*
G54D11*
X439435Y769400D02*
X439435Y780067D01*
X442102Y780067D01*
X443168Y779400D01*
X443702Y778067D01*
X443702Y776733D01*
X443168Y775400D01*
X442102Y774733D01*
X439435Y774733D01*
G54D11*
X451702Y778067D02*
X451168Y779400D01*
X450102Y780067D01*
X449035Y780067D01*
X447968Y779400D01*
X447435Y778067D01*
X447435Y774733D01*
X447435Y774067D01*
X449035Y775400D01*
X450102Y775400D01*
X451168Y774733D01*
X451702Y773400D01*
X451702Y771400D01*
X451168Y770067D01*
X450102Y769400D01*
X449035Y769400D01*
X447968Y770067D01*
X447435Y771400D01*
X447435Y774733D01*
G54D11*
X450452Y754817D02*
X450452Y748150D01*
X449918Y746817D01*
X448852Y746150D01*
X447785Y746150D01*
X446718Y746817D01*
X446185Y748150D01*
X446185Y754817D01*
X446718Y756150D01*
X447785Y756817D01*
X448852Y756817D01*
X449918Y756150D01*
X450452Y754817D01*
G54D11*
X454612Y746150D02*
X454185Y746150D01*
X454185Y746683D01*
X454612Y746683D01*
X454612Y746150D01*
X454185Y746150D01*
G54D11*
X462612Y746150D02*
X458345Y746150D01*
X458345Y746817D01*
X458878Y748150D01*
X462078Y752150D01*
X462612Y753483D01*
X462612Y754817D01*
X462078Y756150D01*
X461012Y756817D01*
X459945Y756817D01*
X458878Y756150D01*
X458345Y754817D01*
G54D11*
X470612Y746150D02*
X466345Y746150D01*
X466345Y746817D01*
X466878Y748150D01*
X470078Y752150D01*
X470612Y753483D01*
X470612Y754817D01*
X470078Y756150D01*
X469012Y756817D01*
X467945Y756817D01*
X466878Y756150D01*
X466345Y754817D01*
G54D10*
X775335Y765050D02*
X870585Y765050D01*
X870585Y549150D01*
X775335Y549150D01*
X775335Y765050D01*
G54D10*
X822325Y777750D02*
X822325Y765050D01*
G54D10*
X822325Y549150D02*
X822325Y536450D01*
G54D11*
X854318Y774733D02*
X855918Y773400D01*
X856452Y772067D01*
X856452Y769400D01*
G54D11*
X852185Y769400D02*
X852185Y780067D01*
X854852Y780067D01*
X855918Y779400D01*
X856452Y778067D01*
X856452Y776733D01*
X855918Y775400D01*
X854852Y774733D01*
X852185Y774733D01*
G54D11*
X860185Y778067D02*
X860718Y779400D01*
X861785Y780067D01*
X862852Y780067D01*
X863918Y779400D01*
X864452Y778067D01*
X864452Y776733D01*
X863918Y775400D01*
X862852Y774733D01*
X863918Y774067D01*
X864452Y772733D01*
X864452Y771400D01*
X863918Y770067D01*
X862852Y769400D01*
X861785Y769400D01*
X860718Y770067D01*
X860185Y771400D01*
G54D11*
X868185Y780067D02*
X872452Y780067D01*
X871918Y778733D01*
X870852Y776733D01*
X869785Y774067D01*
X869252Y772067D01*
X869252Y769400D01*
G54D11*
X787002Y754817D02*
X787002Y748150D01*
X786468Y746817D01*
X785402Y746150D01*
X784335Y746150D01*
X783268Y746817D01*
X782735Y748150D01*
X782735Y754817D01*
X783268Y756150D01*
X784335Y756817D01*
X785402Y756817D01*
X786468Y756150D01*
X787002Y754817D01*
G54D11*
X791162Y746150D02*
X790735Y746150D01*
X790735Y746683D01*
X791162Y746683D01*
X791162Y746150D01*
X790735Y746150D01*
G54D11*
X799162Y746150D02*
X794895Y746150D01*
X794895Y746817D01*
X795428Y748150D01*
X798628Y752150D01*
X799162Y753483D01*
X799162Y754817D01*
X798628Y756150D01*
X797562Y756817D01*
X796495Y756817D01*
X795428Y756150D01*
X794895Y754817D01*
G54D11*
X807162Y746150D02*
X802895Y746150D01*
X802895Y746817D01*
X803428Y748150D01*
X806628Y752150D01*
X807162Y753483D01*
X807162Y754817D01*
X806628Y756150D01*
X805562Y756817D01*
X804495Y756817D01*
X803428Y756150D01*
X802895Y754817D01*
G54D10*
X981710Y765050D02*
X1076960Y765050D01*
X1076960Y549150D01*
X981710Y549150D01*
X981710Y765050D01*
G54D10*
X1028700Y777750D02*
X1028700Y765050D01*
G54D10*
X1028700Y549150D02*
X1028700Y536450D01*
G54D11*
X1060693Y774733D02*
X1062293Y773400D01*
X1062827Y772067D01*
X1062827Y769400D01*
G54D11*
X1058560Y769400D02*
X1058560Y780067D01*
X1061227Y780067D01*
X1062293Y779400D01*
X1062827Y778067D01*
X1062827Y776733D01*
X1062293Y775400D01*
X1061227Y774733D01*
X1058560Y774733D01*
G54D11*
X1070827Y769400D02*
X1066560Y769400D01*
X1066560Y770067D01*
X1067093Y771400D01*
X1070293Y775400D01*
X1070827Y776733D01*
X1070827Y778067D01*
X1070293Y779400D01*
X1069227Y780067D01*
X1068160Y780067D01*
X1067093Y779400D01*
X1066560Y778067D01*
G54D11*
X1077227Y774733D02*
X1076160Y774733D01*
X1075093Y775400D01*
X1074560Y776733D01*
X1074560Y778067D01*
X1075093Y779400D01*
X1076160Y780067D01*
X1077227Y780067D01*
X1078293Y779400D01*
X1078827Y778067D01*
X1078827Y776733D01*
X1078293Y775400D01*
X1077227Y774733D01*
X1078293Y774067D01*
X1078827Y772733D01*
X1078827Y771400D01*
X1078293Y770067D01*
X1077227Y769400D01*
X1076160Y769400D01*
X1075093Y770067D01*
X1074560Y771400D01*
X1074560Y772733D01*
X1075093Y774067D01*
X1076160Y774733D01*
G54D11*
X994727Y754817D02*
X994727Y748150D01*
X994193Y746817D01*
X993127Y746150D01*
X992060Y746150D01*
X990993Y746817D01*
X990460Y748150D01*
X990460Y754817D01*
X990993Y756150D01*
X992060Y756817D01*
X993127Y756817D01*
X994193Y756150D01*
X994727Y754817D01*
G54D11*
X998887Y746150D02*
X998460Y746150D01*
X998460Y746683D01*
X998887Y746683D01*
X998887Y746150D01*
X998460Y746150D01*
G54D11*
X1006887Y746150D02*
X1002620Y746150D01*
X1002620Y746817D01*
X1003153Y748150D01*
X1006353Y752150D01*
X1006887Y753483D01*
X1006887Y754817D01*
X1006353Y756150D01*
X1005287Y756817D01*
X1004220Y756817D01*
X1003153Y756150D01*
X1002620Y754817D01*
G54D11*
X1014887Y746150D02*
X1010620Y746150D01*
X1010620Y746817D01*
X1011153Y748150D01*
X1014353Y752150D01*
X1014887Y753483D01*
X1014887Y754817D01*
X1014353Y756150D01*
X1013287Y756817D01*
X1012220Y756817D01*
X1011153Y756150D01*
X1010620Y754817D01*
G36*
X498425Y873025D02*
X587225Y873025D01*
X587225Y879425D01*
X498425Y879425D01*
X498425Y873025D01*
G37*
G54D12*
X498425Y873025D02*
X587225Y873025D01*
X587225Y879425D01*
X498425Y879425D01*
X498425Y873025D01*
G54D10*
X498425Y879425D02*
X498425Y841425D01*
X587425Y841425D01*
X587425Y879425D01*
X498425Y879425D01*
G54D11*
X590000Y876492D02*
X592667Y865825D01*
X595333Y876492D01*
G54D11*
X601199Y865825D02*
X601199Y876492D01*
G54D11*
X599066Y876492D02*
X603333Y876492D01*
G54D11*
X607066Y872492D02*
X609733Y876492D01*
X609733Y865825D01*
G36*
X720675Y873025D02*
X809475Y873025D01*
X809475Y879425D01*
X720675Y879425D01*
X720675Y873025D01*
G37*
G54D12*
X720675Y873025D02*
X809475Y873025D01*
X809475Y879425D01*
X720675Y879425D01*
X720675Y873025D01*
G54D10*
X720675Y879425D02*
X720675Y841425D01*
X809675Y841425D01*
X809675Y879425D01*
X720675Y879425D01*
G54D11*
X812250Y876492D02*
X814917Y865825D01*
X817583Y876492D01*
G54D11*
X823449Y865825D02*
X823449Y876492D01*
G54D11*
X821316Y876492D02*
X825583Y876492D01*
G54D11*
X833583Y874492D02*
X833049Y875825D01*
X831983Y876492D01*
X830916Y876492D01*
X829849Y875825D01*
X829316Y874492D01*
X829316Y871158D01*
X829316Y870492D01*
X830916Y871825D01*
X831983Y871825D01*
X833049Y871158D01*
X833583Y869825D01*
X833583Y867825D01*
X833049Y866492D01*
X831983Y865825D01*
X830916Y865825D01*
X829849Y866492D01*
X829316Y867825D01*
X829316Y871158D01*
G36*
X927050Y873025D02*
X1015850Y873025D01*
X1015850Y879425D01*
X927050Y879425D01*
X927050Y873025D01*
G37*
G54D12*
X927050Y873025D02*
X1015850Y873025D01*
X1015850Y879425D01*
X927050Y879425D01*
X927050Y873025D01*
G54D10*
X927050Y879425D02*
X927050Y841425D01*
X1016050Y841425D01*
X1016050Y879425D01*
X927050Y879425D01*
G54D11*
X1018625Y876492D02*
X1021292Y865825D01*
X1023958Y876492D01*
G54D11*
X1029824Y865825D02*
X1029824Y876492D01*
G54D11*
X1027691Y876492D02*
X1031958Y876492D01*
G54D11*
X1039958Y876492D02*
X1035691Y876492D01*
X1035691Y871825D01*
X1036224Y871825D01*
X1037291Y872492D01*
X1038358Y872492D01*
X1039424Y871825D01*
X1039958Y870492D01*
X1039958Y867825D01*
X1039424Y866492D01*
X1038358Y865825D01*
X1037291Y865825D01*
X1036224Y866492D01*
X1035691Y867825D01*
G54D13*
X1100799Y795724D02*
X1092875Y789995D01*
X1092875Y746395D01*
X1100799Y740666D01*
G54D13*
G75*
G01X1100799Y740666D02*
G03X1100799Y795724I7376J27529D01*
G01*
G54D11*
X1065375Y795039D02*
X1065375Y805706D01*
X1068042Y805706D01*
X1069108Y805039D01*
X1069642Y803706D01*
X1069642Y797039D01*
X1069108Y795706D01*
X1068042Y795039D01*
X1065375Y795039D01*
G54D11*
X1073375Y795039D02*
X1073375Y805706D01*
X1076042Y805706D01*
X1077108Y805039D01*
X1077642Y803706D01*
X1077642Y797039D01*
X1077108Y795706D01*
X1076042Y795039D01*
X1073375Y795039D01*
G54D11*
X1081375Y801706D02*
X1084042Y805706D01*
X1084042Y795039D01*
G54D14*
X1091822Y796978D02*
X1091822Y805867D01*
X1094044Y805867D01*
X1094933Y805311D01*
X1095378Y804200D01*
X1095378Y798645D01*
X1094933Y797534D01*
X1094044Y796978D01*
X1091822Y796978D01*
G54D14*
X1098489Y798645D02*
X1098934Y797534D01*
X1099822Y796978D01*
X1100711Y796978D01*
X1101600Y797534D01*
X1102044Y798645D01*
X1102044Y799756D01*
X1101600Y800867D01*
X1100711Y801422D01*
X1099822Y801422D01*
X1098934Y801978D01*
X1098489Y803089D01*
X1098489Y804200D01*
X1098934Y805311D01*
X1099822Y805867D01*
X1100711Y805867D01*
X1101600Y805311D01*
X1102044Y804200D01*
G54D14*
X1105156Y802534D02*
X1107378Y805867D01*
X1107378Y796978D01*
G54D14*
X1112711Y801422D02*
X1111822Y801422D01*
X1110934Y801978D01*
X1110489Y803089D01*
X1110489Y804200D01*
X1110934Y805311D01*
X1111822Y805867D01*
X1112711Y805867D01*
X1113600Y805311D01*
X1114044Y804200D01*
X1114044Y803089D01*
X1113600Y801978D01*
X1112711Y801422D01*
X1113600Y800867D01*
X1114044Y799756D01*
X1114044Y798645D01*
X1113600Y797534D01*
X1112711Y796978D01*
X1111822Y796978D01*
X1110934Y797534D01*
X1110489Y798645D01*
X1110489Y799756D01*
X1110934Y800867D01*
X1111822Y801422D01*
G54D14*
X1117156Y798645D02*
X1117600Y797534D01*
X1118489Y796978D01*
X1119378Y796978D01*
X1120267Y797534D01*
X1120712Y798645D01*
X1120712Y799756D01*
X1120267Y800867D01*
X1119378Y801422D01*
X1118489Y801422D01*
X1117600Y801978D01*
X1117156Y803089D01*
X1117156Y804200D01*
X1117600Y805311D01*
X1118489Y805867D01*
X1119378Y805867D01*
X1120267Y805311D01*
X1120712Y804200D01*
G54D14*
X1127378Y796978D02*
X1123823Y796978D01*
X1123823Y797534D01*
X1124268Y798645D01*
X1126934Y801978D01*
X1127378Y803089D01*
X1127378Y804200D01*
X1126934Y805311D01*
X1126045Y805867D01*
X1125156Y805867D01*
X1124268Y805311D01*
X1123823Y804200D01*
G54D14*
X1134046Y804200D02*
X1134046Y798645D01*
X1133601Y797534D01*
X1132712Y796978D01*
X1131823Y796978D01*
X1130934Y797534D01*
X1130490Y798645D01*
X1130490Y804200D01*
X1130934Y805311D01*
X1131823Y805867D01*
X1132712Y805867D01*
X1133601Y805311D01*
X1134046Y804200D01*
G54D10*
G75*
G01X1128712Y479300D02*
G03X1128712Y479300I-25400J0D01*
G01*
G54D15*
G75*
G01X1125396Y466550D02*
G03X1125396Y492050I-22084J12750D01*
G01*
G54D10*
X1095375Y493588D02*
X1089025Y493588D01*
G54D10*
X1092200Y490412D02*
X1092200Y496762D01*
G54D10*
X1095375Y465012D02*
X1089025Y465012D01*
G54D10*
X1092200Y461838D02*
X1092200Y468188D01*
G54D11*
X1130599Y499648D02*
X1130065Y498314D01*
X1128999Y497648D01*
X1127932Y497648D01*
X1126865Y498314D01*
X1126332Y499648D01*
X1126332Y506314D01*
X1126865Y507648D01*
X1127932Y508314D01*
X1128999Y508314D01*
X1130065Y507648D01*
X1130599Y506314D01*
G54D11*
X1138599Y508314D02*
X1134332Y508314D01*
X1134332Y503648D01*
X1134865Y503648D01*
X1135932Y504314D01*
X1136999Y504314D01*
X1138065Y503648D01*
X1138599Y502314D01*
X1138599Y499648D01*
X1138065Y498314D01*
X1136999Y497648D01*
X1135932Y497648D01*
X1134865Y498314D01*
X1134332Y499648D01*
G54D14*
X1102967Y490158D02*
X1102967Y499047D01*
X1100300Y493492D01*
X1100300Y492381D01*
X1103856Y492381D01*
G54D14*
X1106967Y499047D02*
X1110522Y499047D01*
X1110078Y497936D01*
X1109189Y496270D01*
X1108300Y494047D01*
X1107856Y492381D01*
X1107856Y490158D01*
G54D14*
X1116301Y495158D02*
X1116301Y490158D01*
G54D14*
X1116301Y491270D02*
X1115856Y490381D01*
X1114967Y490158D01*
X1114078Y490381D01*
X1113634Y491270D01*
X1113634Y495158D01*
G54D13*
X670000Y740300D02*
X650000Y740300D01*
X650000Y650100D01*
X670000Y650100D01*
X670000Y740300D01*
G54D13*
X665000Y740300D02*
X655000Y740300D01*
X655000Y735300D01*
X665000Y735300D01*
X665000Y740300D01*
G54D11*
X649562Y747106D02*
X649562Y757773D01*
X652228Y757773D01*
X653295Y757106D01*
X653828Y755773D01*
X653828Y749106D01*
X653295Y747773D01*
X652228Y747106D01*
X649562Y747106D01*
G54D11*
X657562Y747106D02*
X660228Y757773D01*
X662895Y747106D01*
G54D11*
X658628Y751106D02*
X661828Y751106D01*
G54D11*
X670894Y747106D02*
X666628Y747106D01*
X666628Y747773D01*
X667161Y749106D01*
X670361Y753106D01*
X670894Y754439D01*
X670894Y755773D01*
X670361Y757106D01*
X669294Y757773D01*
X668228Y757773D01*
X667161Y757106D01*
X666628Y755773D01*
G54D14*
X655939Y675110D02*
X664828Y675110D01*
X664828Y679776D01*
G54D14*
X664828Y682888D02*
X655939Y682888D01*
X661495Y686221D01*
X655939Y689554D01*
X664828Y689554D01*
G54D14*
X657606Y692666D02*
X656495Y693332D01*
X655939Y694666D01*
X655939Y695999D01*
X656495Y697332D01*
X657606Y697999D01*
X658717Y697999D01*
X659828Y697332D01*
X660384Y695999D01*
X660939Y697332D01*
X662050Y697999D01*
X663161Y697999D01*
X664272Y697332D01*
X664828Y695999D01*
X664828Y694666D01*
X664272Y693332D01*
X663161Y692666D01*
G54D14*
X664828Y706443D02*
X664828Y701110D01*
X664272Y701110D01*
X663161Y701776D01*
X659828Y705776D01*
X658717Y706443D01*
X657606Y706443D01*
X656495Y705776D01*
X655939Y704443D01*
X655939Y703110D01*
X656495Y701776D01*
X657606Y701110D01*
G54D14*
X664828Y713554D02*
X655939Y713554D01*
X661495Y709554D01*
X662606Y709554D01*
X662606Y714887D01*
G54D16*
X556825Y586600D02*
X579825Y586600D01*
X579825Y589600D01*
X556825Y589600D01*
G54D16*
X656825Y589600D02*
X634825Y589600D01*
X634825Y586600D01*
X656825Y586600D01*
G54D16*
X591825Y586600D02*
X621825Y586600D01*
G54D16*
X591825Y589600D02*
X621825Y589600D01*
G54D16*
X579825Y589600D02*
X556825Y589600D01*
X556825Y532600D01*
X656825Y532600D01*
X656825Y589600D01*
X634825Y589600D01*
G54D16*
X591825Y589600D02*
X591825Y586600D01*
X621825Y586600D01*
X621825Y589600D01*
X591825Y589600D01*
G54D11*
X541656Y552566D02*
X552323Y557899D01*
G54D11*
X552323Y552566D02*
X541656Y557899D01*
G54D11*
X552323Y563765D02*
X541656Y563765D01*
G54D11*
X541656Y561632D02*
X541656Y565899D01*
G54D11*
X543656Y573899D02*
X542323Y573365D01*
X541656Y572299D01*
X541656Y571232D01*
X542323Y570165D01*
X543656Y569632D01*
X546990Y569632D01*
X547656Y569632D01*
X546323Y571232D01*
X546323Y572299D01*
X546990Y573365D01*
X548323Y573899D01*
X550323Y573899D01*
X551656Y573365D01*
X552323Y572299D01*
X552323Y571232D01*
X551656Y570165D01*
X550323Y569632D01*
X546990Y569632D01*
G54D17*
X746125Y118617D02*
X746125Y91950D01*
X755458Y91950D01*
G54D17*
X764791Y103617D02*
X775458Y103617D01*
G54D17*
X770124Y110283D02*
X770124Y96950D01*
G54D17*
X552450Y91950D02*
X559117Y118617D01*
X565783Y91950D01*
G54D17*
X555117Y101950D02*
X563117Y101950D01*
G54D17*
X575116Y103617D02*
X585783Y103617D01*
G54D17*
X580449Y110283D02*
X580449Y96950D01*
G54D17*
X654050Y118617D02*
X660717Y91950D01*
X667383Y118617D01*
G54D17*
X676716Y103617D02*
X687383Y103617D01*
G54D17*
X682049Y110283D02*
X682049Y96950D01*
G54D13*
X726325Y559425D02*
X726325Y577675D01*
X770825Y577675D01*
X770825Y559425D01*
X726325Y559425D01*
G54D11*
X738267Y534939D02*
X740934Y524272D01*
X743600Y534939D01*
G54D11*
X747333Y524272D02*
X747333Y534939D01*
X750000Y534939D01*
X751066Y534272D01*
X751600Y532939D01*
X751600Y526272D01*
X751066Y524939D01*
X750000Y524272D01*
X747333Y524272D01*
G54D11*
X759600Y534939D02*
X755333Y534939D01*
X755333Y530272D01*
X755866Y530272D01*
X756933Y530939D01*
X758000Y530939D01*
X759066Y530272D01*
X759600Y528939D01*
X759600Y526272D01*
X759066Y524939D01*
X758000Y524272D01*
X756933Y524272D01*
X755866Y524939D01*
X755333Y526272D01*
G54D14*
X736034Y563996D02*
X736034Y572885D01*
G54D14*
X734256Y572885D02*
X737812Y572885D01*
G54D14*
X740923Y572885D02*
X740923Y563996D01*
X744034Y563996D01*
G54D14*
X749812Y563996D02*
X749812Y572885D01*
X747145Y567329D01*
X747145Y566218D01*
X750701Y566218D01*
G54D14*
X753812Y571218D02*
X754256Y572329D01*
X755145Y572885D01*
X756034Y572885D01*
X756923Y572329D01*
X757368Y571218D01*
X757368Y570107D01*
X756923Y568996D01*
X756034Y568440D01*
X756923Y567885D01*
X757368Y566774D01*
X757368Y565663D01*
X756923Y564552D01*
X756034Y563996D01*
X755145Y563996D01*
X754256Y564552D01*
X753812Y565663D01*
G54D14*
X760479Y569552D02*
X762701Y572885D01*
X762701Y563996D01*
G54D10*
X503150Y267550D02*
X503150Y120550D01*
X524150Y120550D01*
X524150Y132550D01*
X606150Y132550D01*
X606150Y120550D01*
X619150Y120550D01*
X619150Y132550D01*
X701150Y132550D01*
X701150Y120550D01*
X714150Y120550D01*
X714150Y132550D01*
X796150Y132550D01*
X796150Y120550D01*
X817150Y120550D01*
X817150Y267550D01*
X796150Y267550D01*
X796150Y255550D01*
X714150Y255550D01*
X714150Y267550D01*
X701150Y267550D01*
X701150Y255550D01*
X619150Y255550D01*
X619150Y267550D01*
X606150Y267550D01*
X606150Y255550D01*
X524150Y255550D01*
X524150Y267550D01*
X503150Y267550D01*
G54D10*
G75*
G01X598150Y193550D02*
G03X598150Y193550I-33000J0D01*
G01*
G54D10*
X581150Y173550D02*
X586150Y168550D01*
G54D10*
X585150Y177550D02*
X590150Y172550D01*
G54D10*
X540150Y214550D02*
X545150Y209550D01*
G54D10*
X544150Y218550D02*
X549150Y213550D01*
G54D10*
G75*
G01X693150Y193550D02*
G03X693150Y193550I-33000J0D01*
G01*
G54D10*
X676150Y173550D02*
X681150Y168550D01*
G54D10*
X680150Y177550D02*
X685150Y172550D01*
G54D10*
X635150Y214550D02*
X640150Y209550D01*
G54D10*
X639150Y218550D02*
X644150Y213550D01*
G54D10*
G75*
G01X788150Y193550D02*
G03X788150Y193550I-33000J0D01*
G01*
G54D10*
X771150Y173550D02*
X776150Y168550D01*
G54D10*
X775150Y177550D02*
X780150Y172550D01*
G54D10*
X730150Y214550D02*
X735150Y209550D01*
G54D10*
X734150Y218550D02*
X739150Y213550D01*
G54D16*
X505875Y415350D02*
X771875Y415350D01*
X771875Y325350D01*
X505875Y325350D01*
X505875Y415350D01*
G54D16*
X543875Y371350D02*
X733875Y371350D01*
X543875Y371350D01*
G54D16*
X583875Y391350D02*
X583875Y351350D01*
X693875Y351350D01*
X693875Y391350D01*
X583875Y391350D01*
G54D11*
X726307Y419894D02*
X726307Y430561D01*
X730040Y430561D01*
G54D11*
X726307Y425228D02*
X730040Y425228D01*
G54D11*
X733773Y430561D02*
X733773Y421894D01*
X734306Y420561D01*
X735373Y419894D01*
X736440Y419894D01*
X737506Y420561D01*
X738040Y421894D01*
X738040Y430561D01*
G54D11*
X741773Y426561D02*
X744440Y430561D01*
X744440Y419894D01*
G54D11*
X752026Y426341D02*
X754692Y430341D01*
X754692Y419674D01*
G54D11*
X762692Y428341D02*
X762692Y421674D01*
X762159Y420341D01*
X761092Y419674D01*
X760026Y419674D01*
X758959Y420341D01*
X758426Y421674D01*
X758426Y428341D01*
X758959Y429674D01*
X760026Y430341D01*
X761092Y430341D01*
X762159Y429674D01*
X762692Y428341D01*
G54D11*
X766426Y419674D02*
X769092Y430341D01*
X771759Y419674D01*
G54D11*
X767492Y423674D02*
X770692Y423674D01*
G54D10*
X612775Y316125D02*
X612775Y280525D01*
X536575Y280525D01*
X536575Y316125D01*
X612775Y316125D01*
G54D10*
X542875Y280525D02*
X542875Y316125D01*
G54D11*
X648351Y310480D02*
X651018Y299814D01*
X653684Y310480D01*
G54D11*
X657417Y299814D02*
X657417Y310480D01*
X660084Y310480D01*
X661150Y309814D01*
X661684Y308480D01*
X661684Y301814D01*
X661150Y300480D01*
X660084Y299814D01*
X657417Y299814D01*
G54D11*
X669684Y299814D02*
X665417Y299814D01*
X665417Y300480D01*
X665950Y301814D01*
X669150Y305814D01*
X669684Y307147D01*
X669684Y308480D01*
X669150Y309814D01*
X668084Y310480D01*
X667017Y310480D01*
X665950Y309814D01*
X665417Y308480D01*
G54D11*
X648702Y284388D02*
X648702Y295055D01*
X651369Y295055D01*
X652436Y294388D01*
X652969Y293055D01*
X652969Y291722D01*
X652436Y290388D01*
X651369Y289722D01*
X648702Y289722D01*
G54D11*
X660969Y293055D02*
X660436Y294388D01*
X659369Y295055D01*
X658302Y295055D01*
X657236Y294388D01*
X656702Y293055D01*
X656702Y289722D01*
X656702Y289055D01*
X658302Y290388D01*
X659369Y290388D01*
X660436Y289722D01*
X660969Y288388D01*
X660969Y286388D01*
X660436Y285055D01*
X659369Y284388D01*
X658302Y284388D01*
X657236Y285055D01*
X656702Y286388D01*
X656702Y289722D01*
G54D11*
X664702Y284388D02*
X664702Y295055D01*
G54D11*
X664702Y287722D02*
X668969Y295055D01*
G54D11*
X666302Y289722D02*
X668969Y284388D01*
G54D11*
X676436Y284388D02*
X672702Y284388D01*
X672702Y295055D01*
X676436Y295055D01*
G54D11*
X672702Y289722D02*
X676436Y289722D01*
G54D11*
X680168Y293055D02*
X680702Y294388D01*
X681768Y295055D01*
X682835Y295055D01*
X683902Y294388D01*
X684435Y293055D01*
X684435Y291722D01*
X683902Y290388D01*
X682835Y289722D01*
X683902Y289055D01*
X684435Y287722D01*
X684435Y286388D01*
X683902Y285055D01*
X682835Y284388D01*
X681768Y284388D01*
X680702Y285055D01*
X680168Y286388D01*
G54D11*
X692435Y293055D02*
X692435Y286388D01*
X691902Y285055D01*
X690835Y284388D01*
X689768Y284388D01*
X688702Y285055D01*
X688168Y286388D01*
X688168Y293055D01*
X688702Y294388D01*
X689768Y295055D01*
X690835Y295055D01*
X691902Y294388D01*
X692435Y293055D01*
G54D16*
X1064025Y370125D02*
X1064025Y313125D01*
X1139025Y313125D01*
X1139025Y370125D01*
X1119025Y370125D01*
G54D16*
X1064025Y370125D02*
X1084025Y370125D01*
G54D16*
X1064025Y368125D02*
X1084025Y368125D01*
G54D16*
X1119025Y368125D02*
X1139025Y368125D01*
G54D14*
X1065448Y381050D02*
X1069892Y372162D01*
G54D14*
X1065448Y372162D02*
X1069892Y381050D01*
G54D14*
X1074780Y372162D02*
X1074780Y381050D01*
G54D14*
X1073002Y381050D02*
X1076558Y381050D01*
G54D14*
X1079670Y377717D02*
X1081892Y381050D01*
X1081892Y372162D01*
G54D16*
X1064025Y439975D02*
X1064025Y382975D01*
X1139025Y382975D01*
X1139025Y439975D01*
X1119025Y439975D01*
G54D16*
X1064025Y439975D02*
X1084025Y439975D01*
G54D16*
X1064025Y437975D02*
X1084025Y437975D01*
G54D16*
X1119025Y437975D02*
X1139025Y437975D01*
G54D14*
X1065581Y450900D02*
X1070026Y442012D01*
G54D14*
X1065581Y442012D02*
X1070026Y450900D01*
G54D14*
X1074914Y442012D02*
X1074914Y450900D01*
G54D14*
X1073136Y450900D02*
X1076692Y450900D01*
G54D14*
X1079803Y449234D02*
X1080248Y450345D01*
X1081136Y450900D01*
X1082025Y450900D01*
X1082914Y450345D01*
X1083358Y449234D01*
X1083358Y448123D01*
X1082914Y447012D01*
X1082025Y446456D01*
X1082914Y445900D01*
X1083358Y444789D01*
X1083358Y443678D01*
X1082914Y442567D01*
X1082025Y442012D01*
X1081136Y442012D01*
X1080248Y442567D01*
X1079803Y443678D01*
G54D16*
X1064025Y300275D02*
X1064025Y243275D01*
X1139025Y243275D01*
X1139025Y300275D01*
X1119025Y300275D01*
G54D16*
X1064025Y300275D02*
X1084025Y300275D01*
G54D16*
X1064025Y298275D02*
X1084025Y298275D01*
G54D16*
X1119025Y298275D02*
X1139025Y298275D01*
G54D14*
X1065253Y311200D02*
X1069698Y302311D01*
G54D14*
X1065253Y302311D02*
X1069698Y311200D01*
G54D14*
X1074586Y302311D02*
X1074586Y311200D01*
G54D14*
X1072808Y311200D02*
X1076364Y311200D01*
G54D14*
X1082142Y302311D02*
X1082142Y311200D01*
X1079475Y305644D01*
X1079475Y304533D01*
X1083030Y304533D01*
G54D10*
X1092200Y526925D02*
X1092200Y528512D01*
X1112838Y528512D01*
X1112838Y526925D01*
G54D10*
X1092200Y507875D02*
X1092200Y506288D01*
X1112838Y506288D01*
X1112838Y507875D01*
G54D11*
X1075544Y523763D02*
X1075011Y522430D01*
X1073944Y521763D01*
X1072878Y521763D01*
X1071811Y522430D01*
X1071278Y523763D01*
X1071278Y530430D01*
X1071811Y531763D01*
X1072878Y532430D01*
X1073944Y532430D01*
X1075011Y531763D01*
X1075544Y530430D01*
G54D11*
X1083544Y530430D02*
X1083011Y531763D01*
X1081944Y532430D01*
X1080878Y532430D01*
X1079811Y531763D01*
X1079278Y530430D01*
X1079278Y527096D01*
X1079278Y526430D01*
X1080878Y527763D01*
X1081944Y527763D01*
X1083011Y527096D01*
X1083544Y525763D01*
X1083544Y523763D01*
X1083011Y522430D01*
X1081944Y521763D01*
X1080878Y521763D01*
X1079811Y522430D01*
X1079278Y523763D01*
X1079278Y527096D01*
G54D14*
X1074481Y517907D02*
X1074481Y512351D01*
X1074037Y511240D01*
X1073148Y510684D01*
X1072259Y510684D01*
X1071370Y511240D01*
X1070926Y512351D01*
X1070926Y517907D01*
X1071370Y519018D01*
X1072259Y519573D01*
X1073148Y519573D01*
X1074037Y519018D01*
X1074481Y517907D01*
G54D14*
X1077948Y510684D02*
X1077592Y510684D01*
X1077592Y511129D01*
X1077948Y511129D01*
X1077948Y510684D01*
X1077592Y510684D01*
G54D14*
X1081060Y516240D02*
X1083282Y519573D01*
X1083282Y510684D01*
G54D10*
G75*
G01X717550Y566612D02*
G03X717550Y566612I-25400J0D01*
G01*
G54D15*
G75*
G01X704900Y588696D02*
G03X679400Y588696I-12750J-22084D01*
G01*
G54D10*
X677862Y558675D02*
X677862Y552325D01*
G54D10*
X681038Y555500D02*
X674688Y555500D01*
G54D10*
X706438Y558675D02*
X706438Y552325D01*
G54D10*
X709612Y555500D02*
X703262Y555500D01*
G54D11*
X666637Y535248D02*
X666103Y533915D01*
X665037Y533248D01*
X663970Y533248D01*
X662903Y533915D01*
X662370Y535248D01*
X662370Y541915D01*
X662903Y543248D01*
X663970Y543915D01*
X665037Y543915D01*
X666103Y543248D01*
X666637Y541915D01*
G54D11*
X670370Y539915D02*
X673037Y543915D01*
X673037Y533248D01*
G54D11*
X681037Y541915D02*
X681037Y535248D01*
X680503Y533915D01*
X679437Y533248D01*
X678370Y533248D01*
X677303Y533915D01*
X676770Y535248D01*
X676770Y541915D01*
X677303Y543248D01*
X678370Y543915D01*
X679437Y543915D01*
X680503Y543248D01*
X681037Y541915D01*
G54D14*
X681292Y567156D02*
X681292Y563600D01*
X680736Y563600D01*
X679625Y564044D01*
X676292Y566711D01*
X675181Y567156D01*
X674070Y567156D01*
X672959Y566711D01*
X672403Y565822D01*
X672403Y564933D01*
X672959Y564044D01*
X674070Y563600D01*
G54D14*
X681292Y573823D02*
X681292Y570267D01*
X680736Y570267D01*
X679625Y570711D01*
X676292Y573378D01*
X675181Y573823D01*
X674070Y573823D01*
X672959Y573378D01*
X672403Y572489D01*
X672403Y571600D01*
X672959Y570711D01*
X674070Y570267D01*
G54D14*
X676292Y579601D02*
X681292Y579601D01*
G54D14*
X680181Y579601D02*
X681070Y579156D01*
X681292Y578267D01*
X681070Y577378D01*
X680181Y576934D01*
X676292Y576934D01*
G54D10*
X539750Y612015D02*
X539750Y592965D01*
X574675Y592965D01*
X574675Y612015D01*
X539750Y612015D01*
G54D10*
X574675Y612015D02*
X587375Y612015D01*
X593725Y618365D01*
X593725Y624715D01*
X596900Y621540D01*
G54D10*
X593725Y624715D02*
X590550Y621540D01*
G54D13*
X929450Y280925D02*
X997450Y280925D01*
X997450Y352925D01*
X925450Y352925D01*
X925450Y284925D01*
G54D13*
X929450Y280925D02*
X925450Y284925D01*
G54D16*
X931038Y287338D02*
X931038Y287338D01*
X931038Y287338D01*
G54D11*
X1002570Y357794D02*
X1002570Y368461D01*
X1005236Y368461D01*
X1006303Y367794D01*
X1006836Y366461D01*
X1006836Y359794D01*
X1006303Y358461D01*
X1005236Y357794D01*
X1002570Y357794D01*
G54D11*
X1010570Y357794D02*
X1010570Y368461D01*
X1013236Y368461D01*
X1014303Y367794D01*
X1014836Y366461D01*
X1014836Y359794D01*
X1014303Y358461D01*
X1013236Y357794D01*
X1010570Y357794D01*
G54D11*
X1022836Y357794D02*
X1018570Y357794D01*
X1018570Y358461D01*
X1019103Y359794D01*
X1022303Y363794D01*
X1022836Y365128D01*
X1022836Y366461D01*
X1022303Y367794D01*
X1021236Y368461D01*
X1020170Y368461D01*
X1019103Y367794D01*
X1018570Y366461D01*
G54D14*
X935707Y313593D02*
X937929Y322482D01*
X940151Y313593D01*
G54D14*
X936596Y316926D02*
X939262Y316926D01*
G54D14*
X945040Y313593D02*
X945040Y322482D01*
G54D14*
X943262Y322482D02*
X946817Y322482D01*
G54D14*
X949929Y313593D02*
X949929Y322482D01*
X952151Y316926D01*
X954373Y322482D01*
X954373Y313593D01*
G54D14*
X960150Y314149D02*
X959439Y313593D01*
X958550Y313593D01*
X957662Y314149D01*
X957484Y315260D01*
X957484Y317149D01*
X957928Y318260D01*
X958817Y318593D01*
X959706Y318260D01*
X960150Y317482D01*
X960150Y316371D01*
X957484Y316371D01*
G54D14*
X963262Y311926D02*
X964151Y311371D01*
X964773Y311371D01*
X965662Y311926D01*
X965928Y313038D01*
X965928Y318593D01*
G54D14*
X965928Y317149D02*
X965484Y318260D01*
X964595Y318593D01*
X963706Y318260D01*
X963262Y317149D01*
X963262Y314926D01*
X963706Y313815D01*
X964595Y313593D01*
X965484Y313815D01*
X965928Y314926D01*
G54D14*
X969040Y318038D02*
X969929Y318593D01*
X970995Y318593D01*
X971706Y317482D01*
X971706Y313593D01*
G54D14*
X971706Y315260D02*
X971262Y316371D01*
X970373Y316593D01*
X969484Y316371D01*
X969040Y315260D01*
X969218Y314149D01*
X969929Y313593D01*
X970373Y313593D01*
X970551Y313593D01*
X971262Y314149D01*
X971706Y315260D01*
G54D14*
X977040Y318038D02*
X976151Y318038D01*
X975262Y318593D01*
X974818Y319704D01*
X974818Y320815D01*
X975262Y321926D01*
X976151Y322482D01*
X977040Y322482D01*
X977929Y321926D01*
X978373Y320815D01*
X978373Y319704D01*
X977929Y318593D01*
X977040Y318038D01*
X977929Y317482D01*
X978373Y316371D01*
X978373Y315260D01*
X977929Y314149D01*
X977040Y313593D01*
X976151Y313593D01*
X975262Y314149D01*
X974818Y315260D01*
X974818Y316371D01*
X975262Y317482D01*
X976151Y318038D01*
G54D14*
X981485Y313593D02*
X983707Y322482D01*
X985929Y313593D01*
G54D14*
X982374Y316926D02*
X985040Y316926D01*
G54D13*
X1043788Y444600D02*
X1051688Y446000D01*
X1051688Y487200D01*
X1043788Y488600D01*
G54D13*
G75*
G01X1043788Y488600D02*
G03X1043788Y444600I0J-22000D01*
G01*
G54D14*
X1034224Y491217D02*
X1034224Y500106D01*
X1036446Y500106D01*
X1037335Y499550D01*
X1037780Y498439D01*
X1037780Y492884D01*
X1037335Y491773D01*
X1036446Y491217D01*
X1034224Y491217D01*
G54D14*
X1040891Y491217D02*
X1043113Y500106D01*
X1045335Y491217D01*
G54D14*
X1041780Y494550D02*
X1044447Y494550D01*
G54D14*
X1048446Y496773D02*
X1050668Y500106D01*
X1050668Y491217D01*
G54D14*
X999466Y443399D02*
X1003022Y443399D01*
X1002578Y442288D01*
X1001689Y440621D01*
X1000800Y438399D01*
X1000355Y436732D01*
X1000355Y434510D01*
G54D14*
X1008356Y438954D02*
X1007467Y438954D01*
X1006578Y439510D01*
X1006134Y440621D01*
X1006134Y441732D01*
X1006578Y442843D01*
X1007467Y443399D01*
X1008356Y443399D01*
X1009245Y442843D01*
X1009689Y441732D01*
X1009689Y440621D01*
X1009245Y439510D01*
X1008356Y438954D01*
X1009245Y438399D01*
X1009689Y437288D01*
X1009689Y436177D01*
X1009245Y435066D01*
X1008356Y434510D01*
X1007467Y434510D01*
X1006578Y435066D01*
X1006134Y436177D01*
X1006134Y437288D01*
X1006578Y438399D01*
X1007467Y438954D01*
G54D14*
X1012800Y443399D02*
X1012800Y434510D01*
X1015912Y434510D01*
G54D14*
X1022578Y441732D02*
X1022578Y436177D01*
X1022134Y435066D01*
X1021245Y434510D01*
X1020356Y434510D01*
X1019467Y435066D01*
X1019022Y436177D01*
X1019022Y441732D01*
X1019467Y442843D01*
X1020356Y443399D01*
X1021245Y443399D01*
X1022134Y442843D01*
X1022578Y441732D01*
G54D14*
X1029245Y443399D02*
X1025690Y443399D01*
X1025690Y439510D01*
X1026134Y439510D01*
X1027023Y440066D01*
X1027912Y440066D01*
X1028801Y439510D01*
X1029245Y438399D01*
X1029245Y436177D01*
X1028801Y435066D01*
X1027912Y434510D01*
X1027023Y434510D01*
X1026134Y435066D01*
X1025690Y436177D01*
G54D10*
G75*
G01X996950Y461838D02*
G03X996950Y461838I-25400J0D01*
G01*
G54D15*
G75*
G01X984300Y483921D02*
G03X958800Y483921I-12750J-22084D01*
G01*
G54D10*
X957262Y453900D02*
X957262Y447550D01*
G54D10*
X960438Y450725D02*
X954088Y450725D01*
G54D10*
X985838Y453900D02*
X985838Y447550D01*
G54D10*
X989012Y450725D02*
X982662Y450725D01*
G54D11*
X969561Y493626D02*
X969028Y492293D01*
X967961Y491626D01*
X966894Y491626D01*
X965828Y492293D01*
X965294Y493626D01*
X965294Y500293D01*
X965828Y501626D01*
X966894Y502293D01*
X967961Y502293D01*
X969028Y501626D01*
X969561Y500293D01*
G54D11*
X973294Y500293D02*
X973828Y501626D01*
X974894Y502293D01*
X975961Y502293D01*
X977028Y501626D01*
X977561Y500293D01*
X977561Y498959D01*
X977028Y497626D01*
X975961Y496959D01*
X977028Y496293D01*
X977561Y494959D01*
X977561Y493626D01*
X977028Y492293D01*
X975961Y491626D01*
X974894Y491626D01*
X973828Y492293D01*
X973294Y493626D01*
G54D14*
X955136Y458825D02*
X951803Y461047D01*
X960692Y461047D01*
G54D14*
X953470Y467714D02*
X959025Y467714D01*
X960136Y467269D01*
X960692Y466380D01*
X960692Y465491D01*
X960136Y464602D01*
X959025Y464158D01*
X953470Y464158D01*
X952359Y464602D01*
X951803Y465491D01*
X951803Y466380D01*
X952359Y467269D01*
X953470Y467714D01*
G54D14*
X955692Y473492D02*
X960692Y473492D01*
G54D14*
X959581Y473492D02*
X960470Y473047D01*
X960692Y472158D01*
X960470Y471269D01*
X959581Y470825D01*
X955692Y470825D01*
G54D10*
X1054100Y458345D02*
X1052512Y458345D01*
X1052512Y478982D01*
X1054100Y478982D01*
G54D10*
X1073150Y458345D02*
X1074738Y458345D01*
X1074738Y478982D01*
X1073150Y478982D01*
G54D11*
X1061118Y499747D02*
X1060585Y498414D01*
X1059518Y497747D01*
X1058452Y497747D01*
X1057385Y498414D01*
X1056852Y499747D01*
X1056852Y506414D01*
X1057385Y507747D01*
X1058452Y508414D01*
X1059518Y508414D01*
X1060585Y507747D01*
X1061118Y506414D01*
G54D11*
X1064852Y504414D02*
X1067518Y508414D01*
X1067518Y497747D01*
G54D14*
X1060416Y493970D02*
X1060416Y488414D01*
X1059972Y487303D01*
X1059083Y486748D01*
X1058194Y486748D01*
X1057305Y487303D01*
X1056860Y488414D01*
X1056860Y493970D01*
X1057305Y495081D01*
X1058194Y495636D01*
X1059083Y495636D01*
X1059972Y495081D01*
X1060416Y493970D01*
G54D14*
X1063883Y486748D02*
X1063528Y486748D01*
X1063528Y487192D01*
X1063883Y487192D01*
X1063883Y486748D01*
X1063528Y486748D01*
G54D14*
X1066994Y492303D02*
X1069217Y495636D01*
X1069217Y486748D01*
G54D10*
X1019175Y472950D02*
X1020762Y472950D01*
X1020762Y452312D01*
X1019175Y452312D01*
G54D10*
X1000125Y472950D02*
X998538Y472950D01*
X998538Y452312D01*
X1000125Y452312D01*
G54D11*
X1007320Y495200D02*
X1006786Y493867D01*
X1005720Y493200D01*
X1004653Y493200D01*
X1003586Y493867D01*
X1003053Y495200D01*
X1003053Y501867D01*
X1003586Y503200D01*
X1004653Y503867D01*
X1005720Y503867D01*
X1006786Y503200D01*
X1007320Y501867D01*
G54D11*
X1015320Y493200D02*
X1011053Y493200D01*
X1011053Y493867D01*
X1011586Y495200D01*
X1014786Y499200D01*
X1015320Y500534D01*
X1015320Y501867D01*
X1014786Y503200D01*
X1013720Y503867D01*
X1012653Y503867D01*
X1011586Y503200D01*
X1011053Y501867D01*
G54D14*
X1006662Y488919D02*
X1006662Y483364D01*
X1006217Y482253D01*
X1005328Y481697D01*
X1004439Y481697D01*
X1003550Y482253D01*
X1003106Y483364D01*
X1003106Y488919D01*
X1003550Y490030D01*
X1004439Y490586D01*
X1005328Y490586D01*
X1006217Y490030D01*
X1006662Y488919D01*
G54D14*
X1010129Y481697D02*
X1009773Y481697D01*
X1009773Y482141D01*
X1010129Y482141D01*
X1010129Y481697D01*
X1009773Y481697D01*
G54D14*
X1013240Y487253D02*
X1015462Y490586D01*
X1015462Y481697D01*
G54D13*
X941250Y240375D02*
X941381Y261156D01*
X956462Y261156D01*
G54D13*
X956469Y240381D02*
X941250Y240375D01*
G54D13*
X981112Y240381D02*
X980981Y261162D01*
X965900Y261162D01*
G54D13*
X965894Y240388D02*
X981112Y240381D01*
G54D11*
X919367Y256163D02*
X918834Y254830D01*
X917767Y254163D01*
X916700Y254163D01*
X915634Y254830D01*
X915100Y256163D01*
X915100Y262830D01*
X915634Y264163D01*
X916700Y264830D01*
X917767Y264830D01*
X918834Y264163D01*
X919367Y262830D01*
G54D11*
X923100Y260830D02*
X925767Y264830D01*
X925767Y254163D01*
G54D11*
X933767Y254163D02*
X929500Y254163D01*
X929500Y254830D01*
X930034Y256163D01*
X933234Y260163D01*
X933767Y261496D01*
X933767Y262830D01*
X933234Y264163D01*
X932167Y264830D01*
X931100Y264830D01*
X930034Y264163D01*
X929500Y262830D01*
G54D14*
X918622Y249672D02*
X918622Y244116D01*
X918177Y243005D01*
X917288Y242450D01*
X916399Y242450D01*
X915510Y243005D01*
X915066Y244116D01*
X915066Y249672D01*
X915510Y250783D01*
X916399Y251338D01*
X917288Y251338D01*
X918177Y250783D01*
X918622Y249672D01*
G54D14*
X922088Y242450D02*
X921733Y242450D01*
X921733Y242894D01*
X922088Y242894D01*
X922088Y242450D01*
X921733Y242450D01*
G54D14*
X925200Y248005D02*
X927422Y251338D01*
X927422Y242450D01*
G54D13*
X949188Y370550D02*
X949319Y391331D01*
X964400Y391331D01*
G54D13*
X964406Y370556D02*
X949188Y370550D01*
G54D13*
X989050Y370556D02*
X988918Y391338D01*
X973837Y391338D01*
G54D13*
X973831Y370562D02*
X989050Y370556D01*
G54D11*
X927305Y386338D02*
X926771Y385005D01*
X925705Y384338D01*
X924638Y384338D01*
X923571Y385005D01*
X923038Y386338D01*
X923038Y393005D01*
X923571Y394338D01*
X924638Y395005D01*
X925705Y395005D01*
X926771Y394338D01*
X927305Y393005D01*
G54D11*
X931038Y391005D02*
X933705Y395005D01*
X933705Y384338D01*
G54D11*
X937438Y393005D02*
X937971Y394338D01*
X939038Y395005D01*
X940105Y395005D01*
X941171Y394338D01*
X941705Y393005D01*
X941705Y391671D01*
X941171Y390338D01*
X940105Y389671D01*
X941171Y389005D01*
X941705Y387671D01*
X941705Y386338D01*
X941171Y385005D01*
X940105Y384338D01*
X939038Y384338D01*
X937971Y385005D01*
X937438Y386338D01*
G54D14*
X926559Y379847D02*
X926559Y374291D01*
X926115Y373180D01*
X925226Y372624D01*
X924337Y372624D01*
X923448Y373180D01*
X923004Y374291D01*
X923004Y379847D01*
X923448Y380958D01*
X924337Y381513D01*
X925226Y381513D01*
X926115Y380958D01*
X926559Y379847D01*
G54D14*
X930026Y372624D02*
X929670Y372624D01*
X929670Y373069D01*
X930026Y373069D01*
X930026Y372624D01*
X929670Y372624D01*
G54D14*
X933138Y378180D02*
X935360Y381513D01*
X935360Y372624D01*
G54D13*
X1084500Y650850D02*
X1084500Y726850D01*
X1142500Y726850D01*
X1142500Y650850D01*
X1084500Y650850D01*
G36*
X1142500Y664850D02*
X1132500Y664850D01*
X1132500Y713850D01*
X1142500Y713850D01*
X1142500Y664850D01*
G37*
G54D13*
X1142500Y664850D02*
X1132500Y664850D01*
X1132500Y713850D01*
X1142500Y713850D01*
X1142500Y664850D01*
G54D11*
X1119900Y740127D02*
X1125234Y729460D01*
G54D11*
X1119900Y729460D02*
X1125234Y740127D01*
G54D11*
X1131100Y729460D02*
X1131100Y740127D01*
G54D11*
X1128966Y740127D02*
X1133233Y740127D01*
G54D11*
X1141233Y729460D02*
X1136966Y729460D01*
X1136966Y730127D01*
X1137500Y731460D01*
X1140700Y735460D01*
X1141233Y736794D01*
X1141233Y738127D01*
X1140700Y739460D01*
X1139633Y740127D01*
X1138566Y740127D01*
X1137500Y739460D01*
X1136966Y738127D01*
G54D16*
X915050Y83625D02*
X915050Y100275D01*
X912050Y100275D01*
X912050Y83625D01*
G54D16*
X912050Y205850D02*
X912050Y187025D01*
X915050Y187025D01*
X915050Y205850D01*
G54D16*
X915050Y118625D02*
X915050Y148625D01*
G54D16*
X912050Y118625D02*
X912050Y148625D01*
G54D16*
X912050Y100275D02*
X912050Y83625D01*
X969050Y83625D01*
X969050Y205850D01*
X912050Y205850D01*
X912050Y187025D01*
G54D16*
X912050Y118625D02*
X915050Y118625D01*
X915050Y167675D01*
X912050Y167675D01*
X912050Y118625D01*
G54D11*
X930825Y222000D02*
X936158Y211333D01*
G54D11*
X930825Y211333D02*
X936158Y222000D01*
G54D11*
X942024Y211333D02*
X942024Y222000D01*
G54D11*
X939891Y222000D02*
X944158Y222000D01*
G54D11*
X952158Y222000D02*
X947891Y222000D01*
X947891Y217333D01*
X948424Y217333D01*
X949491Y218000D01*
X950558Y218000D01*
X951624Y217333D01*
X952158Y216000D01*
X952158Y213333D01*
X951624Y212000D01*
X950558Y211333D01*
X949491Y211333D01*
X948424Y212000D01*
X947891Y213333D01*
G54D13*
X1127125Y158625D02*
X1108075Y158625D01*
G54D13*
X1130300Y161800D02*
X1127125Y158625D01*
G54D13*
X1130300Y161800D02*
X1130300Y180850D01*
G54D13*
X1104900Y161800D02*
X1104900Y180850D01*
G54D13*
X1108075Y184025D02*
X1127125Y184025D01*
G54D13*
X1130300Y180850D02*
X1127125Y184025D01*
G54D13*
X1108075Y184025D02*
X1104900Y180850D01*
G54D13*
X1104900Y161800D02*
X1108075Y158625D01*
G54D13*
X1101725Y158625D02*
X1082675Y158625D01*
G54D13*
X1104900Y161800D02*
X1101725Y158625D01*
G54D13*
X1104900Y161800D02*
X1104900Y180850D01*
G54D13*
X1079500Y161800D02*
X1079500Y180850D01*
G54D13*
X1082675Y184025D02*
X1101725Y184025D01*
G54D13*
X1104900Y180850D02*
X1101725Y184025D01*
G54D13*
X1082675Y184025D02*
X1079500Y180850D01*
G54D13*
X1079500Y161800D02*
X1082675Y158625D01*
G54D13*
X1127125Y184025D02*
X1108075Y184025D01*
G54D13*
X1130300Y187200D02*
X1127125Y184025D01*
G54D13*
X1130300Y187200D02*
X1130300Y206250D01*
G54D13*
X1104900Y187200D02*
X1104900Y206250D01*
G54D13*
X1108075Y209425D02*
X1127125Y209425D01*
G54D13*
X1130300Y206250D02*
X1127125Y209425D01*
G54D13*
X1108075Y209425D02*
X1104900Y206250D01*
G54D13*
X1104900Y187200D02*
X1108075Y184025D01*
G54D13*
X1101725Y184025D02*
X1082675Y184025D01*
G54D13*
X1104900Y187200D02*
X1101725Y184025D01*
G54D13*
X1104900Y187200D02*
X1104900Y206250D01*
G54D13*
X1079500Y187200D02*
X1079500Y206250D01*
G54D13*
X1082675Y209425D02*
X1101725Y209425D01*
G54D13*
X1104900Y206250D02*
X1101725Y209425D01*
G54D13*
X1082675Y209425D02*
X1079500Y206250D01*
G54D13*
X1079500Y187200D02*
X1082675Y184025D01*
G54D13*
X1127125Y209425D02*
X1108075Y209425D01*
G54D13*
X1130300Y212600D02*
X1127125Y209425D01*
G54D13*
X1130300Y212600D02*
X1130300Y231650D01*
G54D13*
X1104900Y212600D02*
X1104900Y231650D01*
G54D13*
X1108075Y234825D02*
X1127125Y234825D01*
G54D13*
X1130300Y231650D02*
X1127125Y234825D01*
G54D13*
X1108075Y234825D02*
X1104900Y231650D01*
G54D13*
X1104900Y212600D02*
X1108075Y209425D01*
G54D13*
X1101725Y209425D02*
X1082675Y209425D01*
G54D13*
X1104900Y212600D02*
X1101725Y209425D01*
G54D13*
X1104900Y212600D02*
X1104900Y231650D01*
G54D13*
X1079500Y212600D02*
X1079500Y231650D01*
G54D13*
X1082675Y234825D02*
X1101725Y234825D01*
G54D13*
X1104900Y231650D02*
X1101725Y234825D01*
G54D13*
X1082675Y234825D02*
X1079500Y231650D01*
G54D13*
X1079500Y212600D02*
X1082675Y209425D01*
G54D11*
X1055531Y235474D02*
X1060864Y224807D01*
G54D11*
X1055531Y224807D02*
X1060864Y235474D01*
G54D11*
X1066730Y224807D02*
X1066730Y235474D01*
G54D11*
X1064597Y235474D02*
X1068864Y235474D01*
G54D11*
X1072597Y235474D02*
X1076864Y235474D01*
X1076330Y234140D01*
X1075264Y232140D01*
X1074197Y229474D01*
X1073664Y227474D01*
X1073664Y224807D01*
G54D13*
X827732Y450930D02*
X819794Y450930D01*
X819794Y415162D01*
X827732Y415162D01*
X827732Y450930D01*
G54D13*
X819732Y426324D02*
X805444Y426324D01*
X805444Y440612D01*
X819732Y440612D01*
G54D13*
X828463Y416799D02*
X841957Y416799D01*
X841957Y431087D01*
X828463Y431087D01*
G54D13*
X828463Y435849D02*
X841957Y435849D01*
X841957Y450137D01*
X828463Y450137D01*
G54D11*
X812774Y465024D02*
X815440Y454358D01*
X818107Y465024D01*
G54D11*
X823973Y454358D02*
X823973Y465024D01*
G54D11*
X821840Y465024D02*
X826106Y465024D01*
G54D11*
X834106Y454358D02*
X829840Y454358D01*
X829840Y455024D01*
X830373Y456358D01*
X833573Y460358D01*
X834106Y461691D01*
X834106Y463024D01*
X833573Y464358D01*
X832506Y465024D01*
X831440Y465024D01*
X830373Y464358D01*
X829840Y463024D01*
G54D14*
X808859Y402762D02*
X805303Y402762D01*
X805303Y403318D01*
X805747Y404429D01*
X808414Y407762D01*
X808859Y408873D01*
X808859Y409984D01*
X808414Y411095D01*
X807525Y411651D01*
X806636Y411651D01*
X805747Y411095D01*
X805303Y409984D01*
G54D14*
X811970Y402762D02*
X811970Y411651D01*
X815526Y402762D01*
X815526Y411651D01*
G54D14*
X818637Y411651D02*
X822193Y411651D01*
X821748Y410540D01*
X820859Y408873D01*
X819970Y406651D01*
X819526Y404984D01*
X819526Y402762D01*
G54D14*
X828860Y409984D02*
X828860Y404429D01*
X828415Y403318D01*
X827526Y402762D01*
X826637Y402762D01*
X825748Y403318D01*
X825304Y404429D01*
X825304Y409984D01*
X825748Y411095D01*
X826637Y411651D01*
X827526Y411651D01*
X828415Y411095D01*
X828860Y409984D01*
G54D14*
X835527Y409984D02*
X835527Y404429D01*
X835082Y403318D01*
X834193Y402762D01*
X833304Y402762D01*
X832415Y403318D01*
X831971Y404429D01*
X831971Y409984D01*
X832415Y411095D01*
X833304Y411651D01*
X834193Y411651D01*
X835082Y411095D01*
X835527Y409984D01*
G54D14*
X842194Y402762D02*
X838638Y402762D01*
X838638Y403318D01*
X839082Y404429D01*
X841749Y407762D01*
X842194Y408873D01*
X842194Y409984D01*
X841749Y411095D01*
X840860Y411651D01*
X839971Y411651D01*
X839082Y411095D01*
X838638Y409984D01*
G54D13*
X365094Y424275D02*
X365094Y439375D01*
X342856Y439375D01*
X342856Y424275D01*
X365094Y424275D01*
G36*
X365094Y424275D02*
X365094Y439375D01*
X357994Y439375D01*
X357994Y424275D01*
X365094Y424275D01*
G37*
G54D12*
X365094Y424275D02*
X365094Y439375D01*
X357994Y439375D01*
X357994Y424275D01*
X365094Y424275D01*
G54D11*
X341524Y466931D02*
X344191Y456264D01*
X346857Y466931D01*
G54D11*
X350590Y456264D02*
X350590Y466931D01*
X353257Y466931D01*
X354323Y466264D01*
X354857Y464931D01*
X354857Y458264D01*
X354323Y456931D01*
X353257Y456264D01*
X350590Y456264D01*
G54D11*
X358590Y464931D02*
X359123Y466264D01*
X360190Y466931D01*
X361257Y466931D01*
X362323Y466264D01*
X362857Y464931D01*
X362857Y463597D01*
X362323Y462264D01*
X361257Y461597D01*
X362323Y460931D01*
X362857Y459597D01*
X362857Y458264D01*
X362323Y456931D01*
X361257Y456264D01*
X360190Y456264D01*
X359123Y456931D01*
X358590Y458264D01*
G54D14*
X331512Y450458D02*
X333734Y453791D01*
X333734Y444902D01*
G54D14*
X336845Y444902D02*
X336845Y453791D01*
X340401Y444902D01*
X340401Y453791D01*
G54D14*
X346179Y444902D02*
X346179Y453791D01*
X343512Y448235D01*
X343512Y447124D01*
X347068Y447124D01*
G54D14*
X350179Y450458D02*
X352401Y453791D01*
X352401Y444902D01*
G54D14*
X358179Y444902D02*
X358179Y453791D01*
X355512Y448235D01*
X355512Y447124D01*
X359068Y447124D01*
G54D14*
X364401Y449346D02*
X363512Y449346D01*
X362624Y449902D01*
X362179Y451013D01*
X362179Y452124D01*
X362624Y453235D01*
X363512Y453791D01*
X364401Y453791D01*
X365290Y453235D01*
X365735Y452124D01*
X365735Y451013D01*
X365290Y449902D01*
X364401Y449346D01*
X365290Y448791D01*
X365735Y447680D01*
X365735Y446569D01*
X365290Y445458D01*
X364401Y444902D01*
X363512Y444902D01*
X362624Y445458D01*
X362179Y446569D01*
X362179Y447680D01*
X362624Y448791D01*
X363512Y449346D01*
G54D14*
X368846Y453791D02*
X368846Y444902D01*
X371068Y450458D01*
X373290Y444902D01*
X373290Y453791D01*
G54D13*
X1088375Y619875D02*
X1088375Y599875D01*
X1139475Y599875D01*
X1139475Y619875D01*
X1088375Y619875D01*
G54D13*
X1088375Y614875D02*
X1088375Y604875D01*
X1093375Y604875D01*
X1093375Y614875D01*
X1088375Y614875D01*
G54D11*
X1041888Y543386D02*
X1044554Y532720D01*
X1047221Y543386D01*
G54D11*
X1053087Y532720D02*
X1053087Y543386D01*
G54D11*
X1050954Y543386D02*
X1055220Y543386D01*
G54D11*
X1058954Y541386D02*
X1059487Y542720D01*
X1060554Y543386D01*
X1061620Y543386D01*
X1062687Y542720D01*
X1063220Y541386D01*
X1063220Y540053D01*
X1062687Y538720D01*
X1061620Y538053D01*
X1062687Y537386D01*
X1063220Y536053D01*
X1063220Y534720D01*
X1062687Y533386D01*
X1061620Y532720D01*
X1060554Y532720D01*
X1059487Y533386D01*
X1058954Y534720D01*
G54D14*
X1094784Y605231D02*
X1098340Y605231D01*
G54D14*
X1096562Y605231D02*
X1096562Y614120D01*
G54D14*
X1094784Y614120D02*
X1098340Y614120D01*
G54D14*
X1103229Y609675D02*
X1104563Y608564D01*
X1105007Y607453D01*
X1105007Y605231D01*
G54D14*
X1101452Y605231D02*
X1101452Y614120D01*
X1103674Y614120D01*
X1104563Y613564D01*
X1105007Y612453D01*
X1105007Y611342D01*
X1104563Y610231D01*
X1103674Y609675D01*
X1101452Y609675D01*
G54D14*
X1108118Y605231D02*
X1108118Y614120D01*
X1111230Y614120D01*
G54D14*
X1108118Y609675D02*
X1111230Y609675D01*
G54D14*
X1114340Y614120D02*
X1117896Y614120D01*
X1117452Y613009D01*
X1116563Y611342D01*
X1115674Y609120D01*
X1115229Y607453D01*
X1115229Y605231D01*
G54D14*
X1123230Y609675D02*
X1122341Y609675D01*
X1121452Y610231D01*
X1121008Y611342D01*
X1121008Y612453D01*
X1121452Y613564D01*
X1122341Y614120D01*
X1123230Y614120D01*
X1124119Y613564D01*
X1124563Y612453D01*
X1124563Y611342D01*
X1124119Y610231D01*
X1123230Y609675D01*
X1124119Y609120D01*
X1124563Y608009D01*
X1124563Y606898D01*
X1124119Y605787D01*
X1123230Y605231D01*
X1122341Y605231D01*
X1121452Y605787D01*
X1121008Y606898D01*
X1121008Y608009D01*
X1121452Y609120D01*
X1122341Y609675D01*
G54D14*
X1130341Y605231D02*
X1130341Y614120D01*
X1127674Y608564D01*
X1127674Y607453D01*
X1131230Y607453D01*
G54D14*
X1137897Y605231D02*
X1134342Y605231D01*
X1134342Y605787D01*
X1134786Y606898D01*
X1137453Y610231D01*
X1137897Y611342D01*
X1137897Y612453D01*
X1137453Y613564D01*
X1136564Y614120D01*
X1135675Y614120D01*
X1134786Y613564D01*
X1134342Y612453D01*
G54D10*
X1016000Y428500D02*
X1016000Y431675D01*
X968375Y431675D01*
X968375Y428500D01*
G54D10*
X1016000Y403100D02*
X1016000Y399925D01*
X968375Y399925D01*
X968375Y403100D01*
G54D10*
X999172Y425325D02*
X999172Y406275D01*
G54D10*
X999172Y415800D02*
X986472Y425325D01*
X986472Y406275D01*
X999172Y415800D01*
G54D11*
X938000Y429551D02*
X940667Y418884D01*
X943334Y429551D01*
G54D11*
X947066Y418884D02*
X947066Y429551D01*
X949733Y429551D01*
X950800Y428884D01*
X951333Y427551D01*
X951333Y420884D01*
X950800Y419551D01*
X949733Y418884D01*
X947066Y418884D01*
G54D11*
X958266Y418884D02*
X958266Y429551D01*
X955066Y422884D01*
X955066Y421551D01*
X959333Y421551D01*
G54D14*
X937922Y408564D02*
X938367Y407453D01*
X939256Y406897D01*
X940145Y406897D01*
X941034Y407453D01*
X941478Y408564D01*
X941478Y409675D01*
X941034Y410786D01*
X940145Y411341D01*
X939256Y411341D01*
X938367Y411897D01*
X937922Y413008D01*
X937922Y414119D01*
X938367Y415230D01*
X939256Y415786D01*
X940145Y415786D01*
X941034Y415230D01*
X941478Y414119D01*
G54D14*
X944589Y408564D02*
X945034Y407453D01*
X945923Y406897D01*
X946812Y406897D01*
X947700Y407453D01*
X948145Y408564D01*
X948145Y409675D01*
X947700Y410786D01*
X946812Y411341D01*
X945923Y411341D01*
X945034Y411897D01*
X944589Y413008D01*
X944589Y414119D01*
X945034Y415230D01*
X945923Y415786D01*
X946812Y415786D01*
X947700Y415230D01*
X948145Y414119D01*
G54D14*
X951256Y412453D02*
X953479Y415786D01*
X953479Y406897D01*
G54D14*
X960145Y406897D02*
X956589Y406897D01*
X956589Y407453D01*
X957034Y408564D01*
X959700Y411897D01*
X960145Y413008D01*
X960145Y414119D01*
X959700Y415230D01*
X958812Y415786D01*
X957923Y415786D01*
X957034Y415230D01*
X956589Y414119D01*
G54D16*
X1013475Y83625D02*
X1013475Y100275D01*
X1010475Y100275D01*
X1010475Y83625D01*
G54D16*
X1010475Y205850D02*
X1010475Y187025D01*
X1013475Y187025D01*
X1013475Y205850D01*
G54D16*
X1013475Y118625D02*
X1013475Y148625D01*
G54D16*
X1010475Y118625D02*
X1010475Y148625D01*
G54D16*
X1010475Y100275D02*
X1010475Y83625D01*
X1067475Y83625D01*
X1067475Y205850D01*
X1010475Y205850D01*
X1010475Y187025D01*
G54D16*
X1010475Y118625D02*
X1013475Y118625D01*
X1013475Y167675D01*
X1010475Y167675D01*
X1010475Y118625D01*
G54D11*
X1026075Y222000D02*
X1031408Y211333D01*
G54D11*
X1026075Y211333D02*
X1031408Y222000D01*
G54D11*
X1037274Y211333D02*
X1037274Y222000D01*
G54D11*
X1035141Y222000D02*
X1039408Y222000D01*
G54D11*
X1045808Y216666D02*
X1044741Y216666D01*
X1043674Y217333D01*
X1043141Y218666D01*
X1043141Y220000D01*
X1043674Y221333D01*
X1044741Y222000D01*
X1045808Y222000D01*
X1046874Y221333D01*
X1047408Y220000D01*
X1047408Y218666D01*
X1046874Y217333D01*
X1045808Y216666D01*
X1046874Y216000D01*
X1047408Y214666D01*
X1047408Y213333D01*
X1046874Y212000D01*
X1045808Y211333D01*
X1044741Y211333D01*
X1043674Y212000D01*
X1043141Y213333D01*
X1043141Y214666D01*
X1043674Y216000D01*
X1044741Y216666D01*
G36*
X1133475Y174500D02*
X1139825Y174500D01*
X1139825Y168150D01*
X1133475Y168150D01*
X1133475Y174500D01*
G37*
G54D10*
X1133475Y174500D02*
X1139825Y174500D01*
X1139825Y168150D01*
X1133475Y168150D01*
X1133475Y174500D01*
G54D10*
X1038225Y545975D02*
X1038225Y530100D01*
X1066800Y530100D01*
X1066800Y545975D01*
X1038225Y545975D01*
G54D10*
X1066800Y542800D02*
X1079500Y542800D01*
X1082675Y545975D01*
X1082675Y594175D01*
X1085850Y596775D01*
G54D10*
X1085850Y596775D02*
X1085850Y593600D01*
G54D10*
X1085850Y596775D02*
X1082675Y596775D01*
G54D10*
X878522Y492000D02*
X878522Y493588D01*
X899160Y493588D01*
X899160Y492000D01*
G54D10*
X878522Y472950D02*
X878522Y471362D01*
X899160Y471362D01*
X899160Y472950D01*
G54D11*
X876473Y498680D02*
X875939Y497347D01*
X874873Y496680D01*
X873806Y496680D01*
X872739Y497347D01*
X872206Y498680D01*
X872206Y505347D01*
X872739Y506680D01*
X873806Y507347D01*
X874873Y507347D01*
X875939Y506680D01*
X876473Y505347D01*
G54D11*
X880206Y498680D02*
X880739Y497347D01*
X881806Y496680D01*
X882873Y496680D01*
X883939Y497347D01*
X884473Y498680D01*
X884473Y502013D01*
X884473Y502680D01*
X882873Y501347D01*
X881806Y501347D01*
X880739Y502013D01*
X880206Y503347D01*
X880206Y505347D01*
X880739Y506680D01*
X881806Y507347D01*
X882873Y507347D01*
X883939Y506680D01*
X884473Y505347D01*
X884473Y502013D01*
G54D14*
X893190Y503938D02*
X893190Y498382D01*
X892745Y497271D01*
X891856Y496716D01*
X890967Y496716D01*
X890078Y497271D01*
X889634Y498382D01*
X889634Y503938D01*
X890078Y505049D01*
X890967Y505604D01*
X891856Y505604D01*
X892745Y505049D01*
X893190Y503938D01*
G54D14*
X896657Y496716D02*
X896301Y496716D01*
X896301Y497160D01*
X896657Y497160D01*
X896657Y496716D01*
X896301Y496716D01*
G54D14*
X899768Y502271D02*
X901990Y505604D01*
X901990Y496716D01*
G54D10*
X900112Y447550D02*
X902494Y447550D01*
X902494Y418182D01*
X900112Y418182D01*
G54D10*
X877887Y447550D02*
X875506Y447550D01*
X875506Y418182D01*
X877887Y418182D01*
G54D11*
X833266Y482262D02*
X834866Y480929D01*
X835400Y479596D01*
X835400Y476929D01*
G54D11*
X831133Y476929D02*
X831133Y487596D01*
X833800Y487596D01*
X834866Y486929D01*
X835400Y485596D01*
X835400Y484262D01*
X834866Y482929D01*
X833800Y482262D01*
X831133Y482262D01*
G54D11*
X843400Y476929D02*
X839133Y476929D01*
X839133Y477596D01*
X839666Y478929D01*
X842866Y482929D01*
X843400Y484262D01*
X843400Y485596D01*
X842866Y486929D01*
X841800Y487596D01*
X840733Y487596D01*
X839666Y486929D01*
X839133Y485596D01*
G54D11*
X851400Y485596D02*
X851400Y478929D01*
X850866Y477596D01*
X849800Y476929D01*
X848733Y476929D01*
X847666Y477596D01*
X847133Y478929D01*
X847133Y485596D01*
X847666Y486929D01*
X848733Y487596D01*
X849800Y487596D01*
X850866Y486929D01*
X851400Y485596D01*
G54D14*
X882178Y428748D02*
X882178Y437637D01*
X879511Y432082D01*
X879511Y430971D01*
X883067Y430971D01*
G54D14*
X886534Y428748D02*
X886178Y428748D01*
X886178Y429193D01*
X886534Y429193D01*
X886534Y428748D01*
X886178Y428748D01*
G54D14*
X889645Y437637D02*
X893201Y437637D01*
X892756Y436526D01*
X891867Y434860D01*
X890978Y432637D01*
X890534Y430971D01*
X890534Y428748D01*
G54D14*
X896312Y428748D02*
X896312Y437637D01*
G54D14*
X897645Y432082D02*
X898979Y428748D01*
G54D14*
X896312Y430971D02*
X898979Y433748D01*
G54D10*
X928687Y447550D02*
X931068Y447550D01*
X931068Y418182D01*
X928687Y418182D01*
G54D10*
X906462Y447550D02*
X904081Y447550D01*
X904081Y418182D01*
X906462Y418182D01*
G54D11*
X909466Y463212D02*
X911066Y461879D01*
X911600Y460546D01*
X911600Y457879D01*
G54D11*
X907333Y457879D02*
X907333Y468546D01*
X910000Y468546D01*
X911066Y467879D01*
X911600Y466546D01*
X911600Y465212D01*
X911066Y463879D01*
X910000Y463212D01*
X907333Y463212D01*
G54D11*
X915333Y464546D02*
X918000Y468546D01*
X918000Y457879D01*
G54D11*
X924400Y463212D02*
X923333Y463212D01*
X922266Y463879D01*
X921733Y465212D01*
X921733Y466546D01*
X922266Y467879D01*
X923333Y468546D01*
X924400Y468546D01*
X925466Y467879D01*
X926000Y466546D01*
X926000Y465212D01*
X925466Y463879D01*
X924400Y463212D01*
X925466Y462546D01*
X926000Y461212D01*
X926000Y459879D01*
X925466Y458546D01*
X924400Y457879D01*
X923333Y457879D01*
X922266Y458546D01*
X921733Y459879D01*
X921733Y461212D01*
X922266Y462546D01*
X923333Y463212D01*
G54D14*
X910753Y428748D02*
X910753Y437637D01*
X908086Y432082D01*
X908086Y430971D01*
X911642Y430971D01*
G54D14*
X915109Y428748D02*
X914753Y428748D01*
X914753Y429193D01*
X915109Y429193D01*
X915109Y428748D01*
X914753Y428748D01*
G54D14*
X918220Y437637D02*
X921776Y437637D01*
X921331Y436526D01*
X920442Y434860D01*
X919553Y432637D01*
X919109Y430971D01*
X919109Y428748D01*
G54D14*
X924887Y428748D02*
X924887Y437637D01*
G54D14*
X926220Y432082D02*
X927554Y428748D01*
G54D14*
X924887Y430971D02*
X927554Y433748D01*
G54D10*
X900112Y384050D02*
X902494Y384050D01*
X902494Y354682D01*
X900112Y354682D01*
G54D10*
X877887Y384050D02*
X875506Y384050D01*
X875506Y354682D01*
X877887Y354682D01*
G54D11*
X880891Y399712D02*
X882491Y398379D01*
X883025Y397046D01*
X883025Y394379D01*
G54D11*
X878758Y394379D02*
X878758Y405046D01*
X881425Y405046D01*
X882491Y404379D01*
X883025Y403046D01*
X883025Y401712D01*
X882491Y400379D01*
X881425Y399712D01*
X878758Y399712D01*
G54D11*
X891025Y394379D02*
X886758Y394379D01*
X886758Y395046D01*
X887291Y396379D01*
X890491Y400379D01*
X891025Y401712D01*
X891025Y403046D01*
X890491Y404379D01*
X889425Y405046D01*
X888358Y405046D01*
X887291Y404379D01*
X886758Y403046D01*
G54D11*
X894758Y396379D02*
X895291Y395046D01*
X896358Y394379D01*
X897425Y394379D01*
X898491Y395046D01*
X899025Y396379D01*
X899025Y399712D01*
X899025Y400379D01*
X897425Y399046D01*
X896358Y399046D01*
X895291Y399712D01*
X894758Y401046D01*
X894758Y403046D01*
X895291Y404379D01*
X896358Y405046D01*
X897425Y405046D01*
X898491Y404379D01*
X899025Y403046D01*
X899025Y399712D01*
G54D14*
X882178Y365248D02*
X882178Y374137D01*
X879511Y368582D01*
X879511Y367471D01*
X883066Y367471D01*
G54D14*
X886534Y365248D02*
X886178Y365248D01*
X886178Y365693D01*
X886534Y365693D01*
X886534Y365248D01*
X886178Y365248D01*
G54D14*
X889645Y374137D02*
X893200Y374137D01*
X892756Y373026D01*
X891867Y371360D01*
X890978Y369137D01*
X890534Y367471D01*
X890534Y365248D01*
G54D14*
X896312Y365248D02*
X896312Y374137D01*
G54D14*
X897645Y368582D02*
X898979Y365248D01*
G54D14*
X896312Y367471D02*
X898979Y370248D01*
G54D10*
X879475Y312650D02*
X877888Y312650D01*
X877888Y333288D01*
X879475Y333288D01*
G54D10*
X898525Y312650D02*
X900112Y312650D01*
X900112Y333288D01*
X898525Y333288D01*
G54D11*
X855981Y322883D02*
X855447Y321550D01*
X854381Y320883D01*
X853314Y320883D01*
X852247Y321550D01*
X851714Y322883D01*
X851714Y329550D01*
X852247Y330883D01*
X853314Y331550D01*
X854381Y331550D01*
X855447Y330883D01*
X855981Y329550D01*
G54D11*
X859714Y327550D02*
X862381Y331550D01*
X862381Y320883D01*
G54D11*
X869314Y320883D02*
X869314Y331550D01*
X866114Y324883D01*
X866114Y323550D01*
X870381Y323550D01*
G54D14*
X855320Y316189D02*
X855320Y310633D01*
X854875Y309522D01*
X853986Y308966D01*
X853097Y308966D01*
X852208Y309522D01*
X851764Y310633D01*
X851764Y316189D01*
X852208Y317300D01*
X853097Y317855D01*
X853986Y317855D01*
X854875Y317300D01*
X855320Y316189D01*
G54D14*
X858787Y308966D02*
X858431Y308966D01*
X858431Y309411D01*
X858787Y309411D01*
X858787Y308966D01*
X858431Y308966D01*
G54D14*
X861898Y314522D02*
X864120Y317855D01*
X864120Y308966D01*
G54D10*
X871537Y384050D02*
X873918Y384050D01*
X873918Y354682D01*
X871537Y354682D01*
G54D10*
X849312Y384050D02*
X846931Y384050D01*
X846931Y354682D01*
X849312Y354682D01*
G54D11*
X855801Y399704D02*
X857401Y398370D01*
X857935Y397037D01*
X857935Y394370D01*
G54D11*
X853668Y394370D02*
X853668Y405037D01*
X856335Y405037D01*
X857401Y404370D01*
X857935Y403037D01*
X857935Y401704D01*
X857401Y400370D01*
X856335Y399704D01*
X853668Y399704D01*
G54D11*
X861668Y396370D02*
X862201Y395037D01*
X863268Y394370D01*
X864335Y394370D01*
X865401Y395037D01*
X865935Y396370D01*
X865935Y399704D01*
X865935Y400370D01*
X864335Y399037D01*
X863268Y399037D01*
X862201Y399704D01*
X861668Y401037D01*
X861668Y403037D01*
X862201Y404370D01*
X863268Y405037D01*
X864335Y405037D01*
X865401Y404370D01*
X865935Y403037D01*
X865935Y399704D01*
G54D14*
X853032Y370579D02*
X855254Y373912D01*
X855254Y365023D01*
G54D14*
X861921Y372245D02*
X861921Y366690D01*
X861476Y365579D01*
X860587Y365023D01*
X859698Y365023D01*
X858809Y365579D01*
X858365Y366690D01*
X858365Y372245D01*
X858809Y373356D01*
X859698Y373912D01*
X860587Y373912D01*
X861476Y373356D01*
X861921Y372245D01*
G54D14*
X868588Y372245D02*
X868588Y366690D01*
X868143Y365579D01*
X867254Y365023D01*
X866365Y365023D01*
X865476Y365579D01*
X865032Y366690D01*
X865032Y372245D01*
X865476Y373356D01*
X866365Y373912D01*
X867254Y373912D01*
X868143Y373356D01*
X868588Y372245D01*
G54D10*
X871537Y447550D02*
X873918Y447550D01*
X873918Y418182D01*
X871537Y418182D01*
G54D10*
X849312Y447550D02*
X846931Y447550D01*
X846931Y418182D01*
X849312Y418182D01*
G54D11*
X856436Y462569D02*
X858036Y461236D01*
X858570Y459902D01*
X858570Y457236D01*
G54D11*
X854303Y457236D02*
X854303Y467902D01*
X856970Y467902D01*
X858036Y467236D01*
X858570Y465902D01*
X858570Y464569D01*
X858036Y463236D01*
X856970Y462569D01*
X854303Y462569D01*
G54D11*
X864970Y462569D02*
X863903Y462569D01*
X862836Y463236D01*
X862303Y464569D01*
X862303Y465902D01*
X862836Y467236D01*
X863903Y467902D01*
X864970Y467902D01*
X866036Y467236D01*
X866570Y465902D01*
X866570Y464569D01*
X866036Y463236D01*
X864970Y462569D01*
X866036Y461902D01*
X866570Y460569D01*
X866570Y459236D01*
X866036Y457902D01*
X864970Y457236D01*
X863903Y457236D01*
X862836Y457902D01*
X862303Y459236D01*
X862303Y460569D01*
X862836Y461902D01*
X863903Y462569D01*
G54D14*
X855699Y428523D02*
X855699Y437412D01*
X853032Y431856D01*
X853032Y430745D01*
X856588Y430745D01*
G54D14*
X859699Y437412D02*
X863255Y437412D01*
X862810Y436301D01*
X861921Y434634D01*
X861032Y432412D01*
X860588Y430745D01*
X860588Y428523D01*
G54D14*
X866366Y428523D02*
X866366Y437412D01*
G54D14*
X867699Y431856D02*
X869033Y428523D01*
G54D14*
X866366Y430745D02*
X869033Y433523D01*
G54D10*
X1014412Y250700D02*
X1016794Y250700D01*
X1016794Y221332D01*
X1014412Y221332D01*
G54D10*
X992187Y250700D02*
X989806Y250700D01*
X989806Y221332D01*
X992187Y221332D01*
G54D14*
X997159Y264457D02*
X998493Y263346D01*
X998937Y262235D01*
X998937Y260013D01*
G54D14*
X995382Y260013D02*
X995382Y268902D01*
X997604Y268902D01*
X998493Y268346D01*
X998937Y267235D01*
X998937Y266124D01*
X998493Y265013D01*
X997604Y264457D01*
X995382Y264457D01*
G54D14*
X1002048Y267235D02*
X1002493Y268346D01*
X1003382Y268902D01*
X1004271Y268902D01*
X1005160Y268346D01*
X1005604Y267235D01*
X1005604Y266124D01*
X1005160Y265013D01*
X1004271Y264457D01*
X1005160Y263902D01*
X1005604Y262791D01*
X1005604Y261680D01*
X1005160Y260569D01*
X1004271Y260013D01*
X1003382Y260013D01*
X1002493Y260569D01*
X1002048Y261680D01*
G54D14*
X1012271Y268902D02*
X1008716Y268902D01*
X1008716Y265013D01*
X1009160Y265013D01*
X1010049Y265569D01*
X1010938Y265569D01*
X1011827Y265013D01*
X1012271Y263902D01*
X1012271Y261680D01*
X1011827Y260569D01*
X1010938Y260013D01*
X1010049Y260013D01*
X1009160Y260569D01*
X1008716Y261680D01*
G54D14*
X997366Y240787D02*
X993811Y240787D01*
X993811Y236898D01*
X994256Y236898D01*
X995144Y237454D01*
X996033Y237454D01*
X996922Y236898D01*
X997366Y235787D01*
X997366Y233565D01*
X996922Y232454D01*
X996033Y231898D01*
X995144Y231898D01*
X994256Y232454D01*
X993811Y233565D01*
G54D14*
X1000478Y237454D02*
X1002700Y240787D01*
X1002700Y231898D01*
G54D14*
X1009366Y239121D02*
X1009366Y233565D01*
X1008922Y232454D01*
X1008033Y231898D01*
X1007144Y231898D01*
X1006256Y232454D01*
X1005811Y233565D01*
X1005811Y239121D01*
X1006256Y240232D01*
X1007144Y240787D01*
X1008033Y240787D01*
X1008922Y240232D01*
X1009366Y239121D01*
G54D10*
X1055687Y276100D02*
X1058068Y276100D01*
X1058068Y246732D01*
X1055687Y246732D01*
G54D10*
X1033462Y276100D02*
X1031081Y276100D01*
X1031081Y246732D01*
X1033462Y246732D01*
G54D14*
X1037790Y290810D02*
X1039123Y289699D01*
X1039568Y288588D01*
X1039568Y286366D01*
G54D14*
X1036012Y286366D02*
X1036012Y295254D01*
X1038234Y295254D01*
X1039123Y294699D01*
X1039568Y293588D01*
X1039568Y292477D01*
X1039123Y291366D01*
X1038234Y290810D01*
X1036012Y290810D01*
G54D14*
X1042679Y293588D02*
X1043123Y294699D01*
X1044012Y295254D01*
X1044901Y295254D01*
X1045790Y294699D01*
X1046235Y293588D01*
X1046235Y292477D01*
X1045790Y291366D01*
X1044901Y290810D01*
X1045790Y290254D01*
X1046235Y289143D01*
X1046235Y288032D01*
X1045790Y286921D01*
X1044901Y286366D01*
X1044012Y286366D01*
X1043123Y286921D01*
X1042679Y288032D01*
G54D14*
X1052013Y286366D02*
X1052013Y295254D01*
X1049346Y289699D01*
X1049346Y288588D01*
X1052902Y288588D01*
G54D14*
X1038642Y266187D02*
X1035086Y266187D01*
X1035086Y262298D01*
X1035530Y262298D01*
X1036419Y262854D01*
X1037308Y262854D01*
X1038197Y262298D01*
X1038642Y261187D01*
X1038642Y258965D01*
X1038197Y257854D01*
X1037308Y257298D01*
X1036419Y257298D01*
X1035530Y257854D01*
X1035086Y258965D01*
G54D14*
X1041753Y262854D02*
X1043975Y266187D01*
X1043975Y257298D01*
G54D14*
X1050642Y264521D02*
X1050642Y258965D01*
X1050197Y257854D01*
X1049308Y257298D01*
X1048419Y257298D01*
X1047530Y257854D01*
X1047086Y258965D01*
X1047086Y264521D01*
X1047530Y265632D01*
X1048419Y266187D01*
X1049308Y266187D01*
X1050197Y265632D01*
X1050642Y264521D01*
G54D10*
X1055746Y346780D02*
X1058127Y346780D01*
X1058127Y317411D01*
X1055746Y317411D01*
G54D10*
X1033521Y346780D02*
X1031140Y346780D01*
X1031140Y317411D01*
X1033521Y317411D01*
G54D11*
X1036525Y362442D02*
X1038125Y361108D01*
X1038658Y359775D01*
X1038658Y357108D01*
G54D11*
X1034392Y357108D02*
X1034392Y367775D01*
X1037058Y367775D01*
X1038125Y367108D01*
X1038658Y365775D01*
X1038658Y364442D01*
X1038125Y363108D01*
X1037058Y362442D01*
X1034392Y362442D01*
G54D11*
X1042392Y363775D02*
X1045058Y367775D01*
X1045058Y357108D01*
G54D11*
X1048792Y367775D02*
X1053058Y367775D01*
X1052525Y366442D01*
X1051458Y364442D01*
X1050392Y361775D01*
X1049858Y359775D01*
X1049858Y357108D01*
G54D14*
X1041177Y333533D02*
X1043400Y336867D01*
X1043400Y327978D01*
G54D14*
X1046510Y327978D02*
X1046510Y336867D01*
G54D14*
X1047844Y331311D02*
X1049177Y327978D01*
G54D14*
X1046510Y330200D02*
X1049177Y332978D01*
G54D10*
X1055687Y418975D02*
X1058068Y418975D01*
X1058068Y389606D01*
X1055687Y389606D01*
G54D10*
X1033462Y418975D02*
X1031081Y418975D01*
X1031081Y389606D01*
X1033462Y389606D01*
G54D11*
X1036466Y434637D02*
X1038066Y433304D01*
X1038600Y431971D01*
X1038600Y429304D01*
G54D11*
X1034333Y429304D02*
X1034333Y439971D01*
X1037000Y439971D01*
X1038066Y439304D01*
X1038600Y437971D01*
X1038600Y436637D01*
X1038066Y435304D01*
X1037000Y434637D01*
X1034333Y434637D01*
G54D11*
X1042333Y435971D02*
X1045000Y439971D01*
X1045000Y429304D01*
G54D11*
X1048733Y435971D02*
X1051400Y439971D01*
X1051400Y429304D01*
G54D14*
X1036674Y405729D02*
X1038896Y409062D01*
X1038896Y400174D01*
G54D14*
X1045562Y407396D02*
X1045562Y401840D01*
X1045118Y400729D01*
X1044229Y400174D01*
X1043340Y400174D01*
X1042451Y400729D01*
X1042006Y401840D01*
X1042006Y407396D01*
X1042451Y408507D01*
X1043340Y409062D01*
X1044229Y409062D01*
X1045118Y408507D01*
X1045562Y407396D01*
G54D14*
X1052229Y407396D02*
X1052229Y401840D01*
X1051785Y400729D01*
X1050896Y400174D01*
X1050007Y400174D01*
X1049118Y400729D01*
X1048674Y401840D01*
X1048674Y407396D01*
X1049118Y408507D01*
X1050007Y409062D01*
X1050896Y409062D01*
X1051785Y408507D01*
X1052229Y407396D01*
G54D10*
X1098550Y566612D02*
X1098550Y568994D01*
X1127918Y568994D01*
X1127918Y566612D01*
G54D10*
X1098550Y544387D02*
X1098550Y542006D01*
X1127918Y542006D01*
X1127918Y544387D01*
G54D11*
X1123312Y532366D02*
X1124912Y531033D01*
X1125446Y529700D01*
X1125446Y527033D01*
G54D11*
X1121179Y527033D02*
X1121179Y537700D01*
X1123846Y537700D01*
X1124912Y537033D01*
X1125446Y535700D01*
X1125446Y534366D01*
X1124912Y533033D01*
X1123846Y532366D01*
X1121179Y532366D01*
G54D11*
X1129179Y533700D02*
X1131846Y537700D01*
X1131846Y527033D01*
G54D11*
X1139846Y527033D02*
X1135579Y527033D01*
X1135579Y527700D01*
X1136112Y529033D01*
X1139312Y533033D01*
X1139846Y534366D01*
X1139846Y535700D01*
X1139312Y537033D01*
X1138246Y537700D01*
X1137179Y537700D01*
X1136112Y537033D01*
X1135579Y535700D01*
G54D14*
X1117352Y548678D02*
X1108463Y548678D01*
X1114019Y546011D01*
X1115130Y546011D01*
X1115130Y549566D01*
G54D14*
X1108463Y552678D02*
X1108463Y556234D01*
X1109574Y555789D01*
X1111241Y554900D01*
X1113463Y554011D01*
X1115130Y553567D01*
X1117352Y553567D01*
G54D14*
X1117352Y559345D02*
X1108463Y559345D01*
G54D14*
X1114019Y560678D02*
X1117352Y562012D01*
G54D14*
X1115130Y559345D02*
X1112352Y562012D01*
G54D10*
X909637Y822200D02*
X912018Y822200D01*
X912018Y792832D01*
X909637Y792832D01*
G54D10*
X887412Y822200D02*
X885031Y822200D01*
X885031Y792832D01*
X887412Y792832D01*
G54D11*
X890416Y837862D02*
X892016Y836529D01*
X892550Y835196D01*
X892550Y832529D01*
G54D11*
X888283Y832529D02*
X888283Y843196D01*
X890950Y843196D01*
X892016Y842529D01*
X892550Y841196D01*
X892550Y839862D01*
X892016Y838529D01*
X890950Y837862D01*
X888283Y837862D01*
G54D11*
X900550Y832529D02*
X896283Y832529D01*
X896283Y833196D01*
X896816Y834529D01*
X900016Y838529D01*
X900550Y839862D01*
X900550Y841196D01*
X900016Y842529D01*
X898950Y843196D01*
X897883Y843196D01*
X896816Y842529D01*
X896283Y841196D01*
G54D11*
X907483Y832529D02*
X907483Y843196D01*
X904283Y836529D01*
X904283Y835196D01*
X908550Y835196D01*
G54D14*
X894751Y808954D02*
X896973Y812287D01*
X896973Y803398D01*
G54D14*
X900084Y803398D02*
X900084Y812287D01*
G54D14*
X901417Y806732D02*
X902751Y803398D01*
G54D14*
X900084Y805621D02*
X902751Y808398D01*
G54D10*
X946186Y807853D02*
X946186Y810235D01*
X975555Y810235D01*
X975555Y807853D01*
G54D10*
X946186Y785629D02*
X946186Y783247D01*
X975555Y783247D01*
X975555Y785629D01*
G54D11*
X954275Y818858D02*
X955875Y817524D01*
X956408Y816191D01*
X956408Y813524D01*
G54D11*
X952142Y813524D02*
X952142Y824191D01*
X954808Y824191D01*
X955875Y823524D01*
X956408Y822191D01*
X956408Y820858D01*
X955875Y819524D01*
X954808Y818858D01*
X952142Y818858D01*
G54D11*
X964408Y813524D02*
X960142Y813524D01*
X960142Y814191D01*
X960675Y815524D01*
X963875Y819524D01*
X964408Y820858D01*
X964408Y822191D01*
X963875Y823524D01*
X962808Y824191D01*
X961742Y824191D01*
X960675Y823524D01*
X960142Y822191D01*
G54D11*
X972408Y822191D02*
X971875Y823524D01*
X970808Y824191D01*
X969742Y824191D01*
X968675Y823524D01*
X968142Y822191D01*
X968142Y818858D01*
X968142Y818191D01*
X969742Y819524D01*
X970808Y819524D01*
X971875Y818858D01*
X972408Y817524D01*
X972408Y815524D01*
X971875Y814191D01*
X970808Y813524D01*
X969742Y813524D01*
X968675Y814191D01*
X968142Y815524D01*
X968142Y818858D01*
G54D14*
X959432Y792967D02*
X956099Y795189D01*
X964988Y795189D01*
G54D14*
X964988Y798300D02*
X956099Y798300D01*
G54D14*
X961655Y799633D02*
X964988Y800966D01*
G54D14*
X962766Y798300D02*
X959988Y800966D01*
G54D10*
X765175Y807912D02*
X765175Y810293D01*
X794544Y810293D01*
X794544Y807912D01*
G54D10*
X765175Y785687D02*
X765175Y783306D01*
X794544Y783306D01*
X794544Y785687D01*
G54D11*
X773263Y818916D02*
X774863Y817583D01*
X775397Y816250D01*
X775397Y813583D01*
G54D11*
X771130Y813583D02*
X771130Y824250D01*
X773797Y824250D01*
X774863Y823583D01*
X775397Y822250D01*
X775397Y820916D01*
X774863Y819583D01*
X773797Y818916D01*
X771130Y818916D01*
G54D11*
X779130Y822250D02*
X779663Y823583D01*
X780730Y824250D01*
X781797Y824250D01*
X782863Y823583D01*
X783397Y822250D01*
X783397Y820916D01*
X782863Y819583D01*
X781797Y818916D01*
X782863Y818250D01*
X783397Y816916D01*
X783397Y815583D01*
X782863Y814250D01*
X781797Y813583D01*
X780730Y813583D01*
X779663Y814250D01*
X779130Y815583D01*
G54D11*
X787130Y822250D02*
X787663Y823583D01*
X788730Y824250D01*
X789797Y824250D01*
X790863Y823583D01*
X791397Y822250D01*
X791397Y820916D01*
X790863Y819583D01*
X789797Y818916D01*
X790863Y818250D01*
X791397Y816916D01*
X791397Y815583D01*
X790863Y814250D01*
X789797Y813583D01*
X788730Y813583D01*
X787663Y814250D01*
X787130Y815583D01*
G54D14*
X778421Y793026D02*
X775088Y795248D01*
X783976Y795248D01*
G54D14*
X783976Y798359D02*
X775088Y798359D01*
G54D14*
X780643Y799692D02*
X783976Y801025D01*
G54D14*
X781754Y798359D02*
X778976Y801025D01*
G54D10*
X750887Y822200D02*
X753268Y822200D01*
X753268Y792832D01*
X750887Y792832D01*
G54D10*
X728662Y822200D02*
X726281Y822200D01*
X726281Y792832D01*
X728662Y792832D01*
G54D11*
X757066Y831512D02*
X758666Y830179D01*
X759200Y828846D01*
X759200Y826179D01*
G54D11*
X754933Y826179D02*
X754933Y836846D01*
X757600Y836846D01*
X758666Y836179D01*
X759200Y834846D01*
X759200Y833512D01*
X758666Y832179D01*
X757600Y831512D01*
X754933Y831512D01*
G54D11*
X762933Y834846D02*
X763466Y836179D01*
X764533Y836846D01*
X765600Y836846D01*
X766666Y836179D01*
X767200Y834846D01*
X767200Y833512D01*
X766666Y832179D01*
X765600Y831512D01*
X766666Y830846D01*
X767200Y829512D01*
X767200Y828179D01*
X766666Y826846D01*
X765600Y826179D01*
X764533Y826179D01*
X763466Y826846D01*
X762933Y828179D01*
G54D11*
X770933Y832846D02*
X773600Y836846D01*
X773600Y826179D01*
G54D14*
X736001Y808954D02*
X738223Y812287D01*
X738223Y803398D01*
G54D14*
X741334Y803398D02*
X741334Y812287D01*
G54D14*
X742667Y806732D02*
X744001Y803398D01*
G54D14*
X741334Y805621D02*
X744001Y808398D01*
G54D10*
X598487Y822200D02*
X600868Y822200D01*
X600868Y792832D01*
X598487Y792832D01*
G54D10*
X576262Y822200D02*
X573881Y822200D01*
X573881Y792832D01*
X576262Y792832D01*
G54D11*
X558725Y824708D02*
X560325Y823375D01*
X560858Y822042D01*
X560858Y819375D01*
G54D11*
X556592Y819375D02*
X556592Y830042D01*
X559258Y830042D01*
X560325Y829375D01*
X560858Y828042D01*
X560858Y826708D01*
X560325Y825375D01*
X559258Y824708D01*
X556592Y824708D01*
G54D11*
X568858Y819375D02*
X564592Y819375D01*
X564592Y820042D01*
X565125Y821375D01*
X568325Y825375D01*
X568858Y826708D01*
X568858Y828042D01*
X568325Y829375D01*
X567258Y830042D01*
X566192Y830042D01*
X565125Y829375D01*
X564592Y828042D01*
G54D14*
X583601Y808954D02*
X585823Y812287D01*
X585823Y803398D01*
G54D14*
X588934Y803398D02*
X588934Y812287D01*
G54D14*
X590267Y806732D02*
X591601Y803398D01*
G54D14*
X588934Y805621D02*
X591601Y808398D01*
G54D10*
X530261Y807853D02*
X530261Y810235D01*
X559630Y810235D01*
X559630Y807853D01*
G54D10*
X530261Y785629D02*
X530261Y783247D01*
X559630Y783247D01*
X559630Y785629D01*
G54D11*
X538350Y818858D02*
X539950Y817524D01*
X540483Y816191D01*
X540483Y813524D01*
G54D11*
X536216Y813524D02*
X536216Y824191D01*
X538883Y824191D01*
X539950Y823524D01*
X540483Y822191D01*
X540483Y820858D01*
X539950Y819524D01*
X538883Y818858D01*
X536216Y818858D01*
G54D11*
X547416Y813524D02*
X547416Y824191D01*
X544216Y817524D01*
X544216Y816191D01*
X548483Y816191D01*
G54D14*
X543507Y792967D02*
X540174Y795189D01*
X549063Y795189D01*
G54D14*
X549063Y798300D02*
X540174Y798300D01*
G54D14*
X545730Y799633D02*
X549063Y800966D01*
G54D14*
X546841Y798300D02*
X544063Y800966D01*
G54D10*
X327061Y807853D02*
X327061Y810235D01*
X356430Y810235D01*
X356430Y807853D01*
G54D10*
X327061Y785629D02*
X327061Y783247D01*
X356430Y783247D01*
X356430Y785629D01*
G54D11*
X335150Y818858D02*
X336750Y817524D01*
X337283Y816191D01*
X337283Y813524D01*
G54D11*
X333016Y813524D02*
X333016Y824191D01*
X335683Y824191D01*
X336750Y823524D01*
X337283Y822191D01*
X337283Y820858D01*
X336750Y819524D01*
X335683Y818858D01*
X333016Y818858D01*
G54D11*
X341016Y820191D02*
X343683Y824191D01*
X343683Y813524D01*
G54D11*
X350616Y813524D02*
X350616Y824191D01*
X347416Y817524D01*
X347416Y816191D01*
X351683Y816191D01*
G54D14*
X340307Y792967D02*
X336974Y795189D01*
X345863Y795189D01*
G54D14*
X345863Y798300D02*
X336974Y798300D01*
G54D14*
X342530Y799633D02*
X345863Y800966D01*
G54D14*
X343641Y798300D02*
X340863Y800966D01*
G54D10*
X401637Y822200D02*
X404018Y822200D01*
X404018Y792832D01*
X401637Y792832D01*
G54D10*
X379412Y822200D02*
X377031Y822200D01*
X377031Y792832D01*
X379412Y792832D01*
G54D11*
X359258Y830392D02*
X360858Y829058D01*
X361392Y827725D01*
X361392Y825058D01*
G54D11*
X357125Y825058D02*
X357125Y835725D01*
X359792Y835725D01*
X360858Y835058D01*
X361392Y833725D01*
X361392Y832392D01*
X360858Y831058D01*
X359792Y830392D01*
X357125Y830392D01*
G54D11*
X365125Y831725D02*
X367792Y835725D01*
X367792Y825058D01*
G54D11*
X375792Y833725D02*
X375792Y827058D01*
X375258Y825725D01*
X374192Y825058D01*
X373125Y825058D01*
X372058Y825725D01*
X371525Y827058D01*
X371525Y833725D01*
X372058Y835058D01*
X373125Y835725D01*
X374192Y835725D01*
X375258Y835058D01*
X375792Y833725D01*
G54D14*
X386751Y808954D02*
X388973Y812287D01*
X388973Y803398D01*
G54D14*
X392084Y803398D02*
X392084Y812287D01*
G54D14*
X393417Y806732D02*
X394751Y803398D01*
G54D14*
X392084Y805621D02*
X394751Y808398D01*
G54D10*
X579378Y761839D02*
X581760Y761839D01*
X581760Y732470D01*
X579378Y732470D01*
G54D10*
X557154Y761839D02*
X554772Y761839D01*
X554772Y732470D01*
X557154Y732470D01*
G54D11*
X546157Y743202D02*
X547490Y744802D01*
X548823Y745336D01*
X551490Y745336D01*
G54D11*
X551490Y741069D02*
X540823Y741069D01*
X540823Y743736D01*
X541490Y744802D01*
X542823Y745336D01*
X544157Y745336D01*
X545490Y744802D01*
X546157Y743736D01*
X546157Y741069D01*
G54D11*
X542823Y749069D02*
X541490Y749602D01*
X540823Y750669D01*
X540823Y751736D01*
X541490Y752802D01*
X542823Y753336D01*
X544157Y753336D01*
X545490Y752802D01*
X546157Y751736D01*
X546823Y752802D01*
X548157Y753336D01*
X549490Y753336D01*
X550823Y752802D01*
X551490Y751736D01*
X551490Y750669D01*
X550823Y749602D01*
X549490Y749069D01*
G54D14*
X560428Y743037D02*
X556872Y743037D01*
X556872Y743593D01*
X557317Y744704D01*
X559983Y748037D01*
X560428Y749148D01*
X560428Y750259D01*
X559983Y751370D01*
X559094Y751926D01*
X558206Y751926D01*
X557317Y751370D01*
X556872Y750259D01*
G54D14*
X567095Y743037D02*
X563539Y743037D01*
X563539Y743593D01*
X563984Y744704D01*
X566650Y748037D01*
X567095Y749148D01*
X567095Y750259D01*
X566650Y751370D01*
X565762Y751926D01*
X564873Y751926D01*
X563984Y751370D01*
X563539Y750259D01*
G54D14*
X573762Y750259D02*
X573762Y744704D01*
X573317Y743593D01*
X572428Y743037D01*
X571540Y743037D01*
X570651Y743593D01*
X570206Y744704D01*
X570206Y750259D01*
X570651Y751370D01*
X571540Y751926D01*
X572428Y751926D01*
X573317Y751370D01*
X573762Y750259D01*
G54D14*
X576873Y743037D02*
X576873Y751926D01*
G54D14*
X578207Y746370D02*
X579540Y743037D01*
G54D14*
X576873Y745259D02*
X579540Y748037D01*
G54D10*
X579437Y657100D02*
X581818Y657100D01*
X581818Y627732D01*
X579437Y627732D01*
G54D10*
X557212Y657100D02*
X554831Y657100D01*
X554831Y627732D01*
X557212Y627732D01*
G54D11*
X546215Y638464D02*
X547549Y640064D01*
X548882Y640597D01*
X551549Y640597D01*
G54D11*
X551549Y636331D02*
X540882Y636331D01*
X540882Y638997D01*
X541549Y640064D01*
X542882Y640597D01*
X544215Y640597D01*
X545549Y640064D01*
X546215Y638997D01*
X546215Y636331D01*
G54D11*
X544882Y644331D02*
X540882Y646997D01*
X551549Y646997D01*
G54D11*
X542882Y650731D02*
X541549Y651264D01*
X540882Y652331D01*
X540882Y653397D01*
X541549Y654464D01*
X542882Y654997D01*
X544215Y654997D01*
X545549Y654464D01*
X546215Y653397D01*
X546882Y654464D01*
X548215Y654997D01*
X549549Y654997D01*
X550882Y654464D01*
X551549Y653397D01*
X551549Y652331D01*
X550882Y651264D01*
X549549Y650731D01*
G54D14*
X560487Y638299D02*
X556931Y638299D01*
X556931Y638854D01*
X557376Y639965D01*
X560042Y643299D01*
X560487Y644410D01*
X560487Y645521D01*
X560042Y646632D01*
X559153Y647187D01*
X558264Y647187D01*
X557376Y646632D01*
X556931Y645521D01*
G54D14*
X567154Y638299D02*
X563598Y638299D01*
X563598Y638854D01*
X564042Y639965D01*
X566709Y643299D01*
X567154Y644410D01*
X567154Y645521D01*
X566709Y646632D01*
X565820Y647187D01*
X564931Y647187D01*
X564042Y646632D01*
X563598Y645521D01*
G54D14*
X573821Y645521D02*
X573821Y639965D01*
X573376Y638854D01*
X572487Y638299D01*
X571598Y638299D01*
X570710Y638854D01*
X570265Y639965D01*
X570265Y645521D01*
X570710Y646632D01*
X571598Y647187D01*
X572487Y647187D01*
X573376Y646632D01*
X573821Y645521D01*
G54D14*
X576932Y638299D02*
X576932Y647187D01*
G54D14*
X578265Y641632D02*
X579599Y638299D01*
G54D14*
X576932Y640521D02*
X579599Y643299D01*
G54D10*
X763587Y657100D02*
X765968Y657100D01*
X765968Y627732D01*
X763587Y627732D01*
G54D10*
X741362Y657100D02*
X738981Y657100D01*
X738981Y627732D01*
X741362Y627732D01*
G54D11*
X744590Y611539D02*
X746190Y610205D01*
X746724Y608872D01*
X746724Y606205D01*
G54D11*
X742457Y606205D02*
X742457Y616872D01*
X745124Y616872D01*
X746190Y616205D01*
X746724Y614872D01*
X746724Y613539D01*
X746190Y612205D01*
X745124Y611539D01*
X742457Y611539D01*
G54D11*
X754724Y606205D02*
X750457Y606205D01*
X750457Y606872D01*
X750990Y608205D01*
X754190Y612205D01*
X754724Y613539D01*
X754724Y614872D01*
X754190Y616205D01*
X753124Y616872D01*
X752057Y616872D01*
X750990Y616205D01*
X750457Y614872D01*
G54D11*
X762724Y616872D02*
X758457Y616872D01*
X758457Y612205D01*
X758990Y612205D01*
X760057Y612872D01*
X761124Y612872D01*
X762190Y612205D01*
X762724Y610872D01*
X762724Y608205D01*
X762190Y606872D01*
X761124Y606205D01*
X760057Y606205D01*
X758990Y606872D01*
X758457Y608205D01*
G54D14*
X744637Y638299D02*
X741081Y638299D01*
X741081Y638854D01*
X741526Y639965D01*
X744192Y643299D01*
X744637Y644410D01*
X744637Y645521D01*
X744192Y646632D01*
X743303Y647187D01*
X742414Y647187D01*
X741526Y646632D01*
X741081Y645521D01*
G54D14*
X751304Y638299D02*
X747748Y638299D01*
X747748Y638854D01*
X748192Y639965D01*
X750859Y643299D01*
X751304Y644410D01*
X751304Y645521D01*
X750859Y646632D01*
X749970Y647187D01*
X749081Y647187D01*
X748192Y646632D01*
X747748Y645521D01*
G54D14*
X757971Y645521D02*
X757971Y639965D01*
X757526Y638854D01*
X756637Y638299D01*
X755748Y638299D01*
X754860Y638854D01*
X754415Y639965D01*
X754415Y645521D01*
X754860Y646632D01*
X755748Y647187D01*
X756637Y647187D01*
X757526Y646632D01*
X757971Y645521D01*
G54D14*
X761082Y638299D02*
X761082Y647187D01*
G54D14*
X762415Y641632D02*
X763749Y638299D01*
G54D14*
X761082Y640521D02*
X763749Y643299D01*
G54D10*
X763528Y761839D02*
X765910Y761839D01*
X765910Y732470D01*
X763528Y732470D01*
G54D10*
X741304Y761839D02*
X738922Y761839D01*
X738922Y732470D01*
X741304Y732470D01*
G54D11*
X744531Y776602D02*
X746131Y775269D01*
X746665Y773936D01*
X746665Y771269D01*
G54D11*
X742398Y771269D02*
X742398Y781936D01*
X745065Y781936D01*
X746131Y781269D01*
X746665Y779936D01*
X746665Y778602D01*
X746131Y777269D01*
X745065Y776602D01*
X742398Y776602D01*
G54D11*
X750398Y779936D02*
X750931Y781269D01*
X751998Y781936D01*
X753065Y781936D01*
X754131Y781269D01*
X754665Y779936D01*
X754665Y778602D01*
X754131Y777269D01*
X753065Y776602D01*
X754131Y775936D01*
X754665Y774602D01*
X754665Y773269D01*
X754131Y771936D01*
X753065Y771269D01*
X751998Y771269D01*
X750931Y771936D01*
X750398Y773269D01*
G54D11*
X762665Y771269D02*
X758398Y771269D01*
X758398Y771936D01*
X758931Y773269D01*
X762131Y777269D01*
X762665Y778602D01*
X762665Y779936D01*
X762131Y781269D01*
X761065Y781936D01*
X759998Y781936D01*
X758931Y781269D01*
X758398Y779936D01*
G54D14*
X744578Y743037D02*
X741022Y743037D01*
X741022Y743593D01*
X741467Y744704D01*
X744133Y748037D01*
X744578Y749148D01*
X744578Y750259D01*
X744133Y751370D01*
X743245Y751926D01*
X742356Y751926D01*
X741467Y751370D01*
X741022Y750259D01*
G54D14*
X751245Y743037D02*
X747689Y743037D01*
X747689Y743593D01*
X748134Y744704D01*
X750800Y748037D01*
X751245Y749148D01*
X751245Y750259D01*
X750800Y751370D01*
X749912Y751926D01*
X749023Y751926D01*
X748134Y751370D01*
X747689Y750259D01*
G54D14*
X757912Y750259D02*
X757912Y744704D01*
X757467Y743593D01*
X756579Y743037D01*
X755690Y743037D01*
X754801Y743593D01*
X754356Y744704D01*
X754356Y750259D01*
X754801Y751370D01*
X755690Y751926D01*
X756579Y751926D01*
X757467Y751370D01*
X757912Y750259D01*
G54D14*
X761023Y743037D02*
X761023Y751926D01*
G54D14*
X762357Y746370D02*
X763690Y743037D01*
G54D14*
X761023Y745259D02*
X763690Y748037D01*
G54D10*
X564320Y719071D02*
X564320Y721452D01*
X593689Y721452D01*
X593689Y719071D01*
G54D10*
X564320Y696846D02*
X564320Y694465D01*
X593689Y694465D01*
X593689Y696846D01*
G54D11*
X547834Y703977D02*
X549167Y705577D01*
X550500Y706110D01*
X553167Y706110D01*
G54D11*
X553167Y701844D02*
X542500Y701844D01*
X542500Y704510D01*
X543167Y705577D01*
X544500Y706110D01*
X545834Y706110D01*
X547167Y705577D01*
X547834Y704510D01*
X547834Y701844D01*
G54D11*
X546500Y709844D02*
X542500Y712510D01*
X553167Y712510D01*
G54D14*
X577567Y704184D02*
X574233Y706407D01*
X583122Y706407D01*
G54D14*
X583122Y709517D02*
X574233Y709517D01*
G54D14*
X579789Y710851D02*
X583122Y712184D01*
G54D14*
X580900Y709517D02*
X578122Y712184D01*
G54D10*
X564320Y693671D02*
X564320Y696052D01*
X593689Y696052D01*
X593689Y693671D01*
G54D10*
X564320Y671446D02*
X564320Y669065D01*
X593689Y669065D01*
X593689Y671446D01*
G54D11*
X547834Y678577D02*
X549167Y680177D01*
X550500Y680710D01*
X553167Y680710D01*
G54D11*
X553167Y676444D02*
X542500Y676444D01*
X542500Y679110D01*
X543167Y680177D01*
X544500Y680710D01*
X545834Y680710D01*
X547167Y680177D01*
X547834Y679110D01*
X547834Y676444D01*
G54D11*
X542500Y684444D02*
X542500Y688710D01*
X543834Y688177D01*
X545834Y687110D01*
X548500Y686044D01*
X550500Y685510D01*
X553167Y685510D01*
G54D14*
X577567Y678784D02*
X574233Y681007D01*
X583122Y681007D01*
G54D14*
X583122Y684117D02*
X574233Y684117D01*
G54D14*
X579789Y685451D02*
X583122Y686784D01*
G54D14*
X580900Y684117D02*
X578122Y686784D01*
G54D10*
X727111Y718953D02*
X727111Y721335D01*
X756480Y721335D01*
X756480Y718953D01*
G54D10*
X727111Y696729D02*
X727111Y694347D01*
X756480Y694347D01*
X756480Y696729D01*
G54D11*
X707449Y700684D02*
X708783Y702284D01*
X710116Y702818D01*
X712783Y702818D01*
G54D11*
X712783Y698551D02*
X702116Y698551D01*
X702116Y701218D01*
X702783Y702284D01*
X704116Y702818D01*
X705449Y702818D01*
X706783Y702284D01*
X707449Y701218D01*
X707449Y698551D01*
G54D11*
X704116Y706551D02*
X702783Y707084D01*
X702116Y708151D01*
X702116Y709218D01*
X702783Y710284D01*
X704116Y710818D01*
X705449Y710818D01*
X706783Y710284D01*
X707449Y709218D01*
X708116Y710284D01*
X709449Y710818D01*
X710783Y710818D01*
X712116Y710284D01*
X712783Y709218D01*
X712783Y708151D01*
X712116Y707084D01*
X710783Y706551D01*
G54D11*
X704116Y718818D02*
X710783Y718818D01*
X712116Y718284D01*
X712783Y717218D01*
X712783Y716151D01*
X712116Y715084D01*
X710783Y714551D01*
X704116Y714551D01*
X702783Y715084D01*
X702116Y716151D01*
X702116Y717218D01*
X702783Y718284D01*
X704116Y718818D01*
G54D14*
X740357Y704067D02*
X737024Y706289D01*
X745913Y706289D01*
G54D14*
X745913Y709400D02*
X737024Y709400D01*
G54D14*
X742579Y710733D02*
X745913Y712066D01*
G54D14*
X743690Y709400D02*
X740913Y712066D01*
G54D10*
X727111Y693553D02*
X727111Y695935D01*
X756480Y695935D01*
X756480Y693553D01*
G54D10*
X727111Y671329D02*
X727111Y668947D01*
X756480Y668947D01*
X756480Y671329D01*
G54D11*
X707449Y675284D02*
X708783Y676884D01*
X710116Y677418D01*
X712783Y677418D01*
G54D11*
X712783Y673151D02*
X702116Y673151D01*
X702116Y675818D01*
X702783Y676884D01*
X704116Y677418D01*
X705449Y677418D01*
X706783Y676884D01*
X707449Y675818D01*
X707449Y673151D01*
G54D11*
X712783Y685418D02*
X712783Y681151D01*
X712116Y681151D01*
X710783Y681684D01*
X706783Y684884D01*
X705449Y685418D01*
X704116Y685418D01*
X702783Y684884D01*
X702116Y683818D01*
X702116Y682751D01*
X702783Y681684D01*
X704116Y681151D01*
G54D11*
X712783Y693418D02*
X712783Y689151D01*
X712116Y689151D01*
X710783Y689684D01*
X706783Y692884D01*
X705449Y693418D01*
X704116Y693418D01*
X702783Y692884D01*
X702116Y691818D01*
X702116Y690751D01*
X702783Y689684D01*
X704116Y689151D01*
G54D14*
X740357Y678667D02*
X737024Y680889D01*
X745913Y680889D01*
G54D14*
X745913Y684000D02*
X737024Y684000D01*
G54D14*
X742579Y685333D02*
X745913Y686666D01*
G54D14*
X743690Y684000D02*
X740913Y686666D01*
G54D10*
X636587Y822200D02*
X638968Y822200D01*
X638968Y792832D01*
X636587Y792832D01*
G54D10*
X614362Y822200D02*
X611981Y822200D01*
X611981Y792832D01*
X614362Y792832D01*
G54D11*
X619050Y840583D02*
X620650Y839250D01*
X621183Y837917D01*
X621183Y835250D01*
G54D11*
X616917Y835250D02*
X616917Y845917D01*
X619583Y845917D01*
X620650Y845250D01*
X621183Y843917D01*
X621183Y842583D01*
X620650Y841250D01*
X619583Y840583D01*
X616917Y840583D01*
G54D11*
X624917Y841917D02*
X627583Y845917D01*
X627583Y835250D01*
G54D11*
X635583Y845917D02*
X631317Y845917D01*
X631317Y841250D01*
X631850Y841250D01*
X632917Y841917D01*
X633983Y841917D01*
X635050Y841250D01*
X635583Y839917D01*
X635583Y837250D01*
X635050Y835917D01*
X633983Y835250D01*
X632917Y835250D01*
X631850Y835917D01*
X631317Y837250D01*
G54D14*
X618653Y803398D02*
X618653Y812287D01*
X615986Y806732D01*
X615986Y805621D01*
X619542Y805621D01*
G54D14*
X623009Y803398D02*
X622653Y803398D01*
X622653Y803843D01*
X623009Y803843D01*
X623009Y803398D01*
X622653Y803398D01*
G54D14*
X626120Y812287D02*
X629676Y812287D01*
X629231Y811176D01*
X628342Y809510D01*
X627453Y807287D01*
X627009Y805621D01*
X627009Y803398D01*
G54D14*
X632787Y803398D02*
X632787Y812287D01*
G54D14*
X634120Y806732D02*
X635454Y803398D01*
G54D14*
X632787Y805621D02*
X635454Y808398D01*
G54D10*
X661987Y822200D02*
X664368Y822200D01*
X664368Y792832D01*
X661987Y792832D01*
G54D10*
X639762Y822200D02*
X637381Y822200D01*
X637381Y792832D01*
X639762Y792832D01*
G54D11*
X646672Y840583D02*
X648272Y839250D01*
X648806Y837917D01*
X648806Y835250D01*
G54D11*
X644539Y835250D02*
X644539Y845917D01*
X647206Y845917D01*
X648272Y845250D01*
X648806Y843917D01*
X648806Y842583D01*
X648272Y841250D01*
X647206Y840583D01*
X644539Y840583D01*
G54D11*
X656806Y845917D02*
X652539Y845917D01*
X652539Y841250D01*
X653072Y841250D01*
X654139Y841917D01*
X655206Y841917D01*
X656272Y841250D01*
X656806Y839917D01*
X656806Y837250D01*
X656272Y835917D01*
X655206Y835250D01*
X654139Y835250D01*
X653072Y835917D01*
X652539Y837250D01*
G54D14*
X644053Y803398D02*
X644053Y812287D01*
X641386Y806732D01*
X641386Y805621D01*
X644942Y805621D01*
G54D14*
X648409Y803398D02*
X648053Y803398D01*
X648053Y803843D01*
X648409Y803843D01*
X648409Y803398D01*
X648053Y803398D01*
G54D14*
X651520Y812287D02*
X655076Y812287D01*
X654631Y811176D01*
X653742Y809510D01*
X652853Y807287D01*
X652409Y805621D01*
X652409Y803398D01*
G54D14*
X658187Y803398D02*
X658187Y812287D01*
G54D14*
X659520Y806732D02*
X660854Y803398D01*
G54D14*
X658187Y805621D02*
X660854Y808398D01*
G54D10*
X687387Y822200D02*
X689768Y822200D01*
X689768Y792832D01*
X687387Y792832D01*
G54D10*
X665162Y822200D02*
X662781Y822200D01*
X662781Y792832D01*
X665162Y792832D01*
G54D11*
X669850Y840583D02*
X671450Y839250D01*
X671983Y837917D01*
X671983Y835250D01*
G54D11*
X667717Y835250D02*
X667717Y845917D01*
X670383Y845917D01*
X671450Y845250D01*
X671983Y843917D01*
X671983Y842583D01*
X671450Y841250D01*
X670383Y840583D01*
X667717Y840583D01*
G54D11*
X675717Y843917D02*
X676250Y845250D01*
X677317Y845917D01*
X678383Y845917D01*
X679450Y845250D01*
X679983Y843917D01*
X679983Y842583D01*
X679450Y841250D01*
X678383Y840583D01*
X679450Y839917D01*
X679983Y838583D01*
X679983Y837250D01*
X679450Y835917D01*
X678383Y835250D01*
X677317Y835250D01*
X676250Y835917D01*
X675717Y837250D01*
G54D11*
X687983Y843917D02*
X687450Y845250D01*
X686383Y845917D01*
X685317Y845917D01*
X684250Y845250D01*
X683717Y843917D01*
X683717Y840583D01*
X683717Y839917D01*
X685317Y841250D01*
X686383Y841250D01*
X687450Y840583D01*
X687983Y839250D01*
X687983Y837250D01*
X687450Y835917D01*
X686383Y835250D01*
X685317Y835250D01*
X684250Y835917D01*
X683717Y837250D01*
X683717Y840583D01*
G54D14*
X669453Y803398D02*
X669453Y812287D01*
X666786Y806732D01*
X666786Y805621D01*
X670342Y805621D01*
G54D14*
X673809Y803398D02*
X673453Y803398D01*
X673453Y803843D01*
X673809Y803843D01*
X673809Y803398D01*
X673453Y803398D01*
G54D14*
X676920Y812287D02*
X680476Y812287D01*
X680031Y811176D01*
X679142Y809510D01*
X678253Y807287D01*
X677809Y805621D01*
X677809Y803398D01*
G54D14*
X683587Y803398D02*
X683587Y812287D01*
G54D14*
X684920Y806732D02*
X686254Y803398D01*
G54D14*
X683587Y805621D02*
X686254Y808398D01*
G54D10*
X712787Y822200D02*
X715168Y822200D01*
X715168Y792832D01*
X712787Y792832D01*
G54D10*
X690562Y822200D02*
X688181Y822200D01*
X688181Y792832D01*
X690562Y792832D01*
G54D11*
X695250Y840583D02*
X696850Y839250D01*
X697383Y837917D01*
X697383Y835250D01*
G54D11*
X693117Y835250D02*
X693117Y845917D01*
X695783Y845917D01*
X696850Y845250D01*
X697383Y843917D01*
X697383Y842583D01*
X696850Y841250D01*
X695783Y840583D01*
X693117Y840583D01*
G54D11*
X705383Y835250D02*
X701117Y835250D01*
X701117Y835917D01*
X701650Y837250D01*
X704850Y841250D01*
X705383Y842583D01*
X705383Y843917D01*
X704850Y845250D01*
X703783Y845917D01*
X702717Y845917D01*
X701650Y845250D01*
X701117Y843917D01*
G54D11*
X709117Y845917D02*
X713383Y845917D01*
X712850Y844583D01*
X711783Y842583D01*
X710717Y839917D01*
X710183Y837917D01*
X710183Y835250D01*
G54D14*
X694853Y803398D02*
X694853Y812287D01*
X692186Y806732D01*
X692186Y805621D01*
X695742Y805621D01*
G54D14*
X699209Y803398D02*
X698853Y803398D01*
X698853Y803843D01*
X699209Y803843D01*
X699209Y803398D01*
X698853Y803398D01*
G54D14*
X702320Y812287D02*
X705876Y812287D01*
X705431Y811176D01*
X704542Y809510D01*
X703653Y807287D01*
X703209Y805621D01*
X703209Y803398D01*
G54D14*
X708987Y803398D02*
X708987Y812287D01*
G54D14*
X710320Y806732D02*
X711654Y803398D01*
G54D14*
X708987Y805621D02*
X711654Y808398D01*
G54D10*
X603250Y752350D02*
X604838Y752350D01*
X604838Y731712D01*
X603250Y731712D01*
G54D10*
X584200Y752350D02*
X582612Y752350D01*
X582612Y731712D01*
X584200Y731712D01*
G54D11*
X613620Y755550D02*
X613086Y754217D01*
X612020Y753550D01*
X610953Y753550D01*
X609886Y754217D01*
X609353Y755550D01*
X609353Y762217D01*
X609886Y763550D01*
X610953Y764217D01*
X612020Y764217D01*
X613086Y763550D01*
X613620Y762217D01*
G54D11*
X620553Y753550D02*
X620553Y764217D01*
X617353Y757550D01*
X617353Y756217D01*
X621620Y756217D01*
G54D14*
X609406Y747603D02*
X611628Y750936D01*
X611628Y742047D01*
G54D14*
X614739Y742047D02*
X614739Y747047D01*
G54D14*
X614739Y745936D02*
X615183Y746714D01*
X616072Y747047D01*
X616961Y746714D01*
X617406Y745936D01*
X617406Y742047D01*
G54D10*
X603250Y657100D02*
X604838Y657100D01*
X604838Y636462D01*
X603250Y636462D01*
G54D10*
X584200Y657100D02*
X582612Y657100D01*
X582612Y636462D01*
X584200Y636462D01*
G54D11*
X550120Y599976D02*
X549586Y598642D01*
X548520Y597976D01*
X547453Y597976D01*
X546386Y598642D01*
X545853Y599976D01*
X545853Y606642D01*
X546386Y607976D01*
X547453Y608642D01*
X548520Y608642D01*
X549586Y607976D01*
X550120Y606642D01*
G54D11*
X556520Y603309D02*
X555453Y603309D01*
X554386Y603976D01*
X553853Y605309D01*
X553853Y606642D01*
X554386Y607976D01*
X555453Y608642D01*
X556520Y608642D01*
X557586Y607976D01*
X558120Y606642D01*
X558120Y605309D01*
X557586Y603976D01*
X556520Y603309D01*
X557586Y602642D01*
X558120Y601309D01*
X558120Y599976D01*
X557586Y598642D01*
X556520Y597976D01*
X555453Y597976D01*
X554386Y598642D01*
X553853Y599976D01*
X553853Y601309D01*
X554386Y602642D01*
X555453Y603309D01*
G54D14*
X561781Y603458D02*
X564003Y606791D01*
X564003Y597902D01*
G54D14*
X567114Y597902D02*
X567114Y602902D01*
G54D14*
X567114Y601791D02*
X567558Y602569D01*
X568447Y602902D01*
X569336Y602569D01*
X569781Y601791D01*
X569781Y597902D01*
G54D10*
X736600Y752350D02*
X738188Y752350D01*
X738188Y731712D01*
X736600Y731712D01*
G54D10*
X717550Y752350D02*
X715962Y752350D01*
X715962Y731712D01*
X717550Y731712D01*
G54D11*
X699345Y755550D02*
X698811Y754217D01*
X697745Y753550D01*
X696678Y753550D01*
X695611Y754217D01*
X695078Y755550D01*
X695078Y762217D01*
X695611Y763550D01*
X696678Y764217D01*
X697745Y764217D01*
X698811Y763550D01*
X699345Y762217D01*
G54D11*
X703078Y760217D02*
X705745Y764217D01*
X705745Y753550D01*
G54D11*
X713745Y764217D02*
X709478Y764217D01*
X709478Y759550D01*
X710011Y759550D01*
X711078Y760217D01*
X712145Y760217D01*
X713211Y759550D01*
X713745Y758217D01*
X713745Y755550D01*
X713211Y754217D01*
X712145Y753550D01*
X711078Y753550D01*
X710011Y754217D01*
X709478Y755550D01*
G54D14*
X704656Y747603D02*
X706878Y750936D01*
X706878Y742047D01*
G54D14*
X709989Y742047D02*
X709989Y747047D01*
G54D14*
X709989Y745936D02*
X710433Y746714D01*
X711322Y747047D01*
X712211Y746714D01*
X712656Y745936D01*
X712656Y742047D01*
G54D10*
X736600Y657100D02*
X738188Y657100D01*
X738188Y636462D01*
X736600Y636462D01*
G54D10*
X717550Y657100D02*
X715962Y657100D01*
X715962Y636462D01*
X717550Y636462D01*
G54D11*
X721570Y619026D02*
X721036Y617692D01*
X719970Y617026D01*
X718903Y617026D01*
X717836Y617692D01*
X717303Y619026D01*
X717303Y625692D01*
X717836Y627026D01*
X718903Y627692D01*
X719970Y627692D01*
X721036Y627026D01*
X721570Y625692D01*
G54D11*
X725303Y623692D02*
X727970Y627692D01*
X727970Y617026D01*
G54D11*
X731703Y623692D02*
X734370Y627692D01*
X734370Y617026D01*
G54D14*
X726881Y611078D02*
X729103Y614411D01*
X729103Y605522D01*
G54D14*
X732214Y605522D02*
X732214Y610522D01*
G54D14*
X732214Y609411D02*
X732658Y610189D01*
X733547Y610522D01*
X734436Y610189D01*
X734881Y609411D01*
X734881Y605522D01*
G54D10*
X670840Y625350D02*
X670840Y623762D01*
X650202Y623762D01*
X650202Y625350D01*
G54D10*
X670840Y644400D02*
X670840Y645988D01*
X650202Y645988D01*
X650202Y644400D01*
G54D11*
X618333Y638330D02*
X617799Y636997D01*
X616733Y636330D01*
X615666Y636330D01*
X614599Y636997D01*
X614066Y638330D01*
X614066Y644997D01*
X614599Y646330D01*
X615666Y646997D01*
X616733Y646997D01*
X617799Y646330D01*
X618333Y644997D01*
G54D11*
X622066Y646997D02*
X626333Y646997D01*
X625799Y645663D01*
X624733Y643663D01*
X623666Y640997D01*
X623133Y638997D01*
X623133Y636330D01*
G54D14*
X617558Y632483D02*
X617558Y626927D01*
X617114Y625816D01*
X616225Y625260D01*
X615336Y625260D01*
X614447Y625816D01*
X614002Y626927D01*
X614002Y632483D01*
X614447Y633594D01*
X615336Y634149D01*
X616225Y634149D01*
X617114Y633594D01*
X617558Y632483D01*
G54D14*
X621025Y625260D02*
X620670Y625260D01*
X620670Y625705D01*
X621025Y625705D01*
X621025Y625260D01*
X620670Y625260D01*
G54D14*
X624136Y630816D02*
X626359Y634149D01*
X626359Y625260D01*
G54D10*
X612775Y620587D02*
X612775Y622968D01*
X642144Y622968D01*
X642144Y620587D01*
G54D10*
X612775Y598362D02*
X612775Y595981D01*
X642144Y595981D01*
X642144Y598362D01*
G54D11*
X585938Y603016D02*
X587538Y601683D01*
X588072Y600350D01*
X588072Y597683D01*
G54D11*
X583805Y597683D02*
X583805Y608350D01*
X586472Y608350D01*
X587538Y607683D01*
X588072Y606350D01*
X588072Y605016D01*
X587538Y603683D01*
X586472Y603016D01*
X583805Y603016D01*
G54D11*
X596072Y597683D02*
X591805Y597683D01*
X591805Y598350D01*
X592338Y599683D01*
X595538Y603683D01*
X596072Y605016D01*
X596072Y606350D01*
X595538Y607683D01*
X594472Y608350D01*
X593405Y608350D01*
X592338Y607683D01*
X591805Y606350D01*
G54D11*
X599805Y604350D02*
X602472Y608350D01*
X602472Y597683D01*
G54D14*
X631576Y606081D02*
X631576Y602526D01*
X631021Y602526D01*
X629910Y602970D01*
X626576Y605637D01*
X625465Y606081D01*
X624354Y606081D01*
X623243Y605637D01*
X622688Y604748D01*
X622688Y603859D01*
X623243Y602970D01*
X624354Y602526D01*
G54D14*
X631576Y612748D02*
X631576Y609193D01*
X631021Y609193D01*
X629910Y609637D01*
X626576Y612304D01*
X625465Y612748D01*
X624354Y612748D01*
X623243Y612304D01*
X622688Y611415D01*
X622688Y610526D01*
X623243Y609637D01*
X624354Y609193D01*
G54D14*
X631576Y615860D02*
X622688Y615860D01*
G54D14*
X628243Y617193D02*
X631576Y618526D01*
G54D14*
X629354Y615860D02*
X626576Y618526D01*
G54D10*
X673136Y620528D02*
X673136Y622910D01*
X702505Y622910D01*
X702505Y620528D01*
G54D10*
X673136Y598304D02*
X673136Y595922D01*
X702505Y595922D01*
X702505Y598304D01*
G54D11*
X695195Y631533D02*
X696795Y630199D01*
X697328Y628866D01*
X697328Y626199D01*
G54D11*
X693061Y626199D02*
X693061Y636866D01*
X695728Y636866D01*
X696795Y636199D01*
X697328Y634866D01*
X697328Y633533D01*
X696795Y632199D01*
X695728Y631533D01*
X693061Y631533D01*
G54D11*
X701061Y632866D02*
X703728Y636866D01*
X703728Y626199D01*
G54D11*
X707461Y628199D02*
X707995Y626866D01*
X709061Y626199D01*
X710128Y626199D01*
X711195Y626866D01*
X711728Y628199D01*
X711728Y631533D01*
X711728Y632199D01*
X710128Y630866D01*
X709061Y630866D01*
X707995Y631533D01*
X707461Y632866D01*
X707461Y634866D01*
X707995Y636199D01*
X709061Y636866D01*
X710128Y636866D01*
X711195Y636199D01*
X711728Y634866D01*
X711728Y631533D01*
G54D14*
X686382Y602467D02*
X683049Y604689D01*
X691938Y604689D01*
G54D14*
X684716Y611355D02*
X690271Y611355D01*
X691382Y610911D01*
X691938Y610022D01*
X691938Y609133D01*
X691382Y608244D01*
X690271Y607800D01*
X684716Y607800D01*
X683604Y608244D01*
X683049Y609133D01*
X683049Y610022D01*
X683604Y610911D01*
X684716Y611355D01*
G54D14*
X691938Y614467D02*
X683049Y614467D01*
G54D14*
X688604Y615800D02*
X691938Y617134D01*
G54D14*
X689716Y614467D02*
X686938Y617134D01*
G54D10*
X1001712Y158625D02*
X1004094Y158625D01*
X1004094Y129256D01*
X1001712Y129256D01*
G54D10*
X979487Y158625D02*
X977106Y158625D01*
X977106Y129256D01*
X979487Y129256D01*
G54D11*
X983126Y173335D02*
X984726Y172002D01*
X985260Y170668D01*
X985260Y168002D01*
G54D11*
X980993Y168002D02*
X980993Y178668D01*
X983660Y178668D01*
X984726Y178002D01*
X985260Y176668D01*
X985260Y175335D01*
X984726Y174002D01*
X983660Y173335D01*
X980993Y173335D01*
G54D11*
X993260Y168002D02*
X988993Y168002D01*
X988993Y168668D01*
X989526Y170002D01*
X992726Y174002D01*
X993260Y175335D01*
X993260Y176668D01*
X992726Y178002D01*
X991660Y178668D01*
X990593Y178668D01*
X989526Y178002D01*
X988993Y176668D01*
G54D11*
X996993Y176668D02*
X997526Y178002D01*
X998593Y178668D01*
X999660Y178668D01*
X1000726Y178002D01*
X1001260Y176668D01*
X1001260Y175335D01*
X1000726Y174002D01*
X999660Y173335D01*
X1000726Y172668D01*
X1001260Y171335D01*
X1001260Y170002D01*
X1000726Y168668D01*
X999660Y168002D01*
X998593Y168002D01*
X997526Y168668D01*
X996993Y170002D01*
G54D14*
X983778Y139824D02*
X983778Y148712D01*
X981111Y143157D01*
X981111Y142046D01*
X984667Y142046D01*
G54D14*
X988134Y139824D02*
X987778Y139824D01*
X987778Y140268D01*
X988134Y140268D01*
X988134Y139824D01*
X987778Y139824D01*
G54D14*
X991245Y148712D02*
X994801Y148712D01*
X994356Y147601D01*
X993467Y145935D01*
X992578Y143712D01*
X992134Y142046D01*
X992134Y139824D01*
G54D14*
X997912Y139824D02*
X997912Y148712D01*
G54D14*
X999245Y143157D02*
X1000579Y139824D01*
G54D14*
X997912Y142046D02*
X1000579Y144824D01*
G54D18*
X187649Y186620D02*
X189871Y189287D01*
X192093Y190176D01*
X196538Y190176D01*
G54D18*
X196538Y183064D02*
X178760Y183064D01*
X178760Y187509D01*
X179871Y189287D01*
X182093Y190176D01*
X184315Y190176D01*
X186538Y189287D01*
X187649Y187509D01*
X187649Y183064D01*
G54D18*
X195426Y201731D02*
X196538Y200309D01*
X196538Y198531D01*
X195426Y196753D01*
X193204Y196398D01*
X189426Y196398D01*
X187204Y197286D01*
X186538Y199064D01*
X187204Y200842D01*
X188760Y201731D01*
X190982Y201731D01*
X190982Y196398D01*
G54D18*
X186538Y207952D02*
X196538Y211508D01*
X186538Y215064D01*
G54D18*
X196538Y221997D02*
X196538Y221286D01*
X195649Y221286D01*
X195649Y221997D01*
X196538Y221997D01*
X196538Y221286D01*
G54D18*
X196538Y228218D02*
X196538Y228930D01*
X195649Y228930D01*
X195649Y228218D01*
X196538Y228218D01*
G54D18*
X183204Y228930D02*
X183204Y228218D01*
X182315Y228218D01*
X182315Y228930D01*
X183204Y228930D01*
G54D18*
X185426Y241552D02*
X178760Y245996D01*
X196538Y245996D01*
G54D18*
X196538Y252929D02*
X196538Y252218D01*
X195649Y252218D01*
X195649Y252929D01*
X196538Y252929D01*
X196538Y252218D01*
G54D18*
X185426Y259150D02*
X178760Y263595D01*
X196538Y263595D01*
G54D18*
X178760Y278883D02*
X179871Y277105D01*
X182093Y276216D01*
X193204Y276216D01*
X195426Y277105D01*
X196538Y278883D01*
G54D18*
X196538Y292217D02*
X196538Y285106D01*
X195426Y285106D01*
X193204Y285994D01*
X186538Y291328D01*
X184315Y292217D01*
X182093Y292217D01*
X179871Y291328D01*
X178760Y289550D01*
X178760Y287772D01*
X179871Y285994D01*
X182093Y285106D01*
G54D18*
X193204Y298438D02*
X195426Y299327D01*
X196538Y301105D01*
X196538Y302883D01*
X195426Y304661D01*
X193204Y305550D01*
X187649Y305550D01*
X186538Y305550D01*
X188760Y302883D01*
X188760Y301105D01*
X187649Y299327D01*
X185426Y298438D01*
X182093Y298438D01*
X179871Y299327D01*
X178760Y301105D01*
X178760Y302883D01*
X179871Y304661D01*
X182093Y305550D01*
X187649Y305550D01*
G54D18*
X196538Y311772D02*
X178760Y318883D01*
G54D18*
X185426Y325104D02*
X178760Y329549D01*
X196538Y329549D01*
G54D18*
X182093Y342882D02*
X193204Y342882D01*
X195426Y341993D01*
X196538Y340215D01*
X196538Y338437D01*
X195426Y336659D01*
X193204Y335770D01*
X182093Y335770D01*
X179871Y336659D01*
X178760Y338437D01*
X178760Y340215D01*
X179871Y341993D01*
X182093Y342882D01*
G54D18*
X196538Y349104D02*
X178760Y356215D01*
G54D18*
X196538Y369548D02*
X196538Y362436D01*
X195426Y362436D01*
X193204Y363325D01*
X186538Y368659D01*
X184315Y369548D01*
X182093Y369548D01*
X179871Y368659D01*
X178760Y366881D01*
X178760Y365103D01*
X179871Y363325D01*
X182093Y362436D01*
G54D18*
X182093Y382881D02*
X193204Y382881D01*
X195426Y381992D01*
X196538Y380214D01*
X196538Y378436D01*
X195426Y376658D01*
X193204Y375770D01*
X182093Y375770D01*
X179871Y376658D01*
X178760Y378436D01*
X178760Y380214D01*
X179871Y381992D01*
X182093Y382881D01*
G54D18*
X185426Y389102D02*
X178760Y393547D01*
X196538Y393547D01*
G54D18*
X187649Y404213D02*
X187649Y402435D01*
X186538Y400657D01*
X184315Y399768D01*
X182093Y399768D01*
X179871Y400657D01*
X178760Y402435D01*
X178760Y404213D01*
X179871Y405991D01*
X182093Y406880D01*
X184315Y406880D01*
X186538Y405991D01*
X187649Y404213D01*
X188760Y405991D01*
X190982Y406880D01*
X193204Y406880D01*
X195426Y405991D01*
X196538Y404213D01*
X196538Y402435D01*
X195426Y400657D01*
X193204Y399768D01*
X190982Y399768D01*
X188760Y400657D01*
X187649Y402435D01*
G54D18*
X178760Y413102D02*
X179871Y414879D01*
X182093Y415768D01*
X193204Y415768D01*
X195426Y414879D01*
X196538Y413102D01*
G54D14*
X880218Y181102D02*
X880218Y189991D01*
G54D14*
X878440Y189991D02*
X881996Y189991D01*
G54D14*
X885107Y186102D02*
X888663Y181102D01*
G54D14*
X885107Y181102D02*
X888663Y186102D01*
G54D14*
X891774Y181102D02*
X891774Y189991D01*
X893996Y189991D01*
X894885Y189436D01*
X895330Y188325D01*
X895330Y182769D01*
X894885Y181658D01*
X893996Y181102D01*
X891774Y181102D01*
G54D14*
X880208Y160147D02*
X881542Y159036D01*
X881986Y157925D01*
X881986Y155702D01*
G54D14*
X878430Y155702D02*
X878430Y164591D01*
X880653Y164591D01*
X881542Y164036D01*
X881986Y162925D01*
X881986Y161814D01*
X881542Y160702D01*
X880653Y160147D01*
X878430Y160147D01*
G54D14*
X885098Y160702D02*
X888653Y155702D01*
G54D14*
X885098Y155702D02*
X888653Y160702D01*
G54D14*
X891764Y155702D02*
X891764Y164591D01*
X893987Y164591D01*
X894876Y164036D01*
X895320Y162925D01*
X895320Y157369D01*
X894876Y156258D01*
X893987Y155702D01*
X891764Y155702D01*
G54D14*
X878440Y134191D02*
X881996Y134191D01*
G54D14*
X880218Y136414D02*
X880218Y131969D01*
G54D14*
X888663Y139191D02*
X885107Y139191D01*
X885107Y135302D01*
X885551Y135302D01*
X886440Y135858D01*
X887329Y135858D01*
X888218Y135302D01*
X888663Y134191D01*
X888663Y131969D01*
X888218Y130858D01*
X887329Y130302D01*
X886440Y130302D01*
X885551Y130858D01*
X885107Y131969D01*
G54D14*
X891774Y130302D02*
X891774Y139191D01*
X893996Y139191D01*
X894885Y138636D01*
X895330Y137525D01*
X895330Y136414D01*
X894885Y135302D01*
X893996Y134747D01*
X894885Y134191D01*
X895330Y133080D01*
X895330Y131969D01*
X894885Y130858D01*
X893996Y130302D01*
X891774Y130302D01*
G54D14*
X891774Y134747D02*
X893996Y134747D01*
G54D14*
X880218Y109347D02*
X881996Y109347D01*
X881996Y106569D01*
X881551Y105458D01*
X880662Y104902D01*
X879773Y104902D01*
X878884Y105458D01*
X878440Y106569D01*
X878440Y112125D01*
X878884Y113236D01*
X879773Y113791D01*
X880662Y113791D01*
X881551Y113236D01*
X881996Y112125D01*
G54D14*
X885107Y104902D02*
X885107Y113791D01*
X888663Y104902D01*
X888663Y113791D01*
G54D14*
X891774Y104902D02*
X891774Y113791D01*
X893996Y113791D01*
X894885Y113236D01*
X895330Y112125D01*
X895330Y106569D01*
X894885Y105458D01*
X893996Y104902D01*
X891774Y104902D01*
G54D10*
X873125Y196725D02*
X873125Y98300D01*
X901700Y98300D01*
X901700Y196725D01*
X873125Y196725D01*
G54D11*
X873600Y211900D02*
X873600Y203234D01*
X874134Y201900D01*
X875200Y201234D01*
X876267Y201234D01*
X877334Y201900D01*
X877867Y203234D01*
X877867Y211900D01*
G54D11*
X881600Y201234D02*
X884267Y211900D01*
X886934Y201234D01*
G54D11*
X882667Y205234D02*
X885867Y205234D01*
G54D11*
X892800Y206567D02*
X894400Y205234D01*
X894933Y203900D01*
X894933Y201234D01*
G54D11*
X890666Y201234D02*
X890666Y211900D01*
X893333Y211900D01*
X894400Y211234D01*
X894933Y209900D01*
X894933Y208567D01*
X894400Y207234D01*
X893333Y206567D01*
X890666Y206567D01*
G54D11*
X900800Y201234D02*
X900800Y211900D01*
G54D11*
X898666Y211900D02*
X902933Y211900D01*
G54D10*
X876300Y457075D02*
X873125Y460250D01*
G54D10*
X828675Y492000D02*
X828675Y472950D01*
X854075Y472950D01*
X854075Y492000D01*
X828675Y492000D01*
G54D10*
X854075Y472950D02*
X869950Y472950D01*
X876300Y466600D01*
X876300Y457075D01*
G54D10*
X879475Y460250D02*
X876300Y457075D01*
G54D17*
X448817Y452550D02*
X447483Y449217D01*
X444817Y447550D01*
X442150Y447550D01*
X439483Y449217D01*
X438150Y452550D01*
X438150Y469217D01*
X439483Y472550D01*
X442150Y474217D01*
X444817Y474217D01*
X447483Y472550D01*
X448817Y469217D01*
G54D17*
X458150Y447550D02*
X458150Y450883D01*
X471483Y450883D01*
X471483Y447550D01*
G54D17*
X460817Y450883D02*
X460817Y469217D01*
X464817Y474217D01*
X468817Y474217D01*
X468817Y450883D01*
G54D17*
X490149Y447550D02*
X480816Y447550D01*
X480816Y474217D01*
X490149Y474217D01*
G54D17*
X480816Y460883D02*
X490149Y460883D01*
G54D17*
X499482Y447550D02*
X502149Y450883D01*
X502149Y470883D01*
X504815Y474217D01*
X510149Y474217D01*
X510149Y447550D01*
G54D17*
X519482Y447550D02*
X526149Y474217D01*
X532815Y447550D01*
G54D17*
X522149Y457550D02*
X530149Y457550D01*
G54D17*
X542148Y447550D02*
X542148Y474217D01*
G54D17*
X552815Y447550D02*
X552815Y474217D01*
G54D17*
X542148Y460883D02*
X552815Y460883D01*
G54D17*
X572815Y469217D02*
X572815Y452550D01*
X571481Y449217D01*
X568815Y447550D01*
X566148Y447550D01*
X563481Y449217D01*
X562148Y452550D01*
X562148Y469217D01*
X563481Y472550D01*
X566148Y474217D01*
X568815Y474217D01*
X571481Y472550D01*
X572815Y469217D01*
G54D17*
X591748Y447550D02*
X591748Y474217D01*
X598415Y474217D01*
X601081Y472550D01*
X602415Y469217D01*
X602415Y465883D01*
X601081Y462550D01*
X598415Y460883D01*
X601081Y459217D01*
X602415Y455883D01*
X602415Y452550D01*
X601081Y449217D01*
X598415Y447550D01*
X591748Y447550D01*
G54D17*
X591748Y460883D02*
X598415Y460883D01*
G54D17*
X621348Y447550D02*
X621348Y474217D01*
X628015Y474217D01*
X630681Y472550D01*
X632015Y469217D01*
X632015Y465883D01*
X630681Y462550D01*
X628015Y460883D01*
X621348Y460883D01*
G54D17*
X652015Y469217D02*
X652015Y452550D01*
X650681Y449217D01*
X648015Y447550D01*
X645348Y447550D01*
X642681Y449217D01*
X641348Y452550D01*
X641348Y469217D01*
X642681Y472550D01*
X645348Y474217D01*
X648015Y474217D01*
X650681Y472550D01*
X652015Y469217D01*
G54D17*
X672015Y452550D02*
X670681Y449217D01*
X668015Y447550D01*
X665348Y447550D01*
X662681Y449217D01*
X661348Y452550D01*
X661348Y469217D01*
X662681Y472550D01*
X665348Y474217D01*
X668015Y474217D01*
X670681Y472550D01*
X672015Y469217D01*
G54D17*
X692015Y452550D02*
X690681Y449217D01*
X688015Y447550D01*
X685348Y447550D01*
X682681Y449217D01*
X681348Y452550D01*
X681348Y469217D01*
X682681Y472550D01*
X685348Y474217D01*
X688015Y474217D01*
X690681Y472550D01*
X692015Y469217D01*
G54D17*
X701348Y474217D02*
X701348Y447550D01*
X712015Y474217D01*
X712015Y447550D01*
G54D17*
X721348Y474217D02*
X721348Y447550D01*
X732015Y474217D01*
X732015Y447550D01*
M02*
