%FSLAX34Y34*%
%MOMM*%
%LNSOLDERMASK_BOTTOM*%
G71*
G01*
%ADD10C, 4.300*%
%ADD11C, 2.700*%
%ADD12C, 2.600*%
%ADD13C, 2.800*%
%ADD14C, 2.200*%
%ADD15C, 2.600*%
%ADD16C, 4.400*%
%ADD17C, 3.600*%
%ADD18C, 2.760*%
%ADD19C, 2.000*%
%ADD20C, 0.835*%
%ADD21C, 0.597*%
%ADD22C, 0.518*%
%ADD23C, 6.600*%
%LPD*%
X431800Y384050D02*
G54D10*
D03*
X431800Y307850D02*
G54D10*
D03*
X254000Y282450D02*
G54D10*
D03*
X342900Y130050D02*
G54D10*
D03*
X393700Y155450D02*
G54D11*
D03*
X292100Y155450D02*
G54D11*
D03*
X311150Y857125D02*
G54D12*
D03*
X336550Y857125D02*
G54D12*
D03*
X361950Y857125D02*
G54D12*
D03*
X279400Y796800D02*
G54D13*
D03*
X279400Y517400D02*
G54D13*
D03*
X485775Y796800D02*
G54D13*
D03*
X485775Y517400D02*
G54D13*
D03*
X822325Y796800D02*
G54D13*
D03*
X822325Y517400D02*
G54D13*
D03*
X1028700Y796800D02*
G54D13*
D03*
X1028700Y517400D02*
G54D13*
D03*
X517525Y857125D02*
G54D12*
D03*
X542925Y857125D02*
G54D12*
D03*
X568325Y857125D02*
G54D12*
D03*
X739775Y857125D02*
G54D12*
D03*
X765175Y857125D02*
G54D12*
D03*
X790575Y857125D02*
G54D12*
D03*
X946150Y857125D02*
G54D12*
D03*
X971550Y857125D02*
G54D12*
D03*
X996950Y857125D02*
G54D12*
D03*
X1108075Y787275D02*
G54D14*
D03*
X1120775Y768225D02*
G54D14*
D03*
X1108075Y749175D02*
G54D14*
D03*
G36*
X1125425Y468300D02*
X1103425Y468300D01*
X1103425Y490300D01*
X1125425Y490300D01*
X1125425Y468300D01*
G37*
X1092200Y479300D02*
G54D14*
D03*
G36*
X568025Y581200D02*
X594025Y581200D01*
X594025Y555200D01*
X568025Y555200D01*
X568025Y581200D01*
G37*
X606425Y568200D02*
G54D15*
D03*
X631825Y568200D02*
G54D15*
D03*
X517525Y193550D02*
G54D16*
D03*
X612525Y193550D02*
G54D16*
D03*
X707525Y193550D02*
G54D16*
D03*
G36*
X505875Y404350D02*
X541875Y404350D01*
X541875Y338350D01*
X505875Y338350D01*
X505875Y404350D01*
G37*
G36*
X735875Y404350D02*
X771875Y404350D01*
X771875Y338350D01*
X735875Y338350D01*
X735875Y404350D01*
G37*
X815975Y218950D02*
G54D12*
D03*
X815975Y193550D02*
G54D12*
D03*
X815975Y168150D02*
G54D12*
D03*
X873125Y193550D02*
G54D17*
D03*
X625475Y298325D02*
G54D18*
D03*
X523875Y298325D02*
G54D18*
D03*
G36*
X1076025Y362125D02*
X1102025Y362125D01*
X1102025Y336125D01*
X1076025Y336125D01*
X1076025Y362125D01*
G37*
X1114025Y349125D02*
G54D15*
D03*
G36*
X1076025Y431975D02*
X1102025Y431975D01*
X1102025Y405975D01*
X1076025Y405975D01*
X1076025Y431975D01*
G37*
X1114025Y418975D02*
G54D15*
D03*
G36*
X1076025Y292275D02*
X1102025Y292275D01*
X1102025Y266275D01*
X1076025Y266275D01*
X1076025Y292275D01*
G37*
X1114025Y279275D02*
G54D15*
D03*
G36*
X703150Y588725D02*
X703150Y566725D01*
X681150Y566725D01*
X681150Y588725D01*
X703150Y588725D01*
G37*
X692150Y555500D02*
G54D14*
D03*
X1042988Y453900D02*
G54D19*
D03*
X1030288Y466600D02*
G54D19*
D03*
X1042988Y479300D02*
G54D19*
D03*
G36*
X982550Y483950D02*
X982550Y461950D01*
X960550Y461950D01*
X960550Y483950D01*
X982550Y483950D01*
G37*
X971550Y450725D02*
G54D14*
D03*
G36*
X1104600Y650450D02*
X1104600Y676450D01*
X1130600Y676450D01*
X1130600Y650450D01*
X1104600Y650450D01*
G37*
X1117600Y688850D02*
G54D15*
D03*
X1117600Y714250D02*
G54D15*
D03*
G36*
X920450Y94825D02*
X920450Y120825D01*
X946450Y120825D01*
X946450Y94825D01*
X920450Y94825D01*
G37*
X933450Y133225D02*
G54D15*
D03*
X933450Y158625D02*
G54D15*
D03*
X933450Y184025D02*
G54D15*
D03*
G36*
X1130600Y158325D02*
X1104600Y158325D01*
X1104600Y184325D01*
X1130600Y184325D01*
X1130600Y158325D01*
G37*
X1092200Y171325D02*
G54D12*
D03*
X1117600Y196725D02*
G54D12*
D03*
X1092200Y196725D02*
G54D12*
D03*
X1117600Y222125D02*
G54D12*
D03*
X1092200Y222125D02*
G54D12*
D03*
G36*
X1018875Y94825D02*
X1018875Y120825D01*
X1044875Y120825D01*
X1044875Y94825D01*
X1018875Y94825D01*
G37*
X1031875Y133225D02*
G54D15*
D03*
X1031875Y158625D02*
G54D15*
D03*
X1031875Y184025D02*
G54D15*
D03*
G54D20*
X973156Y642100D02*
X985600Y642100D01*
X985600Y677656D01*
X973156Y677656D01*
G54D20*
X985600Y659878D02*
X973156Y659878D01*
G54D20*
X960712Y677656D02*
X960712Y642100D01*
X948268Y642100D01*
G54D20*
X921602Y670989D02*
X921602Y648767D01*
X923380Y644322D01*
X926935Y642100D01*
X930491Y642100D01*
X934046Y644322D01*
X935824Y648767D01*
X935824Y670989D01*
X934046Y675433D01*
X930491Y677656D01*
X926935Y677656D01*
X923380Y675433D01*
X921602Y670989D01*
G54D20*
X909158Y642100D02*
X900269Y677656D01*
X891380Y642100D01*
G54D20*
X905602Y655433D02*
X894936Y655433D01*
G54D20*
X878936Y642100D02*
X878936Y677656D01*
X870047Y677656D01*
X866492Y675433D01*
X864714Y670989D01*
X864714Y648767D01*
X866492Y644322D01*
X870047Y642100D01*
X878936Y642100D01*
G54D21*
X405753Y648450D02*
X405753Y669283D01*
X404642Y670672D01*
X403530Y669839D01*
G54D21*
X407975Y660950D02*
X403530Y660950D01*
G54D21*
X395753Y648450D02*
X395753Y670672D01*
G54D21*
X387975Y660950D02*
X383530Y648450D01*
X379086Y660950D01*
G54D21*
X383530Y648450D02*
X384642Y644283D01*
X385753Y642894D01*
X386864Y642894D01*
G54D21*
X365752Y659561D02*
X367975Y659561D01*
X370197Y660950D01*
X371308Y663728D01*
X371308Y666506D01*
X370197Y669283D01*
X367975Y670672D01*
X365752Y670672D01*
X363530Y669283D01*
X362419Y666506D01*
X362419Y663728D01*
X363530Y660950D01*
X365752Y659561D01*
X363530Y658172D01*
X362419Y655394D01*
X362419Y652617D01*
X363530Y649839D01*
X365752Y648450D01*
X367975Y648450D01*
X370197Y649839D01*
X371308Y652617D01*
X371308Y655394D01*
X370197Y658172D01*
X367975Y659561D01*
G54D21*
X354641Y648450D02*
X354641Y660950D01*
G54D21*
X354641Y658172D02*
X352419Y660950D01*
X350196Y660950D01*
G54D22*
X442900Y627811D02*
X438456Y634478D01*
X438456Y616700D01*
G54D22*
X425123Y631144D02*
X425123Y620033D01*
X426012Y617811D01*
X427790Y616700D01*
X429567Y616700D01*
X431345Y617811D01*
X432234Y620033D01*
X432234Y631144D01*
X431345Y633367D01*
X429567Y634478D01*
X427790Y634478D01*
X426012Y633367D01*
X425123Y631144D01*
G54D22*
X418901Y616700D02*
X411790Y634478D01*
G54D22*
X405568Y627811D02*
X401124Y634478D01*
X401124Y616700D01*
G54D22*
X387791Y631144D02*
X387791Y620033D01*
X388680Y617811D01*
X390458Y616700D01*
X392235Y616700D01*
X394013Y617811D01*
X394902Y620033D01*
X394902Y631144D01*
X394013Y633367D01*
X392235Y634478D01*
X390458Y634478D01*
X388680Y633367D01*
X387791Y631144D01*
G54D22*
X381569Y616700D02*
X374458Y634478D01*
G54D22*
X361125Y616700D02*
X368236Y616700D01*
X368236Y617811D01*
X367347Y620033D01*
X362014Y626700D01*
X361125Y628922D01*
X361125Y631144D01*
X362014Y633367D01*
X363792Y634478D01*
X365569Y634478D01*
X367347Y633367D01*
X368236Y631144D01*
G54D22*
X347792Y631144D02*
X347792Y620033D01*
X348681Y617811D01*
X350458Y616700D01*
X352236Y616700D01*
X354014Y617811D01*
X354903Y620033D01*
X354903Y631144D01*
X354014Y633367D01*
X352236Y634478D01*
X350458Y634478D01*
X348681Y633367D01*
X347792Y631144D01*
G54D22*
X341570Y627811D02*
X337126Y634478D01*
X337126Y616700D01*
G54D22*
X326460Y625589D02*
X328237Y625589D01*
X330015Y626700D01*
X330904Y628922D01*
X330904Y631144D01*
X330015Y633367D01*
X328237Y634478D01*
X326460Y634478D01*
X324682Y633367D01*
X323793Y631144D01*
X323793Y628922D01*
X324682Y626700D01*
X326460Y625589D01*
X324682Y624478D01*
X323793Y622256D01*
X323793Y620033D01*
X324682Y617811D01*
X326460Y616700D01*
X328237Y616700D01*
X330015Y617811D01*
X330904Y620033D01*
X330904Y622256D01*
X330015Y624478D01*
X328237Y625589D01*
X195000Y845000D02*
G54D23*
D03*
X195000Y115000D02*
G54D23*
D03*
X1110000Y115000D02*
G54D23*
D03*
X1110000Y845000D02*
G54D23*
D03*
M02*
