%FSLAX34Y34*%
%MOMM*%
%LNOUTLINE*%
G71*
G01*
%ADD10C, 0.200*%
%LPD*%
G54D10*
X160000Y880000D02*
X1145000Y880000D01*
X1145000Y80000D01*
X160000Y80000D01*
X160000Y880000D01*
G54D10*
G75*
G01X210000Y115000D02*
G03X210000Y115000I-15000J0D01*
G01*
G54D10*
X865000Y255000D02*
X895000Y255000D01*
G54D10*
X865000Y245000D02*
X895000Y245000D01*
G54D10*
G75*
G01X895000Y245000D02*
G03X895000Y255000I0J5000D01*
G01*
G54D10*
G75*
G01X865015Y255000D02*
G03X865015Y245000I0J-5000D01*
G01*
G54D10*
X865000Y140000D02*
X895000Y140000D01*
G54D10*
X865000Y130000D02*
X895000Y130000D01*
G54D10*
G75*
G01X895000Y130000D02*
G03X895000Y140000I0J5000D01*
G01*
G54D10*
G75*
G01X865015Y140000D02*
G03X865015Y130000I0J-5000D01*
G01*
G54D10*
X800000Y255000D02*
X830000Y255000D01*
G54D10*
X800000Y245000D02*
X830000Y245000D01*
G54D10*
G75*
G01X830000Y245000D02*
G03X830000Y255000I0J5000D01*
G01*
G54D10*
G75*
G01X800015Y255000D02*
G03X800015Y245000I0J-5000D01*
G01*
G54D10*
X800000Y140000D02*
X830000Y140000D01*
G54D10*
X800000Y130000D02*
X830000Y130000D01*
G54D10*
G75*
G01X830000Y130000D02*
G03X830000Y140000I0J5000D01*
G01*
G54D10*
G75*
G01X800015Y140000D02*
G03X800015Y130000I0J-5000D01*
G01*
G54D10*
X865000Y230000D02*
X895000Y230000D01*
G54D10*
X865000Y220000D02*
X895000Y220000D01*
G54D10*
G75*
G01X895000Y220000D02*
G03X895000Y230000I0J5000D01*
G01*
G54D10*
G75*
G01X865015Y230000D02*
G03X865015Y220000I0J-5000D01*
G01*
G54D10*
X865000Y165000D02*
X895000Y165000D01*
G54D10*
X865000Y155000D02*
X895000Y155000D01*
G54D10*
G75*
G01X895000Y155000D02*
G03X895000Y165000I0J5000D01*
G01*
G54D10*
G75*
G01X865015Y165000D02*
G03X865015Y155000I0J-5000D01*
G01*
G54D10*
G75*
G01X260000Y715000D02*
G03X250000Y715000I-5000J0D01*
G01*
G54D10*
G75*
G01X250000Y570015D02*
G03X260000Y570015I5000J0D01*
G01*
G54D10*
X250000Y715000D02*
X250000Y570015D01*
G54D10*
X260000Y715000D02*
X260000Y570015D01*
G54D10*
G75*
G01X285000Y715000D02*
G03X275000Y715000I-5000J0D01*
G01*
G54D10*
G75*
G01X275000Y570015D02*
G03X285000Y570015I5000J0D01*
G01*
G54D10*
X275000Y715000D02*
X275000Y570015D01*
G54D10*
X285000Y715000D02*
X285000Y570015D01*
G54D10*
G75*
G01X310000Y715000D02*
G03X300000Y715000I-5000J0D01*
G01*
G54D10*
G75*
G01X300000Y570015D02*
G03X310000Y570015I5000J0D01*
G01*
G54D10*
X300000Y715000D02*
X300000Y570015D01*
G54D10*
X310000Y715000D02*
X310000Y570015D01*
G54D10*
G75*
G01X490000Y715000D02*
G03X480000Y715000I-5000J0D01*
G01*
G54D10*
G75*
G01X480000Y570015D02*
G03X490000Y570015I5000J0D01*
G01*
G54D10*
X480000Y715000D02*
X480000Y570015D01*
G54D10*
X490000Y715000D02*
X490000Y570015D01*
G54D10*
G75*
G01X515000Y715000D02*
G03X505000Y715000I-5000J0D01*
G01*
G54D10*
G75*
G01X505000Y570015D02*
G03X515000Y570015I5000J0D01*
G01*
G54D10*
X505000Y715000D02*
X505000Y570015D01*
G54D10*
X515000Y715000D02*
X515000Y570015D01*
G54D10*
G75*
G01X465000Y715000D02*
G03X455000Y715000I-5000J0D01*
G01*
G54D10*
G75*
G01X455000Y570015D02*
G03X465000Y570015I5000J0D01*
G01*
G54D10*
X455000Y715000D02*
X455000Y570015D01*
G54D10*
X465000Y715000D02*
X465000Y570015D01*
G54D10*
G75*
G01X825000Y720000D02*
G03X815000Y720000I-5000J0D01*
G01*
G54D10*
G75*
G01X815000Y635015D02*
G03X825000Y635015I5000J0D01*
G01*
G54D10*
X815000Y720000D02*
X815000Y635015D01*
G54D10*
X825000Y720000D02*
X825000Y635015D01*
G54D10*
G75*
G01X850000Y720000D02*
G03X840000Y720000I-5000J0D01*
G01*
G54D10*
G75*
G01X840000Y635015D02*
G03X850000Y635015I5000J0D01*
G01*
G54D10*
X840000Y720000D02*
X840000Y635015D01*
G54D10*
X850000Y720000D02*
X850000Y635015D01*
G54D10*
G75*
G01X1035000Y675000D02*
G03X1025000Y675000I-5000J0D01*
G01*
G54D10*
G75*
G01X1025000Y635015D02*
G03X1035000Y635015I5000J0D01*
G01*
G54D10*
X1025000Y675000D02*
X1025000Y635015D01*
G54D10*
X1035000Y675000D02*
X1035000Y635015D01*
G54D10*
G75*
G01X1010000Y675000D02*
G03X1000000Y675000I-5000J0D01*
G01*
G54D10*
G75*
G01X1000000Y635015D02*
G03X1010000Y635015I5000J0D01*
G01*
G54D10*
X1000000Y675000D02*
X1000000Y635015D01*
G54D10*
X1010000Y675000D02*
X1010000Y635015D01*
G54D10*
G75*
G01X1060000Y675000D02*
G03X1050000Y675000I-5000J0D01*
G01*
G54D10*
G75*
G01X1050000Y635015D02*
G03X1060000Y635015I5000J0D01*
G01*
G54D10*
X1050000Y675000D02*
X1050000Y635015D01*
G54D10*
X1060000Y675000D02*
X1060000Y635015D01*
G54D10*
G75*
G01X1055000Y570000D02*
G03X1055000Y580000I0J5000D01*
G01*
G54D10*
G75*
G01X1005016Y580000D02*
G03X1005016Y570000I0J-5000D01*
G01*
G54D10*
X1055000Y580000D02*
X1005016Y580000D01*
G54D10*
X1055000Y570000D02*
X1005016Y570000D01*
G54D10*
G75*
G01X1055000Y595000D02*
G03X1055000Y605000I0J5000D01*
G01*
G54D10*
G75*
G01X1005016Y605000D02*
G03X1005016Y595000I0J-5000D01*
G01*
G54D10*
X1055000Y605000D02*
X1005016Y605000D01*
G54D10*
X1055000Y595000D02*
X1005016Y595000D01*
G54D10*
G75*
G01X850000Y595000D02*
G03X850000Y605000I0J5000D01*
G01*
G54D10*
G75*
G01X800016Y605000D02*
G03X800016Y595000I0J-5000D01*
G01*
G54D10*
X850000Y605000D02*
X800016Y605000D01*
G54D10*
X850000Y595000D02*
X800016Y595000D01*
G54D10*
G75*
G01X850000Y570000D02*
G03X850000Y580000I0J5000D01*
G01*
G54D10*
G75*
G01X800016Y580000D02*
G03X800016Y570000I0J-5000D01*
G01*
G54D10*
X850000Y580000D02*
X800016Y580000D01*
G54D10*
X850000Y570000D02*
X800016Y570000D01*
M02*
