%FSLAX34Y34*%
%MOMM*%
%LNSMDMASK_TOP*%
G71*
G01*
%ADD10R, 2.400X0.800*%
%ADD11R, 1.000X1.600*%
%ADD12R, 2.400X1.600*%
%ADD13R, 1.200X1.500*%
%ADD14R, 0.500X1.000*%
%ADD15R, 1.000X0.500*%
%ADD16R, 1.500X1.200*%
%ADD17R, 1.100X1.400*%
%ADD18R, 1.100X1.100*%
%ADD19R, 1.000X1.020*%
%ADD20R, 0.800X2.400*%
%ADD21R, 1.700X1.800*%
%ADD22R, 1.800X1.500*%
%ADD23R, 1.500X1.800*%
%LPD*%
X635000Y733300D02*
G54D10*
D03*
X635000Y720600D02*
G54D10*
D03*
X635000Y707900D02*
G54D10*
D03*
X635000Y695200D02*
G54D10*
D03*
X635000Y682500D02*
G54D10*
D03*
X635000Y669800D02*
G54D10*
D03*
X635000Y657100D02*
G54D10*
D03*
X685000Y657100D02*
G54D10*
D03*
X685000Y669800D02*
G54D10*
D03*
X685000Y682500D02*
G54D10*
D03*
X685000Y695200D02*
G54D10*
D03*
X685000Y707900D02*
G54D10*
D03*
X685000Y720600D02*
G54D10*
D03*
X685000Y733300D02*
G54D10*
D03*
X733425Y549150D02*
G54D11*
D03*
X748525Y549150D02*
G54D11*
D03*
X763625Y549150D02*
G54D11*
D03*
X748525Y588050D02*
G54D12*
D03*
X1092200Y517400D02*
G54D13*
D03*
X1112800Y517400D02*
G54D13*
D03*
X933450Y272925D02*
G54D14*
D03*
X941450Y272925D02*
G54D14*
D03*
X949450Y272925D02*
G54D14*
D03*
X957450Y272925D02*
G54D14*
D03*
X965450Y272925D02*
G54D14*
D03*
X973450Y272925D02*
G54D14*
D03*
X981450Y272925D02*
G54D14*
D03*
X989450Y272925D02*
G54D14*
D03*
X933450Y360925D02*
G54D14*
D03*
X941450Y360925D02*
G54D14*
D03*
X949450Y360925D02*
G54D14*
D03*
X957450Y360925D02*
G54D14*
D03*
X965450Y360925D02*
G54D14*
D03*
X973450Y360925D02*
G54D14*
D03*
X981450Y360925D02*
G54D14*
D03*
X989450Y360925D02*
G54D14*
D03*
X1005450Y288925D02*
G54D15*
D03*
X1005450Y296925D02*
G54D15*
D03*
X1005450Y304925D02*
G54D15*
D03*
X1005450Y312925D02*
G54D15*
D03*
X1005450Y320925D02*
G54D15*
D03*
X1005450Y328925D02*
G54D15*
D03*
X1005450Y336925D02*
G54D15*
D03*
X1005450Y344925D02*
G54D15*
D03*
X917450Y288925D02*
G54D15*
D03*
X917450Y296925D02*
G54D15*
D03*
X917450Y304925D02*
G54D15*
D03*
X917450Y312925D02*
G54D15*
D03*
X917450Y320925D02*
G54D15*
D03*
X917450Y328925D02*
G54D15*
D03*
X917450Y336925D02*
G54D15*
D03*
X917450Y344925D02*
G54D15*
D03*
X1063625Y458345D02*
G54D16*
D03*
X1063625Y478945D02*
G54D16*
D03*
X1009650Y472950D02*
G54D16*
D03*
X1009650Y452350D02*
G54D16*
D03*
X950912Y250700D02*
G54D17*
D03*
X971512Y250700D02*
G54D17*
D03*
X958850Y380875D02*
G54D17*
D03*
X979450Y380875D02*
G54D17*
D03*
X834813Y442943D02*
G54D18*
D03*
X834813Y423943D02*
G54D18*
D03*
X812613Y433443D02*
G54D18*
D03*
X371475Y431675D02*
G54D19*
D03*
X336575Y431675D02*
G54D19*
D03*
X1095375Y584875D02*
G54D20*
D03*
X1108075Y584875D02*
G54D20*
D03*
X1120775Y584875D02*
G54D20*
D03*
X1133475Y584875D02*
G54D20*
D03*
X1133475Y634875D02*
G54D20*
D03*
X1120775Y634875D02*
G54D20*
D03*
X1108075Y634875D02*
G54D20*
D03*
X1095375Y634875D02*
G54D20*
D03*
X1012825Y415800D02*
G54D21*
D03*
X971550Y415800D02*
G54D21*
D03*
X878522Y482475D02*
G54D13*
D03*
X899122Y482475D02*
G54D13*
D03*
X889000Y447550D02*
G54D22*
D03*
X889000Y418182D02*
G54D22*
D03*
X917575Y447550D02*
G54D22*
D03*
X917575Y418182D02*
G54D22*
D03*
X889000Y384050D02*
G54D22*
D03*
X889000Y354682D02*
G54D22*
D03*
X889000Y312650D02*
G54D16*
D03*
X889000Y333250D02*
G54D16*
D03*
X860425Y384050D02*
G54D22*
D03*
X860425Y354682D02*
G54D22*
D03*
X860425Y447550D02*
G54D22*
D03*
X860425Y418182D02*
G54D22*
D03*
X1003300Y250700D02*
G54D22*
D03*
X1003300Y221332D02*
G54D22*
D03*
X1044575Y276100D02*
G54D22*
D03*
X1044575Y246732D02*
G54D22*
D03*
X1044634Y346779D02*
G54D22*
D03*
X1044634Y317411D02*
G54D22*
D03*
X1044575Y418975D02*
G54D22*
D03*
X1044575Y389607D02*
G54D22*
D03*
X1098550Y555500D02*
G54D23*
D03*
X1127918Y555500D02*
G54D23*
D03*
X898525Y822200D02*
G54D22*
D03*
X898525Y792832D02*
G54D22*
D03*
X946186Y796741D02*
G54D23*
D03*
X975554Y796741D02*
G54D23*
D03*
X765175Y796800D02*
G54D23*
D03*
X794543Y796800D02*
G54D23*
D03*
X739775Y822200D02*
G54D22*
D03*
X739775Y792832D02*
G54D22*
D03*
X587375Y822200D02*
G54D22*
D03*
X587375Y792832D02*
G54D22*
D03*
X530262Y796741D02*
G54D23*
D03*
X559629Y796741D02*
G54D23*
D03*
X327061Y796741D02*
G54D23*
D03*
X356429Y796741D02*
G54D23*
D03*
X390525Y822200D02*
G54D22*
D03*
X390525Y792832D02*
G54D22*
D03*
X568266Y761839D02*
G54D22*
D03*
X568266Y732471D02*
G54D22*
D03*
X568325Y657100D02*
G54D22*
D03*
X568325Y627732D02*
G54D22*
D03*
X752475Y657100D02*
G54D22*
D03*
X752475Y627732D02*
G54D22*
D03*
X752416Y761839D02*
G54D22*
D03*
X752416Y732471D02*
G54D22*
D03*
X564321Y707959D02*
G54D23*
D03*
X593689Y707959D02*
G54D23*
D03*
X564321Y682559D02*
G54D23*
D03*
X593689Y682559D02*
G54D23*
D03*
X727111Y707841D02*
G54D23*
D03*
X756479Y707841D02*
G54D23*
D03*
X727111Y682441D02*
G54D23*
D03*
X756479Y682441D02*
G54D23*
D03*
X625475Y822200D02*
G54D22*
D03*
X625475Y792832D02*
G54D22*
D03*
X650875Y822200D02*
G54D22*
D03*
X650875Y792832D02*
G54D22*
D03*
X676275Y822200D02*
G54D22*
D03*
X676275Y792832D02*
G54D22*
D03*
X701675Y822200D02*
G54D22*
D03*
X701675Y792832D02*
G54D22*
D03*
X593725Y752350D02*
G54D16*
D03*
X593725Y731750D02*
G54D16*
D03*
X593725Y657100D02*
G54D16*
D03*
X593725Y636500D02*
G54D16*
D03*
X727075Y752350D02*
G54D16*
D03*
X727075Y731750D02*
G54D16*
D03*
X727075Y657100D02*
G54D16*
D03*
X727075Y636500D02*
G54D16*
D03*
X670840Y634875D02*
G54D13*
D03*
X650240Y634875D02*
G54D13*
D03*
X612775Y609475D02*
G54D23*
D03*
X642143Y609475D02*
G54D23*
D03*
X673136Y609416D02*
G54D23*
D03*
X702504Y609416D02*
G54D23*
D03*
X990600Y158625D02*
G54D22*
D03*
X990600Y129257D02*
G54D22*
D03*
M02*
