; Drill file
; Format: 3.3 (000.000)
M48
METRIC
T01C0.6
T02C0.8
T03C0.9
T04C1.0
T05C2.2
T06C3.2
T07C4.2
%
G05
G90
T01
X018880Y047940
X016340Y047940
T02
X120160Y049220
X120160Y055560
X110000Y055560
X110000Y049220
X049690Y017110
X046180Y020640
X042640Y017100
X046180Y013570
X035380Y028900
X025220Y028900
X025220Y044770
X025220Y054930
X018840Y054300
X016340Y054300
T03
X033160Y047310
X033160Y049850
X033160Y052390
T04
X108410Y012380
X102060Y012380
X117940Y035320
X117940Y040320
X033800Y016830
X026500Y016830
T05
X036970Y035880
X036970Y063820
T06
X118000Y012000
X118000Y064000
X017000Y064000
X017000Y012000
T07
X078870Y038000
M30
