%FSLAX34Y34*%
%MOMM*%
%LNCOPPER_BOTTOM*%
G71*
G01*
%ADD10C, 7.200*%
%ADD11C, 6.200*%
%ADD12C, 2.500*%
%ADD13C, 2.200*%
%ADD14C, 2.000*%
%ADD15C, 2.400*%
%ADD16C, 1.800*%
%ADD17C, 2.000*%
%ADD18C, 1.000*%
%ADD19C, 2.000*%
%ADD20C, 4.200*%
%ADD21C, 0.476*%
%ADD22C, 0.318*%
%LPD*%
X788725Y380000D02*
G54D10*
D03*
X1180000Y640000D02*
G54D11*
D03*
X1180000Y120000D02*
G54D11*
D03*
X170000Y120000D02*
G54D11*
D03*
X170000Y640000D02*
G54D11*
D03*
G36*
X1166850Y415750D02*
X1166850Y390750D01*
X1191850Y390750D01*
X1191850Y415750D01*
X1166850Y415750D01*
G37*
X1179350Y353250D02*
G54D12*
D03*
X1201575Y492150D02*
G54D13*
D03*
X1099975Y492150D02*
G54D13*
D03*
X1201575Y555650D02*
G54D14*
D03*
X1099975Y555650D02*
G54D14*
D03*
X1084100Y123850D02*
G54D12*
D03*
X1020600Y123850D02*
G54D12*
D03*
X461800Y206400D02*
G54D14*
D03*
G36*
X412302Y171045D02*
X426445Y156902D01*
X440587Y171045D01*
X426445Y185187D01*
X412302Y171045D01*
G37*
X461800Y135689D02*
G54D14*
D03*
X496875Y171076D02*
G54D14*
D03*
G36*
X252950Y156300D02*
X276950Y156300D01*
X276950Y180300D01*
X252950Y180300D01*
X252950Y156300D01*
G37*
X337975Y168300D02*
G54D15*
D03*
G36*
X154350Y470450D02*
X172350Y470450D01*
X172350Y488450D01*
X154350Y488450D01*
X154350Y470450D01*
G37*
X188750Y479450D02*
G54D16*
D03*
X353850Y288950D02*
G54D13*
D03*
X252250Y288950D02*
G54D13*
D03*
X252250Y447700D02*
G54D13*
D03*
X252250Y549300D02*
G54D13*
D03*
X331625Y473100D02*
G54D17*
D03*
X331625Y498500D02*
G54D17*
D03*
X331625Y523900D02*
G54D17*
D03*
G36*
X153350Y532950D02*
X173350Y532950D01*
X173350Y552950D01*
X153350Y552950D01*
X153350Y532950D01*
G37*
X188350Y542950D02*
G54D14*
D03*
G54D18*
X1179350Y403250D02*
X1179350Y469925D01*
X1201575Y492150D01*
G54D18*
X1179350Y353250D02*
X1178550Y353250D01*
X1146800Y353250D01*
X1141250Y358800D01*
X1141250Y479450D01*
X1128550Y492150D01*
X1099975Y492150D01*
G54D18*
X1099975Y492150D02*
X1099975Y555650D01*
G54D18*
X1201575Y492150D02*
X1201575Y555650D01*
G54D18*
X464975Y206400D02*
X525300Y206400D01*
X576100Y155600D01*
X1046000Y155600D01*
X1084100Y123850D01*
G54D18*
X1020600Y123850D02*
X557050Y123850D01*
X544350Y136550D01*
X465836Y136550D01*
X464975Y135689D01*
G54D18*
X429620Y171045D02*
X388345Y171045D01*
X360200Y142900D01*
X293525Y142900D01*
X264950Y171475D01*
G54D18*
X496875Y171076D02*
X462200Y171076D01*
X433225Y200050D01*
X369725Y200050D01*
X337975Y168300D01*
G54D18*
X337975Y168300D02*
X312575Y193700D01*
X312575Y247675D01*
X353850Y288950D01*
G54D18*
X264950Y168300D02*
X290350Y193700D01*
X290350Y250850D01*
X252250Y288950D01*
G54D18*
X353850Y288950D02*
X312575Y330225D01*
X312575Y454050D01*
X331625Y473100D01*
G54D18*
X252250Y288950D02*
X290350Y327050D01*
X290350Y409600D01*
X252250Y447700D01*
G54D18*
X252250Y447700D02*
X179225Y447700D01*
X163350Y463575D01*
X163350Y479450D01*
G54D18*
X188750Y479450D02*
X242725Y479450D01*
X252250Y488975D01*
X252250Y549300D01*
G54D18*
X331625Y523900D02*
X277650Y523900D01*
X252250Y549300D01*
G54D18*
X331625Y498500D02*
X303050Y498500D01*
X252250Y447700D01*
G54D18*
X188350Y542950D02*
X188350Y479850D01*
X188750Y479450D01*
G54D18*
X163350Y542950D02*
X163350Y479450D01*
G54D19*
X331625Y498500D02*
X366550Y498500D01*
G54D19*
X369725Y631850D02*
X369725Y365177D01*
X372927Y361975D01*
G54D19*
X788725Y380000D02*
X788725Y450975D01*
X741200Y498500D01*
X366550Y498500D01*
X369725Y638200D02*
G54D20*
D03*
X369725Y358827D02*
G54D20*
D03*
G54D21*
X617375Y574700D02*
X617375Y601367D01*
X628042Y601367D01*
X628042Y598033D01*
G54D21*
X617375Y591367D02*
X625375Y591367D01*
X628042Y588033D01*
X628042Y578033D01*
X625375Y574700D01*
X617375Y574700D01*
G54D21*
X637375Y574700D02*
X638708Y576367D01*
X638708Y586367D01*
X641375Y589700D01*
X645375Y589700D01*
X645375Y574700D01*
G54D21*
X662708Y578700D02*
X662708Y585367D01*
X661375Y588700D01*
X658708Y589700D01*
X656041Y588700D01*
X654708Y585367D01*
X654708Y578700D01*
X656041Y575367D01*
X658708Y574700D01*
X661375Y575367D01*
X662708Y578700D01*
G54D21*
X672041Y574700D02*
X672041Y589700D01*
G54D21*
X676041Y584700D02*
X680041Y574700D01*
G54D21*
X672041Y581367D02*
X680041Y589700D01*
G54D21*
X698974Y574700D02*
X698974Y589700D01*
X706974Y589700D01*
X706974Y574700D01*
G54D21*
X716307Y589700D02*
X716307Y574700D01*
X724307Y589700D01*
X724307Y574700D01*
G54D21*
X733640Y589700D02*
X741640Y589700D01*
G54D21*
X737640Y574700D02*
X737640Y589700D01*
G54D21*
X750973Y588033D02*
X753640Y589700D01*
X756840Y589700D01*
X758973Y586367D01*
X758973Y574700D01*
G54D21*
X758973Y579700D02*
X757640Y583033D01*
X754973Y583700D01*
X752306Y583033D01*
X750973Y579700D01*
X751506Y576367D01*
X753640Y574700D01*
X754973Y574700D01*
X755506Y574700D01*
X757640Y576367D01*
X758973Y579700D01*
G54D21*
X768306Y574700D02*
X768306Y589700D01*
G54D21*
X768306Y583033D02*
X776306Y583033D01*
G54D21*
X776306Y574700D02*
X776306Y589700D01*
G54D21*
X785639Y589700D02*
X785639Y574700D01*
X793639Y589700D01*
X793639Y574700D01*
G54D21*
X802972Y574700D02*
X808305Y583033D01*
X810972Y583033D01*
X805639Y583033D01*
X804305Y584700D01*
X804305Y588033D01*
X805639Y589700D01*
X810972Y589700D01*
X810972Y574700D01*
G54D21*
X829905Y591367D02*
X836572Y601367D01*
X836572Y574700D01*
G54D21*
X856572Y574700D02*
X845905Y574700D01*
X845905Y576367D01*
X847238Y579700D01*
X855238Y589700D01*
X856572Y593033D01*
X856572Y596367D01*
X855238Y599700D01*
X852572Y601367D01*
X849905Y601367D01*
X847238Y599700D01*
X845905Y596367D01*
G54D21*
X865905Y574700D02*
X865905Y601367D01*
X872572Y601367D01*
X875238Y599700D01*
X876572Y596367D01*
X876572Y593033D01*
X875238Y589700D01*
X872572Y588033D01*
X875238Y586367D01*
X876572Y583033D01*
X876572Y579700D01*
X875238Y576367D01*
X872572Y574700D01*
X865905Y574700D01*
G54D21*
X865905Y588033D02*
X872572Y588033D01*
G54D21*
X885905Y574700D02*
X896572Y601367D01*
G54D21*
X916572Y596367D02*
X916572Y579700D01*
X915238Y576367D01*
X912572Y574700D01*
X909905Y574700D01*
X907238Y576367D01*
X905905Y579700D01*
X905905Y596367D01*
X907238Y599700D01*
X909905Y601367D01*
X912572Y601367D01*
X915238Y599700D01*
X916572Y596367D01*
G54D21*
X926972Y574700D02*
X925905Y574700D01*
X925905Y576033D01*
X926972Y576033D01*
X926972Y574700D01*
X925905Y574700D01*
G54D21*
X946972Y601367D02*
X936305Y601367D01*
X936305Y589700D01*
X937638Y589700D01*
X940305Y591367D01*
X942972Y591367D01*
X945638Y589700D01*
X946972Y586367D01*
X946972Y579700D01*
X945638Y576367D01*
X942972Y574700D01*
X940305Y574700D01*
X937638Y576367D01*
X936305Y579700D01*
G54D21*
X956305Y574700D02*
X962972Y601367D01*
X969638Y574700D01*
G54D21*
X958972Y584700D02*
X966972Y584700D01*
G54D22*
X690781Y259739D02*
X693447Y257517D01*
X694336Y255294D01*
X694336Y250850D01*
G54D22*
X687225Y250850D02*
X687225Y268628D01*
X691669Y268628D01*
X693447Y267517D01*
X694336Y265294D01*
X694336Y263072D01*
X693447Y260850D01*
X691669Y259739D01*
X687225Y259739D01*
G54D22*
X705891Y251961D02*
X704469Y250850D01*
X702691Y250850D01*
X700914Y251961D01*
X700558Y254183D01*
X700558Y257961D01*
X701447Y260183D01*
X703225Y260850D01*
X705002Y260183D01*
X705891Y258628D01*
X705891Y256406D01*
X700558Y256406D01*
G54D22*
X712113Y260850D02*
X715669Y250850D01*
X719224Y260850D01*
G54D22*
X726157Y250850D02*
X725446Y250850D01*
X725446Y251739D01*
X726157Y251739D01*
X726157Y250850D01*
X725446Y250850D01*
G54D22*
X732379Y250850D02*
X733090Y250850D01*
X733090Y251739D01*
X732379Y251739D01*
X732379Y250850D01*
G54D22*
X733090Y264183D02*
X732379Y264183D01*
X732379Y265072D01*
X733090Y265072D01*
X733090Y264183D01*
G54D22*
X739312Y261961D02*
X743756Y268628D01*
X743756Y250850D01*
G54D22*
X750689Y250850D02*
X749978Y250850D01*
X749978Y251739D01*
X750689Y251739D01*
X750689Y250850D01*
X749978Y250850D01*
G54D22*
X756911Y261961D02*
X761355Y268628D01*
X761355Y250850D01*
G54D22*
X776644Y268628D02*
X774866Y267517D01*
X773977Y265294D01*
X773977Y254183D01*
X774866Y251961D01*
X776644Y250850D01*
G54D22*
X782866Y261961D02*
X787310Y268628D01*
X787310Y250850D01*
G54D22*
X793532Y265294D02*
X794421Y267517D01*
X796199Y268628D01*
X797976Y268628D01*
X799754Y267517D01*
X800643Y265294D01*
X800643Y263072D01*
X799754Y260850D01*
X797976Y259739D01*
X799754Y258628D01*
X800643Y256406D01*
X800643Y254183D01*
X799754Y251961D01*
X797976Y250850D01*
X796199Y250850D01*
X794421Y251961D01*
X793532Y254183D01*
G54D22*
X806865Y250850D02*
X813976Y268628D01*
G54D22*
X827309Y265294D02*
X827309Y254183D01*
X826420Y251961D01*
X824642Y250850D01*
X822865Y250850D01*
X821087Y251961D01*
X820198Y254183D01*
X820198Y265294D01*
X821087Y267517D01*
X822865Y268628D01*
X824642Y268628D01*
X826420Y267517D01*
X827309Y265294D01*
G54D22*
X833531Y261961D02*
X837975Y268628D01*
X837975Y250850D01*
G54D22*
X844197Y250850D02*
X851308Y268628D01*
G54D22*
X864641Y250850D02*
X857530Y250850D01*
X857530Y251961D01*
X858419Y254183D01*
X863752Y260850D01*
X864641Y263072D01*
X864641Y265294D01*
X863752Y267517D01*
X861974Y268628D01*
X860197Y268628D01*
X858419Y267517D01*
X857530Y265294D01*
G54D22*
X877974Y265294D02*
X877974Y254183D01*
X877085Y251961D01*
X875307Y250850D01*
X873530Y250850D01*
X871752Y251961D01*
X870863Y254183D01*
X870863Y265294D01*
X871752Y267517D01*
X873530Y268628D01*
X875307Y268628D01*
X877085Y267517D01*
X877974Y265294D01*
G54D22*
X884196Y261961D02*
X888640Y268628D01*
X888640Y250850D01*
G54D22*
X894862Y254183D02*
X895751Y251961D01*
X897529Y250850D01*
X899306Y250850D01*
X901084Y251961D01*
X901973Y254183D01*
X901973Y259739D01*
X901973Y260850D01*
X899306Y258628D01*
X897529Y258628D01*
X895751Y259739D01*
X894862Y261961D01*
X894862Y265294D01*
X895751Y267517D01*
X897529Y268628D01*
X899306Y268628D01*
X901084Y267517D01*
X901973Y265294D01*
X901973Y259739D01*
G54D22*
X908195Y268628D02*
X909973Y267517D01*
X910862Y265294D01*
X910862Y254183D01*
X909973Y251961D01*
X908195Y250850D01*
M02*
