%FSLAX34Y34*%
%MOMM*%
%LNOUTLINE*%
G71*
G01*
%ADD10C, 0.200*%
%LPD*%
G54D10*
X1220000Y680000D02*
X1220000Y80000D01*
X130000Y80000D01*
X130000Y680000D01*
X1220000Y680000D01*
G54D10*
X341150Y647725D02*
X341150Y619150D01*
X226850Y619150D01*
X226850Y647725D01*
X341150Y647725D01*
G54D10*
X353850Y600100D02*
X353850Y571525D01*
X226850Y571525D01*
X226850Y600100D01*
X353850Y600100D01*
G54D10*
X461800Y647725D02*
X398300Y647725D01*
X398300Y619150D01*
X461800Y619150D01*
X461800Y647725D01*
G54D10*
X461800Y600100D02*
X382425Y600100D01*
X382425Y517550D01*
X461800Y517550D01*
X461800Y600100D01*
G54D10*
X277650Y377850D02*
X277650Y349275D01*
X226850Y349275D01*
X226850Y377850D01*
X277650Y377850D01*
G54D10*
X341150Y377850D02*
X341150Y349275D01*
X325275Y349275D01*
X325275Y377850D01*
X341150Y377850D01*
G54D10*
X325275Y425475D02*
X325275Y396900D01*
X353850Y396900D01*
X353850Y425475D01*
X325275Y425475D01*
G54D10*
X461800Y377850D02*
X461800Y349275D01*
X398300Y349275D01*
X398300Y377850D01*
X461800Y377850D01*
G54D10*
X461800Y479450D02*
X461800Y396900D01*
X382425Y396900D01*
X382425Y479450D01*
X461800Y479450D01*
M02*
